solid lathe_vibrate
facet normal 0.707106781186568 -0.7071067811865271 1.3100411619290442e-15
  outer loop
    vertex 2.30072468684455 -1.7654081441260312 -39.99999999999993
    vertex 1.7654081441254672 -2.3007246868451365 9.023892744153272e-14
    vertex 1.7654081441252416 -2.3007246868452715 -39.99999999999993
  endloop
endfacet
facet normal 0.707106781186568 -0.7071067811865271 1.3100411619290442e-15
  outer loop
    vertex 1.7654081441254672 -2.3007246868451365 9.023892744153272e-14
    vertex 2.30072468684455 -1.7654081441260312 -39.99999999999993
    vertex 2.3007246868446853 -1.765408144125896 9.023892744153272e-14
  endloop
endfacet
facet normal 0.2588190451025184 -0.9659258262890691 3.8494892711573815e-15
  outer loop
    vertex 1.109781953858886 -2.6792506442832202 9.023892744153272e-14
    vertex 0.3785259574381292 -2.875190097984804 -39.99999999999993
    vertex 1.1097819538587055 -2.6792506442836266 -39.99999999999993
  endloop
endfacet
facet normal 0.2588190451025184 -0.9659258262890691 3.8494892711573815e-15
  outer loop
    vertex 0.3785259574381292 -2.875190097984804 -39.99999999999993
    vertex 1.109781953858886 -2.6792506442832202 9.023892744153272e-14
    vertex 0.37852595743828715 -2.8751900979845786 9.023892744153272e-14
  endloop
endfacet
facet normal 0.8660254037844347 -0.5000000000000068 -1.3996429611825845e-16
  outer loop
    vertex 2.6792506442826562 -1.109781953859495 -39.99999999999993
    vertex 2.3007246868446853 -1.765408144125896 9.023892744153272e-14
    vertex 2.30072468684455 -1.7654081441260312 -39.99999999999993
  endloop
endfacet
facet normal 0.8660254037844347 -0.5000000000000068 -1.3996429611825845e-16
  outer loop
    vertex 2.3007246868446853 -1.765408144125896 9.023892744153272e-14
    vertex 2.6792506442826562 -1.109781953859495 -39.99999999999993
    vertex 2.6792506442828596 -1.1097819538593596 9.023892744153272e-14
  endloop
endfacet
facet normal 4.191091917842475e-15 -1.0 4.7658727303293184e-15
  outer loop
    vertex 0.37852595743828715 -2.8751900979845786 9.023892744153272e-14
    vertex -0.37852595743817435 -2.8751900979849396 -39.99999999999993
    vertex 0.3785259574381292 -2.875190097984804 -39.99999999999993
  endloop
endfacet
facet normal 4.191091917842475e-15 -1.0 4.7658727303293184e-15
  outer loop
    vertex -0.37852595743817435 -2.8751900979849396 -39.99999999999993
    vertex 0.37852595743828715 -2.8751900979845786 9.023892744153272e-14
    vertex -0.3785259574380164 -2.8751900979845786 9.023892744153272e-14
  endloop
endfacet
facet normal 0.9659258262890715 -0.25881904510250897 -1.5804314186887294e-15
  outer loop
    vertex 2.8751900979839924 -0.3785259574390316 -39.99999999999993
    vertex 2.6792506442828596 -1.1097819538593596 9.023892744153272e-14
    vertex 2.6792506442826562 -1.109781953859495 -39.99999999999993
  endloop
endfacet
facet normal 0.9659258262890715 -0.25881904510250897 -1.5804314186887294e-15
  outer loop
    vertex 2.6792506442828596 -1.1097819538593596 9.023892744153272e-14
    vertex 2.8751900979839924 -0.3785259574390316 -39.99999999999993
    vertex 2.8751900979841727 -0.3785259574386707 9.023892744153272e-14
  endloop
endfacet
facet normal 0.49999999999999206 -0.8660254037844433 2.670769479737905e-15
  outer loop
    vertex 1.7654081441254672 -2.3007246868451365 9.023892744153272e-14
    vertex 1.1097819538587055 -2.6792506442836266 -39.99999999999993
    vertex 1.7654081441252416 -2.3007246868452715 -39.99999999999993
  endloop
endfacet
facet normal 0.49999999999999206 -0.8660254037844433 2.670769479737905e-15
  outer loop
    vertex 1.1097819538587055 -2.6792506442836266 -39.99999999999993
    vertex 1.7654081441254672 -2.3007246868451365 9.023892744153272e-14
    vertex 1.109781953858886 -2.6792506442832202 9.023892744153272e-14
  endloop
endfacet
facet normal -0.793353340291228 -0.6087614290087303 -1.7040474928138046e-14
  outer loop
    vertex -5.1961524227066915 -3.000000000000942 -40.000000000000014
    vertex -4.242640687119138 -4.242640687120288 -47.999999999999915
    vertex -4.242640687119364 -4.242640687120334 -40.000000000000014
  endloop
endfacet
facet normal -0.793353340291228 -0.6087614290087303 -1.7040474928138046e-14
  outer loop
    vertex -4.242640687119138 -4.242640687120288 -47.999999999999915
    vertex -5.1961524227066915 -3.000000000000942 -40.000000000000014
    vertex -5.196152422706488 -3.0000000000010774 -47.999999999999915
  endloop
endfacet
facet normal 2.9131947518623975e-15 4.7658727303290416e-15 1.0
  outer loop
    vertex -2.6792506442826114 -1.1097819538593596 0.0
    vertex -2.875190097983947 0.37852595743749756 9.023892744153272e-14
    vertex -2.875190097983947 -0.3785259574386707 9.023892744153272e-14
  endloop
endfacet
facet normal 2.9131947518623975e-15 4.7658727303290416e-15 1.0
  outer loop
    vertex -2.875190097983947 0.37852595743749756 9.023892744153272e-14
    vertex -2.6792506442826114 -1.1097819538593596 0.0
    vertex -2.6792506442826562 1.1097819538581415 9.023892744153272e-14
  endloop
endfacet
facet normal 2.9131947518623975e-15 4.7658727303290416e-15 1.0
  outer loop
    vertex -2.6792506442826562 1.1097819538581415 9.023892744153272e-14
    vertex -2.6792506442826114 -1.1097819538593596 0.0
    vertex -2.3007246868444597 1.7654081441246776 -9.023892744153272e-14
  endloop
endfacet
facet normal 2.9131947518623975e-15 4.7658727303290416e-15 1.0
  outer loop
    vertex -2.3007246868444597 1.7654081441246776 -9.023892744153272e-14
    vertex -2.6792506442826114 -1.1097819538593596 0.0
    vertex -2.3007246868444144 -1.765408144125896 9.023892744153272e-14
  endloop
endfacet
facet normal 2.9131947518623975e-15 4.7658727303290416e-15 1.0
  outer loop
    vertex -2.3007246868444597 1.7654081441246776 -9.023892744153272e-14
    vertex -2.3007246868444144 -1.765408144125896 9.023892744153272e-14
    vertex -1.7654081441251515 2.3007246868440085 9.023892744153272e-14
  endloop
endfacet
facet normal 2.9131947518623975e-15 4.7658727303290416e-15 1.0
  outer loop
    vertex -1.7654081441251515 2.3007246868440085 9.023892744153272e-14
    vertex -2.3007246868444144 -1.765408144125896 9.023892744153272e-14
    vertex -1.7654081441251739 -2.3007246868451814 9.023892744153272e-14
  endloop
endfacet
facet normal 2.9131947518623975e-15 4.7658727303290416e-15 1.0
  outer loop
    vertex -1.7654081441251515 2.3007246868440085 9.023892744153272e-14
    vertex -1.7654081441251739 -2.3007246868451814 9.023892744153272e-14
    vertex -1.1097819538586378 -2.6792506442833557 9.023892744153272e-14
  endloop
endfacet
facet normal 2.9131947518623975e-15 4.7658727303290416e-15 1.0
  outer loop
    vertex -1.7654081441251515 2.3007246868440085 9.023892744153272e-14
    vertex -1.1097819538586378 -2.6792506442833557 9.023892744153272e-14
    vertex -1.1097819538586378 2.6792506442820923 9.023892744153272e-14
  endloop
endfacet
facet normal 2.9131947518623975e-15 4.7658727303290416e-15 1.0
  outer loop
    vertex -1.1097819538586378 2.6792506442820923 9.023892744153272e-14
    vertex -1.1097819538586378 -2.6792506442833557 9.023892744153272e-14
    vertex -0.3785259574380164 -2.8751900979845786 9.023892744153272e-14
  endloop
endfacet
facet normal 2.9131947518623975e-15 4.7658727303290416e-15 1.0
  outer loop
    vertex -1.1097819538586378 2.6792506442820923 9.023892744153272e-14
    vertex -0.3785259574380164 -2.8751900979845786 9.023892744153272e-14
    vertex -0.378525957438039 2.875190097983496 -9.023892744153272e-14
  endloop
endfacet
facet normal 2.9131947518623975e-15 4.7658727303290416e-15 1.0
  outer loop
    vertex -0.378525957438039 2.875190097983496 -9.023892744153272e-14
    vertex -0.3785259574380164 -2.8751900979845786 9.023892744153272e-14
    vertex 0.378525957438242 2.8751900979834506 9.023892744153272e-14
  endloop
endfacet
facet normal 2.9131947518623975e-15 4.7658727303290416e-15 1.0
  outer loop
    vertex 0.378525957438242 2.8751900979834506 9.023892744153272e-14
    vertex -0.3785259574380164 -2.8751900979845786 9.023892744153272e-14
    vertex 0.37852595743828715 -2.8751900979845786 9.023892744153272e-14
  endloop
endfacet
facet normal 2.9131947518623975e-15 4.7658727303290416e-15 1.0
  outer loop
    vertex 0.378525957438242 2.8751900979834506 9.023892744153272e-14
    vertex 0.37852595743828715 -2.8751900979845786 9.023892744153272e-14
    vertex 1.1097819538589084 2.6792506442821376 9.023892744153272e-14
  endloop
endfacet
facet normal 2.9131947518623975e-15 4.7658727303290416e-15 1.0
  outer loop
    vertex 1.1097819538589084 2.6792506442821376 9.023892744153272e-14
    vertex 0.37852595743828715 -2.8751900979845786 9.023892744153272e-14
    vertex 1.109781953858886 -2.6792506442832202 9.023892744153272e-14
  endloop
endfacet
facet normal 2.9131947518623975e-15 4.7658727303290416e-15 1.0
  outer loop
    vertex 1.1097819538589084 2.6792506442821376 9.023892744153272e-14
    vertex 1.109781953858886 -2.6792506442832202 9.023892744153272e-14
    vertex 1.7654081441254672 -2.3007246868451365 9.023892744153272e-14
  endloop
endfacet
facet normal 2.9131947518623975e-15 4.7658727303290416e-15 1.0
  outer loop
    vertex 1.1097819538589084 2.6792506442821376 9.023892744153272e-14
    vertex 1.7654081441254672 -2.3007246868451365 9.023892744153272e-14
    vertex 1.765408144125377 2.3007246868439633 9.023892744153272e-14
  endloop
endfacet
facet normal 2.9131947518623975e-15 4.7658727303290416e-15 1.0
  outer loop
    vertex 1.765408144125377 2.3007246868439633 9.023892744153272e-14
    vertex 1.7654081441254672 -2.3007246868451365 9.023892744153272e-14
    vertex 2.3007246868447075 1.7654081441246776 -1.8047785488306544e-13
  endloop
endfacet
facet normal 2.9131947518623975e-15 4.7658727303290416e-15 1.0
  outer loop
    vertex 2.3007246868447075 1.7654081441246776 -1.8047785488306544e-13
    vertex 1.7654081441254672 -2.3007246868451365 9.023892744153272e-14
    vertex 2.3007246868446853 -1.765408144125896 9.023892744153272e-14
  endloop
endfacet
facet normal 2.9131947518623975e-15 4.7658727303290416e-15 1.0
  outer loop
    vertex 2.3007246868447075 1.7654081441246776 -1.8047785488306544e-13
    vertex 2.3007246868446853 -1.765408144125896 9.023892744153272e-14
    vertex 2.6792506442828596 -1.1097819538593596 9.023892744153272e-14
  endloop
endfacet
facet normal 2.9131947518623975e-15 4.7658727303290416e-15 1.0
  outer loop
    vertex 2.3007246868447075 1.7654081441246776 -1.8047785488306544e-13
    vertex 2.6792506442828596 -1.1097819538593596 9.023892744153272e-14
    vertex 2.6792506442828596 1.109781953858277 0.0
  endloop
endfacet
facet normal 2.9131947518623975e-15 4.7658727303290416e-15 1.0
  outer loop
    vertex 2.6792506442828596 1.109781953858277 0.0
    vertex 2.6792506442828596 -1.1097819538593596 9.023892744153272e-14
    vertex 2.8751900979841727 -0.3785259574386707 9.023892744153272e-14
  endloop
endfacet
facet normal 2.9131947518623975e-15 4.7658727303290416e-15 1.0
  outer loop
    vertex 2.6792506442828596 1.109781953858277 0.0
    vertex 2.8751900979841727 -0.3785259574386707 9.023892744153272e-14
    vertex 2.87519009798415 0.37852595743745243 9.023892744153272e-14
  endloop
endfacet
facet normal -0.38268343236508584 -0.9238795325112885 -8.0619789937218e-15
  outer loop
    vertex -1.5529142706149788 -5.795554957735493 -47.99999999999982
    vertex -3.000000000000062 -5.196152422707594 -40.000000000000014
    vertex -2.999999999999882 -5.196152422707684 -47.999999999999915
  endloop
endfacet
facet normal -0.38268343236508584 -0.9238795325112885 -8.0619789937218e-15
  outer loop
    vertex -3.000000000000062 -5.196152422707594 -40.000000000000014
    vertex -1.5529142706149788 -5.795554957735493 -47.99999999999982
    vertex -1.5529142706151817 -5.7955549577353125 -39.99999999999993
  endloop
endfacet
facet normal -0.923879532511293 -0.38268343236507485 -1.8768964783908814e-14
  outer loop
    vertex -5.1961524227066915 -3.000000000000942 -40.000000000000014
    vertex -5.795554957734274 -1.5529142706160615 -47.999999999999915
    vertex -5.196152422706488 -3.0000000000010774 -47.999999999999915
  endloop
endfacet
facet normal -0.923879532511293 -0.38268343236507485 -1.8768964783908814e-14
  outer loop
    vertex -5.795554957734274 -1.5529142706160615 -47.999999999999915
    vertex -5.1961524227066915 -3.000000000000942 -40.000000000000014
    vertex -5.7955549577345 -1.5529142706160164 -40.000000000000014
  endloop
endfacet
facet normal -1.8655958858237828e-14 -2.015865342497108e-15 1.0
  outer loop
    vertex -5.7955549577345 -1.5529142706160164 -40.000000000000014
    vertex -5.7955549577344545 1.5529142706142116 -40.00000000000011
    vertex -6.000000000000034 -9.926282018568599e-13 -40.0000000000002
  endloop
endfacet
facet normal -1.8655958858237828e-14 -2.015865342497108e-15 1.0
  outer loop
    vertex -5.7955549577344545 1.5529142706142116 -40.00000000000011
    vertex -5.7955549577345 -1.5529142706160164 -40.000000000000014
    vertex -5.1961524227066915 -3.000000000000942 -40.000000000000014
  endloop
endfacet
facet normal -1.8655958858237828e-14 -2.015865342497108e-15 1.0
  outer loop
    vertex -5.7955549577344545 1.5529142706142116 -40.00000000000011
    vertex -5.1961524227066915 -3.000000000000942 -40.000000000000014
    vertex -5.1961524227066915 2.999999999999047 -40.0000000000002
  endloop
endfacet
facet normal -1.8655958858237828e-14 -2.015865342497108e-15 1.0
  outer loop
    vertex -5.1961524227066915 2.999999999999047 -40.0000000000002
    vertex -5.1961524227066915 -3.000000000000942 -40.000000000000014
    vertex -4.242640687119364 -4.242640687120334 -40.000000000000014
  endloop
endfacet
facet normal -1.8655958858237828e-14 -2.015865342497108e-15 1.0
  outer loop
    vertex -5.1961524227066915 2.999999999999047 -40.0000000000002
    vertex -4.242640687119364 -4.242640687120334 -40.000000000000014
    vertex -4.242640687119341 4.242640687118303 -40.000000000000014
  endloop
endfacet
facet normal -1.8655958858237828e-14 -2.015865342497108e-15 1.0
  outer loop
    vertex -4.242640687119341 4.242640687118303 -40.000000000000014
    vertex -4.242640687119364 -4.242640687120334 -40.000000000000014
    vertex -3.000000000000062 -5.196152422707594 -40.000000000000014
  endloop
endfacet
facet normal -1.8655958858237828e-14 -2.015865342497108e-15 1.0
  outer loop
    vertex -4.242640687119341 4.242640687118303 -40.000000000000014
    vertex -3.000000000000062 -5.196152422707594 -40.000000000000014
    vertex -3.000000000000062 5.196152422705834 -40.00000000000047
  endloop
endfacet
facet normal -1.8655958858237828e-14 -2.015865342497108e-15 1.0
  outer loop
    vertex -3.000000000000062 5.196152422705834 -40.00000000000047
    vertex -3.000000000000062 -5.196152422707594 -40.000000000000014
    vertex -2.8751900979841274 -0.3785259574388963 -39.99999999999993
  endloop
endfacet
facet normal -1.8655958858237828e-14 -2.015865342497108e-15 1.0
  outer loop
    vertex -2.8751900979841274 -0.3785259574388963 -39.99999999999993
    vertex -3.000000000000062 -5.196152422707594 -40.000000000000014
    vertex -1.5529142706151817 -5.7955549577353125 -39.99999999999993
  endloop
endfacet
facet normal -1.8655958858237828e-14 -2.015865342497108e-15 1.0
  outer loop
    vertex -3.000000000000062 5.196152422705834 -40.00000000000047
    vertex -2.8751900979841274 -0.3785259574388963 -39.99999999999993
    vertex -2.87519009798415 0.3785259574373622 -39.99999999999993
  endloop
endfacet
facet normal -1.8655958858237828e-14 -2.015865342497108e-15 1.0
  outer loop
    vertex -2.8751900979841274 -0.3785259574388963 -39.99999999999993
    vertex -1.5529142706151817 -5.7955549577353125 -39.99999999999993
    vertex -2.6792506442828143 -1.109781953859495 -39.99999999999993
  endloop
endfacet
facet normal -1.8655958858237828e-14 -2.015865342497108e-15 1.0
  outer loop
    vertex -2.6792506442828143 -1.109781953859495 -39.99999999999993
    vertex -1.5529142706151817 -5.7955549577353125 -39.99999999999993
    vertex -2.30072468684464 -1.7654081441262117 -39.99999999999993
  endloop
endfacet
facet normal -1.8655958858237828e-14 -2.015865342497108e-15 1.0
  outer loop
    vertex -2.30072468684464 -1.7654081441262117 -39.99999999999993
    vertex -1.5529142706151817 -5.7955549577353125 -39.99999999999993
    vertex -1.765408144125377 -2.3007246868451814 -39.99999999999993
  endloop
endfacet
facet normal -1.8655958858237828e-14 -2.015865342497108e-15 1.0
  outer loop
    vertex -1.765408144125377 -2.3007246868451814 -39.99999999999993
    vertex -1.5529142706151817 -5.7955549577353125 -39.99999999999993
    vertex -1.109781953858841 -2.679250644283446 -39.99999999999993
  endloop
endfacet
facet normal -1.8655958858237828e-14 -2.015865342497108e-15 1.0
  outer loop
    vertex -1.109781953858841 -2.679250644283446 -39.99999999999993
    vertex -1.5529142706151817 -5.7955549577353125 -39.99999999999993
    vertex -4.511946372076636e-14 -6.000000000000892 -40.00000000000011
  endloop
endfacet
facet normal -1.8655958858237828e-14 -2.015865342497108e-15 1.0
  outer loop
    vertex -1.109781953858841 -2.679250644283446 -39.99999999999993
    vertex -4.511946372076636e-14 -6.000000000000892 -40.00000000000011
    vertex -0.37852595743817435 -2.8751900979849396 -39.99999999999993
  endloop
endfacet
facet normal -1.8655958858237828e-14 -2.015865342497108e-15 1.0
  outer loop
    vertex -0.37852595743817435 -2.8751900979849396 -39.99999999999993
    vertex -4.511946372076636e-14 -6.000000000000892 -40.00000000000011
    vertex 0.3785259574381292 -2.875190097984804 -39.99999999999993
  endloop
endfacet
facet normal -1.8655958858237828e-14 -2.015865342497108e-15 1.0
  outer loop
    vertex 0.3785259574381292 -2.875190097984804 -39.99999999999993
    vertex -4.511946372076636e-14 -6.000000000000892 -40.00000000000011
    vertex 1.5529142706150916 -5.795554957735493 -39.99999999999993
  endloop
endfacet
facet normal -1.8655958858237828e-14 -2.015865342497108e-15 1.0
  outer loop
    vertex 0.3785259574381292 -2.875190097984804 -39.99999999999993
    vertex 1.5529142706150916 -5.795554957735493 -39.99999999999993
    vertex 1.1097819538587055 -2.6792506442836266 -39.99999999999993
  endloop
endfacet
facet normal -1.8655958858237828e-14 -2.015865342497108e-15 1.0
  outer loop
    vertex 1.1097819538587055 -2.6792506442836266 -39.99999999999993
    vertex 1.5529142706150916 -5.795554957735493 -39.99999999999993
    vertex 1.7654081441252416 -2.3007246868452715 -39.99999999999993
  endloop
endfacet
facet normal -1.8655958858237828e-14 -2.015865342497108e-15 1.0
  outer loop
    vertex 1.7654081441252416 -2.3007246868452715 -39.99999999999993
    vertex 1.5529142706150916 -5.795554957735493 -39.99999999999993
    vertex 2.9999999999999494 -5.196152422707594 -39.99999999999993
  endloop
endfacet
facet normal -1.8655958858237828e-14 -2.015865342497108e-15 1.0
  outer loop
    vertex 1.7654081441252416 -2.3007246868452715 -39.99999999999993
    vertex 2.9999999999999494 -5.196152422707594 -39.99999999999993
    vertex 2.30072468684455 -1.7654081441260312 -39.99999999999993
  endloop
endfacet
facet normal -1.8655958858237828e-14 -2.015865342497108e-15 1.0
  outer loop
    vertex 2.30072468684455 -1.7654081441260312 -39.99999999999993
    vertex 2.9999999999999494 -5.196152422707594 -39.99999999999993
    vertex 2.6792506442826562 -1.109781953859495 -39.99999999999993
  endloop
endfacet
facet normal -1.8655958858237828e-14 -2.015865342497108e-15 1.0
  outer loop
    vertex 2.6792506442826562 -1.109781953859495 -39.99999999999993
    vertex 2.9999999999999494 -5.196152422707594 -39.99999999999993
    vertex 2.8751900979839924 -0.3785259574390316 -39.99999999999993
  endloop
endfacet
facet normal -1.8655958858237828e-14 -2.015865342497108e-15 1.0
  outer loop
    vertex -2.87519009798415 0.3785259574373622 -39.99999999999993
    vertex -1.5529142706151817 5.795554957733508 -40.000000000000014
    vertex -3.000000000000062 5.196152422705834 -40.00000000000047
  endloop
endfacet
facet normal -1.8655958858237828e-14 -2.015865342497108e-15 1.0
  outer loop
    vertex -1.5529142706151817 5.795554957733508 -40.000000000000014
    vertex -2.87519009798415 0.3785259574373622 -39.99999999999993
    vertex -2.6792506442828143 1.1097819538578257 -39.99999999999993
  endloop
endfacet
facet normal -1.8655958858237828e-14 -2.015865342497108e-15 1.0
  outer loop
    vertex -1.5529142706151817 5.795554957733508 -40.000000000000014
    vertex -2.6792506442828143 1.1097819538578257 -39.99999999999993
    vertex -2.3007246868446853 1.7654081441245424 -40.000000000000014
  endloop
endfacet
facet normal -1.8655958858237828e-14 -2.015865342497108e-15 1.0
  outer loop
    vertex -1.5529142706151817 5.795554957733508 -40.000000000000014
    vertex -2.3007246868446853 1.7654081441245424 -40.000000000000014
    vertex -1.765408144125377 2.300724686843873 -39.99999999999993
  endloop
endfacet
facet normal -1.8655958858237828e-14 -2.015865342497108e-15 1.0
  outer loop
    vertex -1.5529142706151817 5.795554957733508 -40.000000000000014
    vertex -1.765408144125377 2.300724686843873 -39.99999999999993
    vertex -1.109781953858886 2.679250644282002 -39.99999999999993
  endloop
endfacet
facet normal -1.8655958858237828e-14 -2.015865342497108e-15 1.0
  outer loop
    vertex -1.5529142706151817 5.795554957733508 -40.000000000000014
    vertex -1.109781953858886 2.679250644282002 -39.99999999999993
    vertex -6.767919558114953e-14 5.999999999999131 -39.99999999999993
  endloop
endfacet
facet normal -1.8655958858237828e-14 -2.015865342497108e-15 1.0
  outer loop
    vertex -6.767919558114953e-14 5.999999999999131 -39.99999999999993
    vertex -1.109781953858886 2.679250644282002 -39.99999999999993
    vertex -0.3785259574382646 2.8751900979833156 -40.000000000000014
  endloop
endfacet
facet normal -1.8655958858237828e-14 -2.015865342497108e-15 1.0
  outer loop
    vertex -6.767919558114953e-14 5.999999999999131 -39.99999999999993
    vertex -0.3785259574382646 2.8751900979833156 -40.000000000000014
    vertex 0.37852595743808415 2.8751900979833156 -39.99999999999993
  endloop
endfacet
facet normal -1.8655958858237828e-14 -2.015865342497108e-15 1.0
  outer loop
    vertex -6.767919558114953e-14 5.999999999999131 -39.99999999999993
    vertex 0.37852595743808415 2.8751900979833156 -39.99999999999993
    vertex 1.552914270615069 5.795554957733417 -39.99999999999993
  endloop
endfacet
facet normal -1.8655958858237828e-14 -2.015865342497108e-15 1.0
  outer loop
    vertex 1.552914270615069 5.795554957733417 -39.99999999999993
    vertex 0.37852595743808415 2.8751900979833156 -39.99999999999993
    vertex 1.1097819538586828 2.679250644281822 -39.99999999999993
  endloop
endfacet
facet normal -1.8655958858237828e-14 -2.015865342497108e-15 1.0
  outer loop
    vertex 1.552914270615069 5.795554957733417 -39.99999999999993
    vertex 1.1097819538586828 2.679250644281822 -39.99999999999993
    vertex 1.7654081441251965 2.300724686843828 -39.99999999999993
  endloop
endfacet
facet normal -1.8655958858237828e-14 -2.015865342497108e-15 1.0
  outer loop
    vertex 1.552914270615069 5.795554957733417 -39.99999999999993
    vertex 1.7654081441251965 2.300724686843828 -39.99999999999993
    vertex 2.9999999999999494 5.1961524227056985 -39.99999999999984
  endloop
endfacet
facet normal -1.8655958858237828e-14 -2.015865342497108e-15 1.0
  outer loop
    vertex 2.9999999999999494 5.1961524227056985 -39.99999999999984
    vertex 1.7654081441251965 2.300724686843828 -39.99999999999993
    vertex 2.3007246868445046 1.7654081441245875 -40.00000000000011
  endloop
endfacet
facet normal -1.8655958858237828e-14 -2.015865342497108e-15 1.0
  outer loop
    vertex 2.9999999999999494 5.1961524227056985 -39.99999999999984
    vertex 2.3007246868445046 1.7654081441245875 -40.00000000000011
    vertex 2.6792506442826114 1.1097819538581415 -40.000000000000014
  endloop
endfacet
facet normal -1.8655958858237828e-14 -2.015865342497108e-15 1.0
  outer loop
    vertex 2.9999999999999494 5.1961524227056985 -39.99999999999984
    vertex 2.6792506442826114 1.1097819538581415 -40.000000000000014
    vertex 2.8751900979839697 0.37852595743740736 -39.99999999999993
  endloop
endfacet
facet normal -1.8655958858237828e-14 -2.015865342497108e-15 1.0
  outer loop
    vertex 2.9999999999999494 5.1961524227056985 -39.99999999999984
    vertex 2.8751900979839697 0.37852595743740736 -39.99999999999993
    vertex 2.8751900979839924 -0.3785259574390316 -39.99999999999993
  endloop
endfacet
facet normal -1.8655958858237828e-14 -2.015865342497108e-15 1.0
  outer loop
    vertex 2.9999999999999494 5.1961524227056985 -39.99999999999984
    vertex 2.8751900979839924 -0.3785259574390316 -39.99999999999993
    vertex 2.9999999999999494 -5.196152422707594 -39.99999999999993
  endloop
endfacet
facet normal -1.8655958858237828e-14 -2.015865342497108e-15 1.0
  outer loop
    vertex 2.9999999999999494 5.1961524227056985 -39.99999999999984
    vertex 2.9999999999999494 -5.196152422707594 -39.99999999999993
    vertex 4.242640687119228 -4.242640687120198 -40.000000000000014
  endloop
endfacet
facet normal -1.8655958858237828e-14 -2.015865342497108e-15 1.0
  outer loop
    vertex 2.9999999999999494 5.1961524227056985 -39.99999999999984
    vertex 4.242640687119228 -4.242640687120198 -40.000000000000014
    vertex 4.242640687119228 4.242640687118303 -39.99999999999984
  endloop
endfacet
facet normal -1.8655958858237828e-14 -2.015865342497108e-15 1.0
  outer loop
    vertex 4.242640687119228 4.242640687118303 -39.99999999999984
    vertex 4.242640687119228 -4.242640687120198 -40.000000000000014
    vertex 5.196152422706579 -3.000000000000942 -39.99999999999984
  endloop
endfacet
facet normal -1.8655958858237828e-14 -2.015865342497108e-15 1.0
  outer loop
    vertex 4.242640687119228 4.242640687118303 -39.99999999999984
    vertex 5.196152422706579 -3.000000000000942 -39.99999999999984
    vertex 5.196152422706579 2.9999999999990923 -40.000000000000014
  endloop
endfacet
facet normal -1.8655958858237828e-14 -2.015865342497108e-15 1.0
  outer loop
    vertex 5.196152422706579 2.9999999999990923 -40.000000000000014
    vertex 5.196152422706579 -3.000000000000942 -39.99999999999984
    vertex 5.795554957734342 -1.5529142706161068 -39.99999999999984
  endloop
endfacet
facet normal -1.8655958858237828e-14 -2.015865342497108e-15 1.0
  outer loop
    vertex 5.196152422706579 2.9999999999990923 -40.000000000000014
    vertex 5.795554957734342 -1.5529142706161068 -39.99999999999984
    vertex 5.795554957734365 1.5529142706142116 -39.99999999999984
  endloop
endfacet
facet normal -1.8655958858237828e-14 -2.015865342497108e-15 1.0
  outer loop
    vertex 5.795554957734365 1.5529142706142116 -39.99999999999984
    vertex 5.795554957734342 -1.5529142706161068 -39.99999999999984
    vertex 5.999999999999966 -9.023892744153272e-13 -39.99999999999984
  endloop
endfacet
facet normal -0.13052619222004186 0.9914448613738117 -1.815902753487099e-15
  outer loop
    vertex -1.5529142706151817 5.795554957733508 -40.000000000000014
    vertex 2.255973186038318e-13 5.999999999998906 -47.99999999999982
    vertex -1.5529142706149561 5.795554957733372 -48.0
  endloop
endfacet
facet normal -0.13052619222004186 0.9914448613738117 -1.815902753487099e-15
  outer loop
    vertex 2.255973186038318e-13 5.999999999998906 -47.99999999999982
    vertex -1.5529142706151817 5.795554957733508 -40.000000000000014
    vertex -6.767919558114953e-14 5.999999999999131 -39.99999999999993
  endloop
endfacet
facet normal 0.9659258262890672 0.2588190451025255 -4.04742867697655e-15
  outer loop
    vertex 2.6792506442826114 1.1097819538581415 -40.000000000000014
    vertex 2.87519009798415 0.37852595743745243 9.023892744153272e-14
    vertex 2.8751900979839697 0.37852595743740736 -39.99999999999993
  endloop
endfacet
facet normal 0.9659258262890672 0.2588190451025255 -4.04742867697655e-15
  outer loop
    vertex 2.87519009798415 0.37852595743745243 9.023892744153272e-14
    vertex 2.6792506442826114 1.1097819538581415 -40.000000000000014
    vertex 2.6792506442828596 1.109781953858277 0.0
  endloop
endfacet
facet normal 0.8660254037844343 0.5000000000000079 -4.905837026448537e-15
  outer loop
    vertex 2.3007246868445046 1.7654081441245875 -40.00000000000011
    vertex 2.6792506442828596 1.109781953858277 0.0
    vertex 2.6792506442826114 1.1097819538581415 -40.000000000000014
  endloop
endfacet
facet normal 0.8660254037844343 0.5000000000000079 -4.905837026448537e-15
  outer loop
    vertex 2.6792506442828596 1.109781953858277 0.0
    vertex 2.3007246868445046 1.7654081441245875 -40.00000000000011
    vertex 2.3007246868447075 1.7654081441246776 -1.8047785488306544e-13
  endloop
endfacet
facet normal -0.7933533402912363 0.6087614290087194 -1.578092077254978e-14
  outer loop
    vertex -5.1961524227066915 2.999999999999047 -40.0000000000002
    vertex -4.242640687119183 4.242640687118349 -47.999999999999915
    vertex -5.196152422706488 2.9999999999989115 -48.0
  endloop
endfacet
facet normal -0.7933533402912363 0.6087614290087194 -1.578092077254978e-14
  outer loop
    vertex -4.242640687119183 4.242640687118349 -47.999999999999915
    vertex -5.1961524227066915 2.999999999999047 -40.0000000000002
    vertex -4.242640687119341 4.242640687118303 -40.000000000000014
  endloop
endfacet
facet normal 1.0 -6.911138328176008e-15 -2.9131947518612856e-15
  outer loop
    vertex 2.8751900979839697 0.37852595743740736 -39.99999999999993
    vertex 2.8751900979841727 -0.3785259574386707 9.023892744153272e-14
    vertex 2.8751900979839924 -0.3785259574390316 -39.99999999999993
  endloop
endfacet
facet normal 1.0 -6.911138328176008e-15 -2.9131947518612856e-15
  outer loop
    vertex 2.8751900979841727 -0.3785259574386707 9.023892744153272e-14
    vertex 2.8751900979839697 0.37852595743740736 -39.99999999999993
    vertex 2.87519009798415 0.37852595743745243 9.023892744153272e-14
  endloop
endfacet
facet normal 0.38268343236506674 -0.9238795325112965 7.0008736068293186e-15
  outer loop
    vertex 2.9999999999999494 -5.196152422707594 -39.99999999999993
    vertex 1.5529142706152494 -5.7955549577353125 -47.99999999999982
    vertex 3.0000000000002203 -5.196152422707684 -47.99999999999982
  endloop
endfacet
facet normal 0.38268343236506674 -0.9238795325112965 7.0008736068293186e-15
  outer loop
    vertex 1.5529142706152494 -5.7955549577353125 -47.99999999999982
    vertex 2.9999999999999494 -5.196152422707594 -39.99999999999993
    vertex 1.5529142706150916 -5.795554957735493 -39.99999999999993
  endloop
endfacet
facet normal 0.6087614290087214 0.7933533402912345 1.5269423082466055e-14
  outer loop
    vertex 2.9999999999999494 5.1961524227056985 -39.99999999999984
    vertex 4.242640687119477 4.242640687118258 -47.99999999999973
    vertex 3.0000000000001976 5.196152422705653 -47.99999999999973
  endloop
endfacet
facet normal 0.6087614290087214 0.7933533402912345 1.5269423082466055e-14
  outer loop
    vertex 4.242640687119477 4.242640687118258 -47.99999999999973
    vertex 2.9999999999999494 5.1961524227056985 -39.99999999999984
    vertex 4.242640687119228 4.242640687118303 -39.99999999999984
  endloop
endfacet
facet normal -0.923879532511293 0.38268343236507524 -1.6842811016520905e-14
  outer loop
    vertex -5.7955549577344545 1.5529142706142116 -40.00000000000011
    vertex -5.196152422706488 2.9999999999989115 -48.0
    vertex -5.795554957734297 1.5529142706141215 -48.00000000000009
  endloop
endfacet
facet normal -0.923879532511293 0.38268343236507524 -1.6842811016520905e-14
  outer loop
    vertex -5.196152422706488 2.9999999999989115 -48.0
    vertex -5.7955549577344545 1.5529142706142116 -40.00000000000011
    vertex -5.1961524227066915 2.999999999999047 -40.0000000000002
  endloop
endfacet
facet normal 0.13052619222003137 0.9914448613738133 -9.916279326046352e-16
  outer loop
    vertex -6.767919558114953e-14 5.999999999999131 -39.99999999999993
    vertex 1.5529142706152945 5.795554957733462 -47.99999999999982
    vertex 2.255973186038318e-13 5.999999999998906 -47.99999999999982
  endloop
endfacet
facet normal 0.13052619222003137 0.9914448613738133 -9.916279326046352e-16
  outer loop
    vertex 1.5529142706152945 5.795554957733462 -47.99999999999982
    vertex -6.767919558114953e-14 5.999999999999131 -39.99999999999993
    vertex 1.552914270615069 5.795554957733417 -39.99999999999993
  endloop
endfacet
facet normal -0.9914448613738114 -0.13052619222004427 -1.7817998265562675e-14
  outer loop
    vertex -5.7955549577345 -1.5529142706160164 -40.000000000000014
    vertex -5.9999999999998535 -9.926282018568599e-13 -48.0
    vertex -5.795554957734274 -1.5529142706160615 -47.999999999999915
  endloop
endfacet
facet normal -0.9914448613738114 -0.13052619222004427 -1.7817998265562675e-14
  outer loop
    vertex -5.9999999999998535 -9.926282018568599e-13 -48.0
    vertex -5.7955549577345 -1.5529142706160164 -40.000000000000014
    vertex -6.000000000000034 -9.926282018568599e-13 -40.0000000000002
  endloop
endfacet
facet normal -0.1305261922200576 -0.9914448613738096 -3.139631580010595e-15
  outer loop
    vertex -4.511946372076636e-14 -6.000000000000892 -40.00000000000011
    vertex -1.5529142706149788 -5.795554957735493 -47.99999999999982
    vertex 1.8047785488306544e-13 -6.000000000000981 -47.999999999999915
  endloop
endfacet
facet normal -0.1305261922200576 -0.9914448613738096 -3.139631580010595e-15
  outer loop
    vertex -1.5529142706149788 -5.795554957735493 -47.99999999999982
    vertex -4.511946372076636e-14 -6.000000000000892 -40.00000000000011
    vertex -1.5529142706151817 -5.7955549577353125 -39.99999999999993
  endloop
endfacet
facet normal -0.9914448613738112 0.13052619222004566 -1.8135961841384145e-14
  outer loop
    vertex -5.7955549577344545 1.5529142706142116 -40.00000000000011
    vertex -5.9999999999998535 -9.926282018568599e-13 -48.0
    vertex -6.000000000000034 -9.926282018568599e-13 -40.0000000000002
  endloop
endfacet
facet normal -0.9914448613738112 0.13052619222004566 -1.8135961841384145e-14
  outer loop
    vertex -5.9999999999998535 -9.926282018568599e-13 -48.0
    vertex -5.7955549577344545 1.5529142706142116 -40.00000000000011
    vertex -5.795554957734297 1.5529142706141215 -48.00000000000009
  endloop
endfacet
facet normal 0.13052619222006934 -0.9914448613738082 -3.591695318864536e-15
  outer loop
    vertex 1.5529142706152494 -5.7955549577353125 -47.99999999999982
    vertex -4.511946372076636e-14 -6.000000000000892 -40.00000000000011
    vertex 1.8047785488306544e-13 -6.000000000000981 -47.999999999999915
  endloop
endfacet
facet normal 0.13052619222006934 -0.9914448613738082 -3.591695318864536e-15
  outer loop
    vertex -4.511946372076636e-14 -6.000000000000892 -40.00000000000011
    vertex 1.5529142706152494 -5.7955549577353125 -47.99999999999982
    vertex 1.5529142706150916 -5.795554957735493 -39.99999999999993
  endloop
endfacet
facet normal -0.382683432365082 0.9238795325112901 -4.203354668995575e-15
  outer loop
    vertex -3.000000000000062 5.196152422705834 -40.00000000000047
    vertex -1.5529142706149561 5.795554957733372 -48.0
    vertex -2.999999999999814 5.1961524227055635 -48.00000000000036
  endloop
endfacet
facet normal -0.382683432365082 0.9238795325112901 -4.203354668995575e-15
  outer loop
    vertex -1.5529142706149561 5.795554957733372 -48.0
    vertex -3.000000000000062 5.196152422705834 -40.00000000000047
    vertex -1.5529142706151817 5.795554957733508 -40.000000000000014
  endloop
endfacet
facet normal 0.9238795325112963 -0.3826834323650673 1.8480941700567568e-14
  outer loop
    vertex 5.79555495773459 -1.5529142706161068 -47.99999999999973
    vertex 5.196152422706579 -3.000000000000942 -39.99999999999984
    vertex 5.196152422706872 -3.000000000001032 -47.99999999999973
  endloop
endfacet
facet normal 0.9238795325112963 -0.3826834323650673 1.8480941700567568e-14
  outer loop
    vertex 5.196152422706579 -3.000000000000942 -39.99999999999984
    vertex 5.79555495773459 -1.5529142706161068 -47.99999999999973
    vertex 5.795554957734342 -1.5529142706161068 -39.99999999999984
  endloop
endfacet
facet normal -0.6087614290087104 -0.7933533402912432 -1.5862255947997777e-14
  outer loop
    vertex -3.000000000000062 -5.196152422707594 -40.000000000000014
    vertex -4.242640687119138 -4.242640687120288 -47.999999999999915
    vertex -2.999999999999882 -5.196152422707684 -47.999999999999915
  endloop
endfacet
facet normal -0.6087614290087104 -0.7933533402912432 -1.5862255947997777e-14
  outer loop
    vertex -4.242640687119138 -4.242640687120288 -47.999999999999915
    vertex -3.000000000000062 -5.196152422707594 -40.000000000000014
    vertex -4.242640687119364 -4.242640687120334 -40.000000000000014
  endloop
endfacet
facet normal 0.6087614290087238 -0.793353340291233 1.6195727339505756e-14
  outer loop
    vertex 4.242640687119228 -4.242640687120198 -40.000000000000014
    vertex 3.0000000000002203 -5.196152422707684 -47.99999999999982
    vertex 4.242640687119431 -4.242640687120379 -48.00000000000027
  endloop
endfacet
facet normal 0.6087614290087238 -0.793353340291233 1.6195727339505756e-14
  outer loop
    vertex 3.0000000000002203 -5.196152422707684 -47.99999999999982
    vertex 4.242640687119228 -4.242640687120198 -40.000000000000014
    vertex 2.9999999999999494 -5.196152422707594 -39.99999999999993
  endloop
endfacet
facet normal -0.6087614290086982 0.7933533402912525 -1.098006123176201e-14
  outer loop
    vertex -4.242640687119183 4.242640687118349 -47.999999999999915
    vertex -3.000000000000062 5.196152422705834 -40.00000000000047
    vertex -2.999999999999814 5.1961524227055635 -48.00000000000036
  endloop
endfacet
facet normal -0.6087614290086982 0.7933533402912525 -1.098006123176201e-14
  outer loop
    vertex -3.000000000000062 5.196152422705834 -40.00000000000047
    vertex -4.242640687119183 4.242640687118349 -47.999999999999915
    vertex -4.242640687119341 4.242640687118303 -40.000000000000014
  endloop
endfacet
facet normal 0.7933533402912242 -0.6087614290087352 1.5268393464886662e-14
  outer loop
    vertex 5.196152422706872 -3.000000000001032 -47.99999999999973
    vertex 4.242640687119228 -4.242640687120198 -40.000000000000014
    vertex 4.242640687119431 -4.242640687120379 -48.00000000000027
  endloop
endfacet
facet normal 0.7933533402912242 -0.6087614290087352 1.5268393464886662e-14
  outer loop
    vertex 4.242640687119228 -4.242640687120198 -40.000000000000014
    vertex 5.196152422706872 -3.000000000001032 -47.99999999999973
    vertex 5.196152422706579 -3.000000000000942 -39.99999999999984
  endloop
endfacet
facet normal 0.9238795325112951 0.38268343236507 1.979753468345634e-14
  outer loop
    vertex 5.19615242270685 2.9999999999990923 -47.999999999999915
    vertex 5.795554957734365 1.5529142706142116 -39.99999999999984
    vertex 5.79555495773459 1.5529142706141665 -47.99999999999973
  endloop
endfacet
facet normal 0.9238795325112951 0.38268343236507 1.979753468345634e-14
  outer loop
    vertex 5.795554957734365 1.5529142706142116 -39.99999999999984
    vertex 5.19615242270685 2.9999999999990923 -47.999999999999915
    vertex 5.196152422706579 2.9999999999990923 -40.000000000000014
  endloop
endfacet
facet normal 0.9914448613738087 -0.13052619222006423 1.9657004538500736e-14
  outer loop
    vertex 6.000000000000192 -1.0828671292983925e-12 -47.99999999999973
    vertex 5.795554957734342 -1.5529142706161068 -39.99999999999984
    vertex 5.79555495773459 -1.5529142706161068 -47.99999999999973
  endloop
endfacet
facet normal 0.9914448613738087 -0.13052619222006423 1.9657004538500736e-14
  outer loop
    vertex 5.795554957734342 -1.5529142706161068 -39.99999999999984
    vertex 6.000000000000192 -1.0828671292983925e-12 -47.99999999999973
    vertex 5.999999999999966 -9.023892744153272e-13 -39.99999999999984
  endloop
endfacet
facet normal 0.38268343236509617 0.9238795325112841 7.541467762379392e-15
  outer loop
    vertex 1.552914270615069 5.795554957733417 -39.99999999999993
    vertex 3.0000000000001976 5.196152422705653 -47.99999999999973
    vertex 1.5529142706152945 5.795554957733462 -47.99999999999982
  endloop
endfacet
facet normal 0.38268343236509617 0.9238795325112841 7.541467762379392e-15
  outer loop
    vertex 3.0000000000001976 5.196152422705653 -47.99999999999973
    vertex 1.552914270615069 5.795554957733417 -39.99999999999993
    vertex 2.9999999999999494 5.1961524227056985 -39.99999999999984
  endloop
endfacet
facet normal -0.11978543070977062 0.15610741259765396 -0.9804498591573872
  outer loop
    vertex -0.7933533402911626 0.608761429007755 -49.00000000000004
    vertex -4.242640687119183 4.242640687118349 -47.999999999999915
    vertex -2.999999999999814 5.1961524227055635 -48.00000000000036
  endloop
endfacet
facet normal 0.9914448613738108 0.13052619222004816 2.0614433610134686e-14
  outer loop
    vertex 5.79555495773459 1.5529142706141665 -47.99999999999973
    vertex 5.999999999999966 -9.023892744153272e-13 -39.99999999999984
    vertex 6.000000000000192 -1.0828671292983925e-12 -47.99999999999973
  endloop
endfacet
facet normal 0.9914448613738108 0.13052619222004816 2.0614433610134686e-14
  outer loop
    vertex 5.999999999999966 -9.023892744153272e-13 -39.99999999999984
    vertex 5.79555495773459 1.5529142706141665 -47.99999999999973
    vertex 5.795554957734365 1.5529142706142116 -39.99999999999984
  endloop
endfacet
facet normal -0.02585344897319232 -0.19637644136611326 -0.9801876822591539
  outer loop
    vertex 1.8047785488306544e-13 -6.000000000000981 -47.999999999999915
    vertex -1.5529142706149788 -5.795554957735493 -47.99999999999982
    vertex -0.13052619221993567 -0.991444861374724 -48.999999999999865
  endloop
endfacet
facet normal -0.12057796426926436 -0.1571402624412496 -0.9801876822591555
  outer loop
    vertex -0.6087614290086122 -0.7933533402921777 -48.99999999999996
    vertex -2.999999999999882 -5.196152422707684 -47.999999999999915
    vertex -4.242640687119138 -4.242640687120288 -47.999999999999915
  endloop
endfacet
facet normal -0.1968431389326563 -0.05274396011220137 -0.9790152467284774
  outer loop
    vertex -0.923879532511166 -0.382683432365841 -49.00000000000004
    vertex -5.9999999999998535 -9.926282018568599e-13 -48.0
    vertex -0.9914448613737313 -0.13052619222088316 -48.999999999999865
  endloop
endfacet
facet normal 1.9463082729126205e-13 -0.19579400055304538 -0.980645047582169
  outer loop
    vertex 0.13052619222018383 -0.9914448613746337 -48.999999999999865
    vertex 1.8047785488306544e-13 -6.000000000000981 -47.999999999999915
    vertex -0.13052619221993567 -0.991444861374724 -48.999999999999865
  endloop
endfacet
facet normal -0.14409917881990203 0.14409917882014803 -0.9790152467284607
  outer loop
    vertex -0.6087614290086122 0.7933533402904632 -48.99999999999996
    vertex -0.7933533402911626 0.608761429007755 -49.00000000000004
    vertex -2.999999999999814 5.1961524227055635 -48.00000000000036
  endloop
endfacet
facet normal 0.18179093229674714 -0.07530026967375648 -0.9804498591573865
  outer loop
    vertex 5.79555495773459 -1.5529142706161068 -47.99999999999973
    vertex 5.196152422706872 -3.000000000001032 -47.99999999999973
    vertex 0.9914448613738892 -0.1305261922207027 -48.999999999999865
  endloop
endfacet
facet normal -0.1695625783873212 -0.09789700027688973 -0.980645047582167
  outer loop
    vertex -0.79335334029114 -0.6087614290095598 -48.999999999999865
    vertex -5.196152422706488 -3.0000000000010774 -47.999999999999915
    vertex -0.923879532511166 -0.382683432365841 -49.00000000000004
  endloop
endfacet
facet normal -0.1950857003835084 -0.0256835196991018 -0.980449859157388
  outer loop
    vertex -0.923879532511166 -0.382683432365841 -49.00000000000004
    vertex -5.795554957734274 -1.5529142706160615 -47.999999999999915
    vertex -5.9999999999998535 -9.926282018568599e-13 -48.0
  endloop
endfacet
facet normal 0.1561074125977257 -0.119785430709692 -0.9804498591573856
  outer loop
    vertex 5.196152422706872 -3.000000000001032 -47.99999999999973
    vertex 4.242640687119431 -4.242640687120379 -48.00000000000027
    vertex 0.9238795325113915 -0.38268343236597635 -48.99999999999996
  endloop
endfacet
facet normal -0.15714026244125492 -0.12057796426925109 -0.9801876822591564
  outer loop
    vertex -0.79335334029114 -0.6087614290095598 -48.999999999999865
    vertex -4.242640687119138 -4.242640687120288 -47.999999999999915
    vertex -5.196152422706488 -3.0000000000010774 -47.999999999999915
  endloop
endfacet
facet normal 0.17648473023144473 -0.10189350650722857 -0.9790152467284642
  outer loop
    vertex 4.242640687119431 -4.242640687120379 -48.00000000000027
    vertex 0.7933533402913882 -0.6087614290096048 -48.999999999999865
    vertex 0.9238795325113915 -0.38268343236597635 -48.99999999999996
  endloop
endfacet
facet normal -0.19508570038349127 0.025683519699011035 -0.9804498591573938
  outer loop
    vertex -0.9914448613737313 -0.13052619222088316 -48.999999999999865
    vertex -5.9999999999998535 -9.926282018568599e-13 -48.0
    vertex -5.795554957734297 1.5529142706141215 -48.00000000000009
  endloop
endfacet
facet normal 0.19684313893288438 -0.05274396011234095 -0.979015246728424
  outer loop
    vertex 5.196152422706872 -3.000000000001032 -47.99999999999973
    vertex 0.9238795325113915 -0.38268343236597635 -48.99999999999996
    vertex 0.9914448613738892 -0.1305261922207027 -48.999999999999865
  endloop
endfacet
facet normal -0.13844726550679537 -0.1384472655066015 -0.9806450475821696
  outer loop
    vertex -0.6087614290086122 -0.7933533402921777 -48.99999999999996
    vertex -4.242640687119138 -4.242640687120288 -47.999999999999915
    vertex -0.79335334029114 -0.6087614290095598 -48.999999999999865
  endloop
endfacet
facet normal -0.1817909322966911 0.07530026967379691 -0.9804498591573939
  outer loop
    vertex -0.9914448613736861 0.13052619221930398 -48.99999999999996
    vertex -5.795554957734297 1.5529142706141215 -48.00000000000009
    vertex -5.196152422706488 2.9999999999989115 -48.0
  endloop
endfacet
facet normal -0.09789700027681605 -0.16956257838735964 -0.9806450475821676
  outer loop
    vertex -0.38268343236496116 -0.9238795325120233 -49.00000000000004
    vertex -2.999999999999882 -5.196152422707684 -47.999999999999915
    vertex -0.6087614290086122 -0.7933533402921777 -48.99999999999996
  endloop
endfacet
facet normal -0.19684313893267572 0.05274396011259764 -0.9790152467284522
  outer loop
    vertex -0.923879532511166 0.38268343236426183 -48.99999999999996
    vertex -0.9914448613736861 0.13052619221930398 -48.99999999999996
    vertex -5.196152422706488 2.9999999999989115 -48.0
  endloop
endfacet
facet normal -0.18299371141444157 -0.07579847709684913 -0.9801876822591512
  outer loop
    vertex -0.923879532511166 -0.382683432365841 -49.00000000000004
    vertex -5.196152422706488 -3.0000000000010774 -47.999999999999915
    vertex -5.795554957734274 -1.5529142706160615 -47.999999999999915
  endloop
endfacet
facet normal -0.9659258262890672 -0.2588190451025255 4.04742867697655e-15
  outer loop
    vertex -2.6792506442826114 -1.1097819538593596 0.0
    vertex -2.8751900979841274 -0.3785259574388963 -39.99999999999993
    vertex -2.6792506442828143 -1.109781953859495 -39.99999999999993
  endloop
endfacet
facet normal -0.9659258262890672 -0.2588190451025255 4.04742867697655e-15
  outer loop
    vertex -2.8751900979841274 -0.3785259574388963 -39.99999999999993
    vertex -2.6792506442826114 -1.1097819538593596 0.0
    vertex -2.875190097983947 -0.3785259574386707 9.023892744153272e-14
  endloop
endfacet
facet normal -0.8660254037844343 -0.5000000000000079 4.905837026448537e-15
  outer loop
    vertex -2.3007246868444144 -1.765408144125896 9.023892744153272e-14
    vertex -2.6792506442828143 -1.109781953859495 -39.99999999999993
    vertex -2.30072468684464 -1.7654081441262117 -39.99999999999993
  endloop
endfacet
facet normal -0.8660254037844343 -0.5000000000000079 4.905837026448537e-15
  outer loop
    vertex -2.6792506442828143 -1.109781953859495 -39.99999999999993
    vertex -2.3007246868444144 -1.765408144125896 9.023892744153272e-14
    vertex -2.6792506442826114 -1.1097819538593596 0.0
  endloop
endfacet
facet normal 0.11978543070972934 -0.1561074125976621 -0.9804498591573911
  outer loop
    vertex 4.242640687119431 -4.242640687120379 -48.00000000000027
    vertex 3.0000000000002203 -5.196152422707684 -47.99999999999982
    vertex 0.7933533402913882 -0.6087614290096048 -48.999999999999865
  endloop
endfacet
facet normal -0.7071067811865483 -0.7071067811865468 5.4299206898464375e-15
  outer loop
    vertex -2.3007246868444144 -1.765408144125896 9.023892744153272e-14
    vertex -1.765408144125377 -2.3007246868451814 -39.99999999999993
    vertex -1.7654081441251739 -2.3007246868451814 9.023892744153272e-14
  endloop
endfacet
facet normal -0.7071067811865483 -0.7071067811865468 5.4299206898464375e-15
  outer loop
    vertex -1.765408144125377 -2.3007246868451814 -39.99999999999993
    vertex -2.3007246868444144 -1.765408144125896 9.023892744153272e-14
    vertex -2.30072468684464 -1.7654081441262117 -39.99999999999993
  endloop
endfacet
facet normal -0.9659258262890706 0.2588190451025119 1.580431418688729e-15
  outer loop
    vertex -2.875190097983947 0.37852595743749756 9.023892744153272e-14
    vertex -2.6792506442828143 1.1097819538578257 -39.99999999999993
    vertex -2.87519009798415 0.3785259574373622 -39.99999999999993
  endloop
endfacet
facet normal -0.9659258262890706 0.2588190451025119 1.580431418688729e-15
  outer loop
    vertex -2.6792506442828143 1.1097819538578257 -39.99999999999993
    vertex -2.875190097983947 0.37852595743749756 9.023892744153272e-14
    vertex -2.6792506442826562 1.1097819538581415 9.023892744153272e-14
  endloop
endfacet
facet normal 0.4999999999999931 0.8660254037844428 -5.58396423159894e-15
  outer loop
    vertex 1.1097819538589084 2.6792506442821376 9.023892744153272e-14
    vertex 1.7654081441251965 2.300724686843828 -39.99999999999993
    vertex 1.1097819538586828 2.679250644281822 -39.99999999999993
  endloop
endfacet
facet normal 0.4999999999999931 0.8660254037844428 -5.58396423159894e-15
  outer loop
    vertex 1.7654081441251965 2.300724686843828 -39.99999999999993
    vertex 1.1097819538589084 2.6792506442821376 9.023892744153272e-14
    vertex 1.765408144125377 2.3007246868439633 9.023892744153272e-14
  endloop
endfacet
facet normal -0.10189350650688725 0.17648473023164665 -0.9790152467284634
  outer loop
    vertex -0.3826834323649837 0.9238795325103989 -48.999999999999865
    vertex -0.6087614290086122 0.7933533402904632 -48.99999999999996
    vertex -1.5529142706149561 5.795554957733372 -48.0
  endloop
endfacet
facet normal -0.0506752162603875 0.1891224817665366 -0.9806450475821662
  outer loop
    vertex -0.13052619221998077 0.9914448613729643 -49.00000000000004
    vertex -0.3826834323649837 0.9238795325103989 -48.999999999999865
    vertex -1.5529142706149561 5.795554957733372 -48.0
  endloop
endfacet
facet normal -0.0753002696737557 0.1817909322967303 -0.9804498591573897
  outer loop
    vertex -0.6087614290086122 0.7933533402904632 -48.99999999999996
    vertex -2.999999999999814 5.1961524227055635 -48.00000000000036
    vertex -1.5529142706149561 5.795554957733372 -48.0
  endloop
endfacet
facet normal 0.19637644136614305 0.02585344897314827 -0.9801876822591492
  outer loop
    vertex 6.000000000000192 -1.0828671292983925e-12 -47.99999999999973
    vertex 0.9914448613739117 0.1305261922193491 -48.999999999999865
    vertex 5.79555495773459 1.5529142706141665 -47.99999999999973
  endloop
endfacet
facet normal 0.2037870130141435 -1.215002921666869e-13 -0.979015246728453
  outer loop
    vertex 5.79555495773459 -1.5529142706161068 -47.99999999999973
    vertex 0.9914448613738892 -0.1305261922207027 -48.999999999999865
    vertex 0.9914448613739117 0.1305261922193491 -48.999999999999865
  endloop
endfacet
facet normal 0.14409917881991963 -0.14409917882012818 -0.9790152467284612
  outer loop
    vertex 3.0000000000002203 -5.196152422707684 -47.99999999999982
    vertex 0.6087614290088378 -0.7933533402919973 -48.999999999999865
    vertex 0.7933533402913882 -0.6087614290096048 -48.999999999999865
  endloop
endfacet
facet normal 0.19508570038352555 -0.025683519699082922 -0.9804498591573851
  outer loop
    vertex 6.000000000000192 -1.0828671292983925e-12 -47.99999999999973
    vertex 5.79555495773459 -1.5529142706161068 -47.99999999999973
    vertex 0.9914448613739117 0.1305261922193491 -48.999999999999865
  endloop
endfacet
facet normal 0.05067521626010348 0.18912248176661606 -0.9806450475821655
  outer loop
    vertex 1.5529142706152945 5.795554957733462 -47.99999999999982
    vertex 0.3826834323651642 0.9238795325104892 -48.999999999999865
    vertex 0.13052619222016126 0.9914448613730094 -48.999999999999865
  endloop
endfacet
facet normal -6.07847105970524e-15 1.0 -4.765872730329292e-15
  outer loop
    vertex -0.378525957438039 2.875190097983496 -9.023892744153272e-14
    vertex 0.37852595743808415 2.8751900979833156 -39.99999999999993
    vertex -0.3785259574382646 2.8751900979833156 -40.000000000000014
  endloop
endfacet
facet normal -6.07847105970524e-15 1.0 -4.765872730329292e-15
  outer loop
    vertex 0.37852595743808415 2.8751900979833156 -39.99999999999993
    vertex -0.378525957438039 2.875190097983496 -9.023892744153272e-14
    vertex 0.378525957438242 2.8751900979834506 9.023892744153272e-14
  endloop
endfacet
facet normal 0.12057796426928787 0.157140262441272 -0.9801876822591491
  outer loop
    vertex 4.242640687119477 4.242640687118258 -47.99999999999973
    vertex 0.6087614290088152 0.7933533402905084 -48.999999999999865
    vertex 3.0000000000001976 5.196152422705653 -47.99999999999973
  endloop
endfacet
facet normal 0.02585344897315489 0.1963764413661349 -0.9801876822591505
  outer loop
    vertex 1.5529142706152945 5.795554957733462 -47.99999999999982
    vertex 0.13052619222016126 0.9914448613730094 -48.999999999999865
    vertex 2.255973186038318e-13 5.999999999998906 -47.99999999999982
  endloop
endfacet
facet normal 5.104754000093522e-13 0.1957940005530842 -0.9806450475821611
  outer loop
    vertex 0.13052619222016126 0.9914448613730094 -48.999999999999865
    vertex -0.13052619221998077 0.9914448613729643 -49.00000000000004
    vertex 2.255973186038318e-13 5.999999999998906 -47.99999999999982
  endloop
endfacet
facet normal 0.18912248176664512 0.050675216260031804 -0.9806450475821638
  outer loop
    vertex 5.79555495773459 1.5529142706141665 -47.99999999999973
    vertex 0.9914448613739117 0.1305261922193491 -48.999999999999865
    vertex 0.9238795325113465 0.38268343236435204 -48.999999999999865
  endloop
endfacet
facet normal 0.07579847709690272 0.18299371141441825 -0.9801876822591513
  outer loop
    vertex 3.0000000000001976 5.196152422705653 -47.99999999999973
    vertex 0.3826834323651642 0.9238795325104892 -48.999999999999865
    vertex 1.5529142706152945 5.795554957733462 -47.99999999999982
  endloop
endfacet
facet normal 0.05067521625979609 -0.18912248176669483 -0.9806450475821662
  outer loop
    vertex 1.5529142706152494 -5.7955549577353125 -47.99999999999982
    vertex 0.13052619222018383 -0.9914448613746337 -48.999999999999865
    vertex 0.3826834323652319 -0.9238795325121586 -48.999999999999865
  endloop
endfacet
facet normal 0.025853448973214756 -0.1963764413661048 -0.980187682259155
  outer loop
    vertex 1.5529142706152494 -5.7955549577353125 -47.99999999999982
    vertex 1.8047785488306544e-13 -6.000000000000981 -47.999999999999915
    vertex 0.13052619222018383 -0.9914448613746337 -48.999999999999865
  endloop
endfacet
facet normal -0.025853448973082237 0.19637644136615984 -0.9801876822591475
  outer loop
    vertex 2.255973186038318e-13 5.999999999998906 -47.99999999999982
    vertex -0.13052619221998077 0.9914448613729643 -49.00000000000004
    vertex -1.5529142706149561 5.795554957733372 -48.0
  endloop
endfacet
facet normal 0.09789700027649932 0.16956257838757285 -0.9806450475821622
  outer loop
    vertex 3.0000000000001976 5.196152422705653 -47.99999999999973
    vertex 0.6087614290088152 0.7933533402905084 -48.999999999999865
    vertex 0.3826834323651642 0.9238795325104892 -48.999999999999865
  endloop
endfacet
facet normal 0.182993711414459 0.07579847709678988 -0.9801876822591525
  outer loop
    vertex 5.79555495773459 1.5529142706141665 -47.99999999999973
    vertex 0.9238795325113465 0.38268343236435204 -48.999999999999865
    vertex 5.19615242270685 2.9999999999990923 -47.999999999999915
  endloop
endfacet
facet normal 0.13844726550663483 0.13844726550681094 -0.9806450475821628
  outer loop
    vertex 4.242640687119477 4.242640687118258 -47.99999999999973
    vertex 0.7933533402913431 0.6087614290079806 -48.999999999999865
    vertex 0.6087614290088152 0.7933533402905084 -48.999999999999865
  endloop
endfacet
facet normal 0.16956257838757002 0.09789700027645737 -0.980645047582167
  outer loop
    vertex 5.19615242270685 2.9999999999990923 -47.999999999999915
    vertex 0.9238795325113465 0.38268343236435204 -48.999999999999865
    vertex 0.7933533402913431 0.6087614290079806 -48.999999999999865
  endloop
endfacet
facet normal 0.2588190451025001 0.965925826289074 -5.357469838906023e-15
  outer loop
    vertex 0.378525957438242 2.8751900979834506 9.023892744153272e-14
    vertex 1.1097819538586828 2.679250644281822 -39.99999999999993
    vertex 0.37852595743808415 2.8751900979833156 -39.99999999999993
  endloop
endfacet
facet normal 0.2588190451025001 0.965925826289074 -5.357469838906023e-15
  outer loop
    vertex 1.1097819538586828 2.679250644281822 -39.99999999999993
    vertex 0.378525957438242 2.8751900979834506 9.023892744153272e-14
    vertex 1.1097819538589084 2.6792506442821376 9.023892744153272e-14
  endloop
endfacet
facet normal 0.15714026244121732 0.12057796426934636 -0.9801876822591508
  outer loop
    vertex 5.19615242270685 2.9999999999990923 -47.999999999999915
    vertex 0.7933533402913431 0.6087614290079806 -48.999999999999865
    vertex 4.242640687119477 4.242640687118258 -47.99999999999973
  endloop
endfacet
facet normal -0.25881904510249826 -0.9659258262890744 5.357469838906274e-15
  outer loop
    vertex -0.3785259574380164 -2.8751900979845786 9.023892744153272e-14
    vertex -1.109781953858841 -2.679250644283446 -39.99999999999993
    vertex -0.37852595743817435 -2.8751900979849396 -39.99999999999993
  endloop
endfacet
facet normal -0.25881904510249826 -0.9659258262890744 5.357469838906274e-15
  outer loop
    vertex -1.109781953858841 -2.679250644283446 -39.99999999999993
    vertex -0.3785259574380164 -2.8751900979845786 9.023892744153272e-14
    vertex -1.1097819538586378 -2.6792506442833557 9.023892744153272e-14
  endloop
endfacet
facet normal -0.1764847302317807 0.10189350650692855 -0.979015246728435
  outer loop
    vertex -0.7933533402911626 0.608761429007755 -49.00000000000004
    vertex -0.923879532511166 0.38268343236426183 -48.99999999999996
    vertex -4.242640687119183 4.242640687118349 -47.999999999999915
  endloop
endfacet
facet normal 0.09789700027673963 -0.16956257838740527 -0.9806450475821674
  outer loop
    vertex 3.0000000000002203 -5.196152422707684 -47.99999999999982
    vertex 0.3826834323652319 -0.9238795325121586 -48.999999999999865
    vertex 0.6087614290088378 -0.7933533402919973 -48.999999999999865
  endloop
endfacet
facet normal 5.0675679147977425e-14 -1.6930992591536003e-15 -1.0
  outer loop
    vertex -0.9914448613736861 0.13052619221930398 -48.99999999999996
    vertex -0.923879532511166 -0.382683432365841 -49.00000000000004
    vertex -0.9914448613737313 -0.13052619222088316 -48.999999999999865
  endloop
endfacet
facet normal 5.0675679147977425e-14 -1.6930992591536003e-15 -1.0
  outer loop
    vertex -0.923879532511166 -0.382683432365841 -49.00000000000004
    vertex -0.9914448613736861 0.13052619221930398 -48.99999999999996
    vertex -0.923879532511166 0.38268343236426183 -48.99999999999996
  endloop
endfacet
facet normal 5.0675679147977425e-14 -1.6930992591536003e-15 -1.0
  outer loop
    vertex -0.923879532511166 -0.382683432365841 -49.00000000000004
    vertex -0.923879532511166 0.38268343236426183 -48.99999999999996
    vertex -0.7933533402911626 0.608761429007755 -49.00000000000004
  endloop
endfacet
facet normal 5.0675679147977425e-14 -1.6930992591536003e-15 -1.0
  outer loop
    vertex -0.923879532511166 -0.382683432365841 -49.00000000000004
    vertex -0.7933533402911626 0.608761429007755 -49.00000000000004
    vertex -0.79335334029114 -0.6087614290095598 -48.999999999999865
  endloop
endfacet
facet normal 5.0675679147977425e-14 -1.6930992591536003e-15 -1.0
  outer loop
    vertex -0.79335334029114 -0.6087614290095598 -48.999999999999865
    vertex -0.7933533402911626 0.608761429007755 -49.00000000000004
    vertex -0.6087614290086122 0.7933533402904632 -48.99999999999996
  endloop
endfacet
facet normal 5.0675679147977425e-14 -1.6930992591536003e-15 -1.0
  outer loop
    vertex -0.79335334029114 -0.6087614290095598 -48.999999999999865
    vertex -0.6087614290086122 0.7933533402904632 -48.99999999999996
    vertex -0.6087614290086122 -0.7933533402921777 -48.99999999999996
  endloop
endfacet
facet normal 5.0675679147977425e-14 -1.6930992591536003e-15 -1.0
  outer loop
    vertex -0.6087614290086122 -0.7933533402921777 -48.99999999999996
    vertex -0.6087614290086122 0.7933533402904632 -48.99999999999996
    vertex -0.3826834323649837 0.9238795325103989 -48.999999999999865
  endloop
endfacet
facet normal 5.0675679147977425e-14 -1.6930992591536003e-15 -1.0
  outer loop
    vertex -0.6087614290086122 -0.7933533402921777 -48.99999999999996
    vertex -0.3826834323649837 0.9238795325103989 -48.999999999999865
    vertex -0.38268343236496116 -0.9238795325120233 -49.00000000000004
  endloop
endfacet
facet normal 5.0675679147977425e-14 -1.6930992591536003e-15 -1.0
  outer loop
    vertex -0.38268343236496116 -0.9238795325120233 -49.00000000000004
    vertex -0.3826834323649837 0.9238795325103989 -48.999999999999865
    vertex -0.13052619221998077 0.9914448613729643 -49.00000000000004
  endloop
endfacet
facet normal 5.0675679147977425e-14 -1.6930992591536003e-15 -1.0
  outer loop
    vertex -0.38268343236496116 -0.9238795325120233 -49.00000000000004
    vertex -0.13052619221998077 0.9914448613729643 -49.00000000000004
    vertex -0.13052619221993567 -0.991444861374724 -48.999999999999865
  endloop
endfacet
facet normal 5.0675679147977425e-14 -1.6930992591536003e-15 -1.0
  outer loop
    vertex -0.13052619221993567 -0.991444861374724 -48.999999999999865
    vertex -0.13052619221998077 0.9914448613729643 -49.00000000000004
    vertex 0.13052619222016126 0.9914448613730094 -48.999999999999865
  endloop
endfacet
facet normal 5.0675679147977425e-14 -1.6930992591536003e-15 -1.0
  outer loop
    vertex -0.13052619221993567 -0.991444861374724 -48.999999999999865
    vertex 0.13052619222016126 0.9914448613730094 -48.999999999999865
    vertex 0.13052619222018383 -0.9914448613746337 -48.999999999999865
  endloop
endfacet
facet normal 5.0675679147977425e-14 -1.6930992591536003e-15 -1.0
  outer loop
    vertex 0.13052619222018383 -0.9914448613746337 -48.999999999999865
    vertex 0.13052619222016126 0.9914448613730094 -48.999999999999865
    vertex 0.3826834323651642 0.9238795325104892 -48.999999999999865
  endloop
endfacet
facet normal 5.0675679147977425e-14 -1.6930992591536003e-15 -1.0
  outer loop
    vertex 0.13052619222018383 -0.9914448613746337 -48.999999999999865
    vertex 0.3826834323651642 0.9238795325104892 -48.999999999999865
    vertex 0.3826834323652319 -0.9238795325121586 -48.999999999999865
  endloop
endfacet
facet normal 5.0675679147977425e-14 -1.6930992591536003e-15 -1.0
  outer loop
    vertex 0.3826834323652319 -0.9238795325121586 -48.999999999999865
    vertex 0.3826834323651642 0.9238795325104892 -48.999999999999865
    vertex 0.6087614290088152 0.7933533402905084 -48.999999999999865
  endloop
endfacet
facet normal 5.0675679147977425e-14 -1.6930992591536003e-15 -1.0
  outer loop
    vertex 0.3826834323652319 -0.9238795325121586 -48.999999999999865
    vertex 0.6087614290088152 0.7933533402905084 -48.999999999999865
    vertex 0.6087614290088378 -0.7933533402919973 -48.999999999999865
  endloop
endfacet
facet normal 5.0675679147977425e-14 -1.6930992591536003e-15 -1.0
  outer loop
    vertex 0.6087614290088378 -0.7933533402919973 -48.999999999999865
    vertex 0.6087614290088152 0.7933533402905084 -48.999999999999865
    vertex 0.7933533402913431 0.6087614290079806 -48.999999999999865
  endloop
endfacet
facet normal 5.0675679147977425e-14 -1.6930992591536003e-15 -1.0
  outer loop
    vertex 0.6087614290088378 -0.7933533402919973 -48.999999999999865
    vertex 0.7933533402913431 0.6087614290079806 -48.999999999999865
    vertex 0.7933533402913882 -0.6087614290096048 -48.999999999999865
  endloop
endfacet
facet normal 5.0675679147977425e-14 -1.6930992591536003e-15 -1.0
  outer loop
    vertex 0.7933533402913882 -0.6087614290096048 -48.999999999999865
    vertex 0.7933533402913431 0.6087614290079806 -48.999999999999865
    vertex 0.9238795325113465 0.38268343236435204 -48.999999999999865
  endloop
endfacet
facet normal 5.0675679147977425e-14 -1.6930992591536003e-15 -1.0
  outer loop
    vertex 0.7933533402913882 -0.6087614290096048 -48.999999999999865
    vertex 0.9238795325113465 0.38268343236435204 -48.999999999999865
    vertex 0.9238795325113915 -0.38268343236597635 -48.99999999999996
  endloop
endfacet
facet normal 5.0675679147977425e-14 -1.6930992591536003e-15 -1.0
  outer loop
    vertex 0.9238795325113915 -0.38268343236597635 -48.99999999999996
    vertex 0.9238795325113465 0.38268343236435204 -48.999999999999865
    vertex 0.9914448613739117 0.1305261922193491 -48.999999999999865
  endloop
endfacet
facet normal 5.0675679147977425e-14 -1.6930992591536003e-15 -1.0
  outer loop
    vertex 0.9238795325113915 -0.38268343236597635 -48.99999999999996
    vertex 0.9914448613739117 0.1305261922193491 -48.999999999999865
    vertex 0.9914448613738892 -0.1305261922207027 -48.999999999999865
  endloop
endfacet
facet normal -0.2588190451025184 0.9659258262890691 -3.849489271157394e-15
  outer loop
    vertex -1.109781953858886 2.679250644282002 -39.99999999999993
    vertex -0.378525957438039 2.875190097983496 -9.023892744153272e-14
    vertex -0.3785259574382646 2.8751900979833156 -40.000000000000014
  endloop
endfacet
facet normal -0.2588190451025184 0.9659258262890691 -3.849489271157394e-15
  outer loop
    vertex -0.378525957438039 2.875190097983496 -9.023892744153272e-14
    vertex -1.109781953858886 2.679250644282002 -39.99999999999993
    vertex -1.1097819538586378 2.6792506442820923 9.023892744153272e-14
  endloop
endfacet
facet normal -0.15610741259763244 0.11978543070977171 -0.9804498591573907
  outer loop
    vertex -0.923879532511166 0.38268343236426183 -48.99999999999996
    vertex -5.196152422706488 2.9999999999989115 -48.0
    vertex -4.242640687119183 4.242640687118349 -47.999999999999915
  endloop
endfacet
facet normal 0.7071067811865461 0.707106781186549 -5.429920689846439e-15
  outer loop
    vertex 1.7654081441251965 2.300724686843828 -39.99999999999993
    vertex 2.3007246868447075 1.7654081441246776 -1.8047785488306544e-13
    vertex 2.3007246868445046 1.7654081441245875 -40.00000000000011
  endloop
endfacet
facet normal 0.7071067811865461 0.707106781186549 -5.429920689846439e-15
  outer loop
    vertex 2.3007246868447075 1.7654081441246776 -1.8047785488306544e-13
    vertex 1.7654081441251965 2.300724686843828 -39.99999999999993
    vertex 1.765408144125377 2.3007246868439633 9.023892744153272e-14
  endloop
endfacet
facet normal -0.4999999999999931 -0.8660254037844428 5.58396423159894e-15
  outer loop
    vertex -1.1097819538586378 -2.6792506442833557 9.023892744153272e-14
    vertex -1.765408144125377 -2.3007246868451814 -39.99999999999993
    vertex -1.109781953858841 -2.679250644283446 -39.99999999999993
  endloop
endfacet
facet normal -0.4999999999999931 -0.8660254037844428 5.58396423159894e-15
  outer loop
    vertex -1.765408144125377 -2.3007246868451814 -39.99999999999993
    vertex -1.1097819538586378 -2.6792506442833557 9.023892744153272e-14
    vertex -1.7654081441251739 -2.3007246868451814 9.023892744153272e-14
  endloop
endfacet
facet normal -0.05067521625949271 -0.18912248176678478 -0.9806450475821648
  outer loop
    vertex -0.13052619221993567 -0.991444861374724 -48.999999999999865
    vertex -1.5529142706149788 -5.795554957735493 -47.99999999999982
    vertex -0.38268343236496116 -0.9238795325120233 -49.00000000000004
  endloop
endfacet
facet normal -0.49999999999999206 0.8660254037844433 -2.670769479737905e-15
  outer loop
    vertex -1.7654081441251515 2.3007246868440085 9.023892744153272e-14
    vertex -1.109781953858886 2.679250644282002 -39.99999999999993
    vertex -1.765408144125377 2.300724686843873 -39.99999999999993
  endloop
endfacet
facet normal -0.49999999999999206 0.8660254037844433 -2.670769479737905e-15
  outer loop
    vertex -1.109781953858886 2.679250644282002 -39.99999999999993
    vertex -1.7654081441251515 2.3007246868440085 9.023892744153272e-14
    vertex -1.1097819538586378 2.6792506442820923 9.023892744153272e-14
  endloop
endfacet
facet normal -0.7071067811865667 0.7071067811865285 -1.3100411619294227e-15
  outer loop
    vertex -2.3007246868444597 1.7654081441246776 -9.023892744153272e-14
    vertex -1.765408144125377 2.300724686843873 -39.99999999999993
    vertex -2.3007246868446853 1.7654081441245424 -40.000000000000014
  endloop
endfacet
facet normal -0.7071067811865667 0.7071067811865285 -1.3100411619294227e-15
  outer loop
    vertex -1.765408144125377 2.300724686843873 -39.99999999999993
    vertex -2.3007246868444597 1.7654081441246776 -9.023892744153272e-14
    vertex -1.7654081441251515 2.3007246868440085 9.023892744153272e-14
  endloop
endfacet
facet normal -0.20378701301415195 -1.0076687718185936e-13 -0.9790152467284511
  outer loop
    vertex -0.9914448613736861 0.13052619221930398 -48.99999999999996
    vertex -0.9914448613737313 -0.13052619222088316 -48.999999999999865
    vertex -5.795554957734297 1.5529142706141215 -48.00000000000009
  endloop
endfacet
facet normal -0.0757984770967961 -0.18299371141446757 -0.9801876822591503
  outer loop
    vertex -0.38268343236496116 -0.9238795325120233 -49.00000000000004
    vertex -1.5529142706149788 -5.795554957735493 -47.99999999999982
    vertex -2.999999999999882 -5.196152422707684 -47.999999999999915
  endloop
endfacet
facet normal -0.8660254037844362 0.5000000000000044 1.3996429611871286e-16
  outer loop
    vertex -2.6792506442826562 1.1097819538581415 9.023892744153272e-14
    vertex -2.3007246868446853 1.7654081441245424 -40.000000000000014
    vertex -2.6792506442828143 1.1097819538578257 -39.99999999999993
  endloop
endfacet
facet normal -0.8660254037844362 0.5000000000000044 1.3996429611871286e-16
  outer loop
    vertex -2.3007246868446853 1.7654081441245424 -40.000000000000014
    vertex -2.6792506442826562 1.1097819538581415 9.023892744153272e-14
    vertex -2.3007246868444597 1.7654081441246776 -9.023892744153272e-14
  endloop
endfacet
facet normal 0.7933533402912162 0.6087614290087454 1.596498384634466e-14
  outer loop
    vertex 4.242640687119477 4.242640687118258 -47.99999999999973
    vertex 5.196152422706579 2.9999999999990923 -40.000000000000014
    vertex 5.19615242270685 2.9999999999990923 -47.999999999999915
  endloop
endfacet
facet normal 0.7933533402912162 0.6087614290087454 1.596498384634466e-14
  outer loop
    vertex 5.196152422706579 2.9999999999990923 -40.000000000000014
    vertex 4.242640687119477 4.242640687118258 -47.99999999999973
    vertex 4.242640687119228 4.242640687118303 -39.99999999999984
  endloop
endfacet
facet normal 0.07579847709683245 -0.1829937114144409 -0.9801876822591526
  outer loop
    vertex 3.0000000000002203 -5.196152422707684 -47.99999999999982
    vertex 1.5529142706152494 -5.7955549577353125 -47.99999999999982
    vertex 0.3826834323652319 -0.9238795325121586 -48.999999999999865
  endloop
endfacet
facet normal -1.0 -3.0531133188750703e-16 2.9131947518613878e-15
  outer loop
    vertex -2.875190097983947 -0.3785259574386707 9.023892744153272e-14
    vertex -2.87519009798415 0.3785259574373622 -39.99999999999993
    vertex -2.8751900979841274 -0.3785259574388963 -39.99999999999993
  endloop
endfacet
facet normal -1.0 -3.0531133188750703e-16 2.9131947518613878e-15
  outer loop
    vertex -2.87519009798415 0.3785259574373622 -39.99999999999993
    vertex -2.875190097983947 -0.3785259574386707 9.023892744153272e-14
    vertex -2.875190097983947 0.37852595743749756 9.023892744153272e-14
  endloop
endfacet
endsolid lathe_vibrate
