solid print_holder_power_2
facet normal -0.9914448613737623 0.1305261922200532 -3.0835270287880355e-07
  outer loop
    vertex 21.65230426409183 -57.59509372791994 -58.68944802742085
    vertex 21.74591358136849 -56.88406722213707 -61.58944961346401
    vertex 21.652305135677185 -57.59509395848261 -61.58944961185964
  endloop
endfacet
facet normal -0.9914448613737623 0.1305261922200532 -3.0835270287880355e-07
  outer loop
    vertex 21.74591358136849 -56.88406722213707 -61.58944961346401
    vertex 21.65230426409183 -57.59509372791994 -58.68944802742085
    vertex 21.745912709783088 -56.88406699157426 -58.68944802902521
  endloop
endfacet
facet normal -0.7933533402912497 0.6087614290086342 -2.8683878684674e-07
  outer loop
    vertex 20.94127752774615 -58.8266281608105 -58.689448024667186
    vertex 21.37785905948166 -58.25766539777352 -61.58944961037321
    vertex 20.94127839933155 -58.82662839137322 -61.58944960910598
  endloop
endfacet
facet normal -0.7933533402912497 0.6087614290086342 -2.8683878684674e-07
  outer loop
    vertex 21.37785905948166 -58.25766539777352 -61.58944961037321
    vertex 20.94127752774615 -58.8266281608105 -58.689448024667186
    vertex 21.377858187896482 -58.257665167210895 -58.68944802593442
  endloop
endfacet
facet normal -0.34744848620684354 0.9376990718948914 -1.7897562328650904e-07
  outer loop
    vertex 19.209383406298727 -59.72305469284827 -58.68945861772592
    vertex 19.709743966440808 -59.537655127718764 -61.5894496075538
    vertex 19.209384277883863 -59.723054923410984 -61.58946020216472
  endloop
endfacet
facet normal -0.34744848620684354 0.9376990718948914 -1.7897562328650904e-07
  outer loop
    vertex 19.709743966440808 -59.537655127718764 -61.5894496075538
    vertex 19.209383406298727 -59.72305469284827 -58.68945861772592
    vertex 19.709743094855586 -59.53765489715618 -58.689448023115
  endloop
endfacet
facet normal -0.9238795325112314 0.38268343236509966 -3.0809378604781683e-07
  outer loop
    vertex 21.377858187896482 -58.257665167210895 -58.68944802593442
    vertex 21.652305135677185 -57.59509395848261 -61.58944961185964
    vertex 21.37785905948166 -58.25766539777352 -61.58944961037321
  endloop
endfacet
facet normal -0.9238795325112314 0.38268343236509966 -3.0809378604781683e-07
  outer loop
    vertex 21.652305135677185 -57.59509395848261 -61.58944961185964
    vertex 21.377858187896482 -58.257665167210895 -58.68944802593442
    vertex 21.65230426409183 -57.59509372791994 -58.68944802742085
  endloop
endfacet
facet normal -0.10889100740634255 0.9940536949813222 -1.117584443159766e-07
  outer loop
    vertex 5.47053964550876 -62.511084285371716 -58.689458549859914
    vertex 8.192028984905738 -62.21296619254707 -61.589460131451155
    vertex 5.470540517093939 -62.51108451593425 -61.58946013429872
  endloop
endfacet
facet normal -0.10889100740634255 0.9940536949813222 -1.117584443159766e-07
  outer loop
    vertex 8.192028984905738 -62.21296619254707 -61.589460131451155
    vertex 5.47053964550876 -62.511084285371716 -58.689458549859914
    vertex 8.192028113320514 -62.21296596198436 -58.68945854701236
  endloop
endfacet
facet normal 2.4557031056880833e-13 -2.658885078767302e-07 -0.9999999999999647
  outer loop
    vertex -19.493148700668996 -37.500552111061104 -58.68946026320515
    vertex -21.74335810857007 -56.88406699157372 -58.689448029025236
    vertex -21.743359031516675 -37.500552159603465 -58.68946028369174
  endloop
endfacet
facet normal 2.4557031056880833e-13 -2.658885078767302e-07 -0.9999999999999647
  outer loop
    vertex -21.74335810857007 -56.88406699157372 -58.689448029025236
    vertex -19.493148700668996 -37.500552111061104 -58.68946026320515
    vertex -21.649749662878854 -57.595093727919355 -58.68944802742087
  endloop
endfacet
facet normal 2.4557031056880833e-13 -2.658885078767302e-07 -0.9999999999999647
  outer loop
    vertex -21.649749662878854 -57.595093727919355 -58.68944802742087
    vertex -19.493148700668996 -37.500552111061104 -58.68946026320515
    vertex -21.375303586683508 -58.25766516721026 -58.68944802593444
  endloop
endfacet
facet normal 2.4557031056880833e-13 -2.658885078767302e-07 -0.9999999999999647
  outer loop
    vertex -21.375303586683508 -58.25766516721026 -58.68944802593444
    vertex -19.493148700668996 -37.500552111061104 -58.68946026320515
    vertex -20.938722926533085 -58.82662816080992 -58.689448024667215
  endloop
endfacet
facet normal 2.4557031056880833e-13 -2.658885078767302e-07 -0.9999999999999647
  outer loop
    vertex -20.938722926533085 -58.82662816080992 -58.689448024667215
    vertex -19.493148700668996 -37.500552111061104 -58.68946026320515
    vertex -20.36975993293357 -59.263208820960294 -58.68944802370556
  endloop
endfacet
facet normal 2.4557031056880833e-13 -2.658885078767302e-07 -0.9999999999999647
  outer loop
    vertex -20.36975993293357 -59.263208820960294 -58.68944802370556
    vertex -19.493148700668996 -37.500552111061104 -58.68946026320515
    vertex -19.707188493642477 -59.53765489715555 -58.68944802311502
  endloop
endfacet
facet normal 2.4557031056880833e-13 -2.658885078767302e-07 -0.9999999999999647
  outer loop
    vertex -19.707188493642477 -59.53765489715555 -58.68944802311502
    vertex -19.493148700668996 -37.500552111061104 -58.68946026320515
    vertex -19.206828805085667 -59.72305469284764 -58.68945861772594
  endloop
endfacet
facet normal 2.4557031056880833e-13 -2.658885078767302e-07 -0.9999999999999647
  outer loop
    vertex -19.206828805085667 -59.72305469284764 -58.68945861772594
    vertex -19.493148700668996 -37.500552111061104 -58.68946026320515
    vertex -16.99332204812951 -40.00110915665181 -58.689460178911645
  endloop
endfacet
facet normal 2.4557031056880833e-13 -2.658885078767302e-07 -0.9999999999999647
  outer loop
    vertex -19.206828805085667 -59.72305469284764 -58.68945861772594
    vertex -16.99332204812951 -40.00110915665181 -58.689460178911645
    vertex -18.868186392319217 -59.845280323699626 -58.68945853753652
  endloop
endfacet
facet normal 2.4557031056880833e-13 -2.658885078767302e-07 -0.9999999999999647
  outer loop
    vertex -18.868186392319217 -59.845280323699626 -58.68945853753652
    vertex -16.99332204812951 -40.00110915665181 -58.689460178911645
    vertex -16.23981115307012 -60.611451072863424 -58.68945853960892
  endloop
endfacet
facet normal 2.4557031056880833e-13 -2.658885078767302e-07 -0.9999999999999647
  outer loop
    vertex -16.23981115307012 -60.611451072863424 -58.68945853960892
    vertex -16.99332204812951 -40.00110915665181 -58.689460178911645
    vertex -1.130093558571546 -48.86973835120569 -58.6894602279505
  endloop
endfacet
facet normal 2.4557031056880833e-13 -2.658885078767302e-07 -0.9999999999999647
  outer loop
    vertex -1.130093558571546 -48.86973835120569 -58.6894602279505
    vertex -16.99332204812951 -40.00110915665181 -58.689460178911645
    vertex -0.798722708673255 -48.6154685550494 -58.68946022749761
  endloop
endfacet
facet normal 2.4557031056880833e-13 -2.658885078767302e-07 -0.9999999999999647
  outer loop
    vertex -0.798722708673255 -48.6154685550494 -58.68946022749761
    vertex -16.99332204812951 -40.00110915665181 -58.689460178911645
    vertex 16.99587664934262 -40.00110915665235 -58.689460178911624
  endloop
endfacet
facet normal 2.4557031056880833e-13 -2.658885078767302e-07 -0.9999999999999647
  outer loop
    vertex -16.23981115307012 -60.611451072863424 -58.68945853960892
    vertex -1.130093558571546 -48.86973835120569 -58.6894602279505
    vertex -13.580517645952437 -61.262244479541316 -58.68945854188198
  endloop
endfacet
facet normal 2.4557031056880833e-13 -2.658885078767302e-07 -0.9999999999999647
  outer loop
    vertex -13.580517645952437 -61.262244479541316 -58.68945854188198
    vertex -1.130093558571546 -48.86973835120569 -58.6894602279505
    vertex -1.3843633547280705 -49.20110920110425 -58.68946022811029
  endloop
endfacet
facet normal 2.4557031056880833e-13 -2.658885078767302e-07 -0.9999999999999647
  outer loop
    vertex -13.580517645952437 -61.262244479541316 -58.68945854188198
    vertex -1.3843633547280705 -49.20110920110425 -58.68946022811029
    vertex -10.895367987301983 -61.79642172149503 -58.68945854435137
  endloop
endfacet
facet normal 2.4557031056880833e-13 -2.658885078767302e-07 -0.9999999999999647
  outer loop
    vertex -10.895367987301983 -61.79642172149503 -58.68945854435137
    vertex -1.3843633547280705 -49.20110920110425 -58.68946022811029
    vertex -8.189473512107497 -62.21296596198377 -58.68945854701238
  endloop
endfacet
facet normal 2.4557031056880833e-13 -2.658885078767302e-07 -0.9999999999999647
  outer loop
    vertex -8.189473512107497 -62.21296596198377 -58.68945854701238
    vertex -1.3843633547280705 -49.20110920110425 -58.68946022811029
    vertex -1.5442040307355551 -49.58699872894011 -58.68946022796612
  endloop
endfacet
facet normal 2.4557031056880833e-13 -2.658885078767302e-07 -0.9999999999999647
  outer loop
    vertex -8.189473512107497 -62.21296596198377 -58.68945854701238
    vertex -1.5442040307355551 -49.58699872894011 -58.68946022796612
    vertex -5.467985044295697 -62.51108428537108 -58.689458549859935
  endloop
endfacet
facet normal 2.4557031056880833e-13 -2.658885078767302e-07 -0.9999999999999647
  outer loop
    vertex -5.467985044295697 -62.51108428537108 -58.689458549859935
    vertex -1.5442040307355551 -49.58699872894011 -58.68946022796612
    vertex -1.598722708673028 -50.00110920110425 -58.689460227527796
  endloop
endfacet
facet normal 2.4557031056880833e-13 -2.658885078767302e-07 -0.9999999999999647
  outer loop
    vertex -5.467985044295697 -62.51108428537108 -58.689458549859935
    vertex -1.598722708673028 -50.00110920110425 -58.689460227527796
    vertex -2.7360830918441756 -62.69020920648422 -58.68945855288865
  endloop
endfacet
facet normal 2.4557031056880833e-13 -2.658885078767302e-07 -0.9999999999999647
  outer loop
    vertex -0.798722708673255 -48.6154685550494 -58.68946022749761
    vertex 16.99587664934262 -40.00110915665235 -58.689460178911624
    vertex -0.41283318083708537 -48.45562787904182 -58.689460226782515
  endloop
endfacet
facet normal 2.4557031056880833e-13 -2.658885078767302e-07 -0.9999999999999647
  outer loop
    vertex -0.41283318083708537 -48.45562787904182 -58.689460226782515
    vertex 16.99587664934262 -40.00110915665235 -58.689460178911624
    vertex 0.001277291326788621 -48.40110920110435 -58.689460225853935
  endloop
endfacet
facet normal 2.4557031056880833e-13 -2.658885078767302e-07 -0.9999999999999647
  outer loop
    vertex 0.001277291326788621 -48.40110920110435 -58.689460225853935
    vertex 16.99587664934262 -40.00110915665235 -58.689460178911624
    vertex 0.41538778205019306 -48.45562787904236 -58.689460226782494
  endloop
endfacet
facet normal 2.4557031056880833e-13 -2.658885078767302e-07 -0.9999999999999647
  outer loop
    vertex 0.41538778205019306 -48.45562787904236 -58.689460226782494
    vertex 16.99587664934262 -40.00110915665235 -58.689460178911624
    vertex 0.8012773098862724 -48.61546855504989 -58.68946022749759
  endloop
endfacet
facet normal 2.4557031056880833e-13 -2.658885078767302e-07 -0.9999999999999647
  outer loop
    vertex 0.8012773098862724 -48.61546855504989 -58.68946022749759
    vertex 16.99587664934262 -40.00110915665235 -58.689460178911624
    vertex 1.1326481597846536 -48.86973835120628 -58.68946022795047
  endloop
endfacet
facet normal 2.4557031056880833e-13 -2.658885078767302e-07 -0.9999999999999647
  outer loop
    vertex 1.1326481597846536 -48.86973835120628 -58.68946022795047
    vertex 16.99587664934262 -40.00110915665235 -58.689460178911624
    vertex 1.3869179559411782 -49.20110920110484 -58.68946022811027
  endloop
endfacet
facet normal 2.4557031056880833e-13 -2.658885078767302e-07 -0.9999999999999647
  outer loop
    vertex 1.3869179559411782 -49.20110920110484 -58.68946022811027
    vertex 16.99587664934262 -40.00110915665235 -58.689460178911624
    vertex 1.5467586319486177 -49.58699872894074 -58.6894602279661
  endloop
endfacet
facet normal 2.4557031056880833e-13 -2.658885078767302e-07 -0.9999999999999647
  outer loop
    vertex 1.5467586319486177 -49.58699872894074 -58.6894602279661
    vertex 16.99587664934262 -40.00110915665235 -58.689460178911624
    vertex 1.6012773098861357 -50.00110920110484 -58.68946022752779
  endloop
endfacet
facet normal 2.4557031056880833e-13 -2.658885078767302e-07 -0.9999999999999647
  outer loop
    vertex 1.6012773098861357 -50.00110920110484 -58.68946022752779
    vertex 16.99587664934262 -40.00110915665235 -58.689460178911624
    vertex 2.738637693057238 -62.69020920648481 -58.689458552888624
  endloop
endfacet
facet normal 2.4557031056880833e-13 -2.658885078767302e-07 -0.9999999999999647
  outer loop
    vertex 2.738637693057238 -62.69020920648481 -58.689458552888624
    vertex 16.99587664934262 -40.00110915665235 -58.689460178911624
    vertex 5.47053964550876 -62.511084285371716 -58.689458549859914
  endloop
endfacet
facet normal 2.4557031056880833e-13 -2.658885078767302e-07 -0.9999999999999647
  outer loop
    vertex 5.47053964550876 -62.511084285371716 -58.689458549859914
    vertex 16.99587664934262 -40.00110915665235 -58.689460178911624
    vertex 8.192028113320514 -62.21296596198436 -58.68945854701236
  endloop
endfacet
facet normal 2.4557031056880833e-13 -2.658885078767302e-07 -0.9999999999999647
  outer loop
    vertex 8.192028113320514 -62.21296596198436 -58.68945854701236
    vertex 16.99587664934262 -40.00110915665235 -58.689460178911624
    vertex 10.897922588515 -61.796421721495655 -58.689458544351346
  endloop
endfacet
facet normal 2.4557031056880833e-13 -2.658885078767302e-07 -0.9999999999999647
  outer loop
    vertex 10.897922588515 -61.796421721495655 -58.689458544351346
    vertex 16.99587664934262 -40.00110915665235 -58.689460178911624
    vertex 13.583072247165408 -61.26224447954186 -58.68945854188196
  endloop
endfacet
facet normal 2.4557031056880833e-13 -2.658885078767302e-07 -0.9999999999999647
  outer loop
    vertex 13.583072247165408 -61.26224447954186 -58.68945854188196
    vertex 16.99587664934262 -40.00110915665235 -58.689460178911624
    vertex 16.242365754283185 -60.61145107286406 -58.689458539608886
  endloop
endfacet
facet normal 2.4557031056880833e-13 -2.658885078767302e-07 -0.9999999999999647
  outer loop
    vertex 16.242365754283185 -60.61145107286406 -58.689458539608886
    vertex 16.99587664934262 -40.00110915665235 -58.689460178911624
    vertex 18.870740993532277 -59.845280323700216 -58.689458537536495
  endloop
endfacet
facet normal 2.4557031056880833e-13 -2.658885078767302e-07 -0.9999999999999647
  outer loop
    vertex 18.870740993532277 -59.845280323700216 -58.689458537536495
    vertex 16.99587664934262 -40.00110915665235 -58.689460178911624
    vertex 19.495703301882102 -37.500552111061644 -58.68946026320512
  endloop
endfacet
facet normal 2.4557031056880833e-13 -2.658885078767302e-07 -0.9999999999999647
  outer loop
    vertex 18.870740993532277 -59.845280323700216 -58.689458537536495
    vertex 19.495703301882102 -37.500552111061644 -58.68946026320512
    vertex 19.209383406298727 -59.72305469284827 -58.68945861772592
  endloop
endfacet
facet normal 2.4557031056880833e-13 -2.658885078767302e-07 -0.9999999999999647
  outer loop
    vertex 19.209383406298727 -59.72305469284827 -58.68945861772592
    vertex 19.495703301882102 -37.500552111061644 -58.68946026320512
    vertex 19.709743094855586 -59.53765489715618 -58.689448023115
  endloop
endfacet
facet normal 2.4557031056880833e-13 -2.658885078767302e-07 -0.9999999999999647
  outer loop
    vertex 19.709743094855586 -59.53765489715618 -58.689448023115
    vertex 19.495703301882102 -37.500552111061644 -58.68946026320512
    vertex 21.745913632729735 -37.50055215960405 -58.689460283691716
  endloop
endfacet
facet normal 2.4557031056880833e-13 -2.658885078767302e-07 -0.9999999999999647
  outer loop
    vertex 19.709743094855586 -59.53765489715618 -58.689448023115
    vertex 21.745913632729735 -37.50055215960405 -58.689460283691716
    vertex 20.372314534146632 -59.26320882096079 -58.68944802370554
  endloop
endfacet
facet normal 2.4557031056880833e-13 -2.658885078767302e-07 -0.9999999999999647
  outer loop
    vertex 20.372314534146632 -59.26320882096079 -58.68944802370554
    vertex 21.745913632729735 -37.50055215960405 -58.689460283691716
    vertex 20.94127752774615 -58.8266281608105 -58.689448024667186
  endloop
endfacet
facet normal 2.4557031056880833e-13 -2.658885078767302e-07 -0.9999999999999647
  outer loop
    vertex 20.94127752774615 -58.8266281608105 -58.689448024667186
    vertex 21.745913632729735 -37.50055215960405 -58.689460283691716
    vertex 21.377858187896482 -58.257665167210895 -58.68944802593442
  endloop
endfacet
facet normal 2.4557031056880833e-13 -2.658885078767302e-07 -0.9999999999999647
  outer loop
    vertex 21.377858187896482 -58.257665167210895 -58.68944802593442
    vertex 21.745913632729735 -37.50055215960405 -58.689460283691716
    vertex 21.65230426409183 -57.59509372791994 -58.68944802742085
  endloop
endfacet
facet normal 2.4557031056880833e-13 -2.658885078767302e-07 -0.9999999999999647
  outer loop
    vertex 21.65230426409183 -57.59509372791994 -58.68944802742085
    vertex 21.745913632729735 -37.50055215960405 -58.689460283691716
    vertex 21.745912709783088 -56.88406699157426 -58.68944802902521
  endloop
endfacet
facet normal 2.4557031056880833e-13 -2.658885078767302e-07 -0.9999999999999647
  outer loop
    vertex -1.598722708673028 -50.00110920110425 -58.689460227527796
    vertex 0.0010311458535733563 -62.74999995074235 -58.689460194469014
    vertex -2.7360830918441756 -62.69020920648422 -58.68945855288865
  endloop
endfacet
facet normal 2.4557031056880833e-13 -2.658885078767302e-07 -0.9999999999999647
  outer loop
    vertex 0.0010311458535733563 -62.74999995074235 -58.689460194469014
    vertex -1.598722708673028 -50.00110920110425 -58.689460227527796
    vertex -1.5442040307356455 -50.41521967326835 -58.68946022682522
  endloop
endfacet
facet normal 2.4557031056880833e-13 -2.658885078767302e-07 -0.9999999999999647
  outer loop
    vertex 0.0010311458535733563 -62.74999995074235 -58.689460194469014
    vertex -1.5442040307356455 -50.41521967326835 -58.68946022682522
    vertex -1.3843633547280252 -50.801109201104296 -58.68946022590622
  endloop
endfacet
facet normal 2.4557031056880833e-13 -2.658885078767302e-07 -0.9999999999999647
  outer loop
    vertex 0.0010311458535733563 -62.74999995074235 -58.689460194469014
    vertex -1.3843633547280252 -50.801109201104296 -58.68946022590622
    vertex -1.1300935585714555 -51.132480051002766 -58.689460224833454
  endloop
endfacet
facet normal 2.4557031056880833e-13 -2.658885078767302e-07 -0.9999999999999647
  outer loop
    vertex 0.0010311458535733563 -62.74999995074235 -58.689460194469014
    vertex -1.1300935585714555 -51.132480051002766 -58.689460224833454
    vertex -0.7987227086729843 -51.38674984715934 -58.68946022368004
  endloop
endfacet
facet normal 2.4557031056880833e-13 -2.658885078767302e-07 -0.9999999999999647
  outer loop
    vertex 0.0010311458535733563 -62.74999995074235 -58.689460194469014
    vertex -0.7987227086729843 -51.38674984715934 -58.68946022368004
    vertex -0.41283318083704024 -51.54659052316678 -58.689460222524566
  endloop
endfacet
facet normal 2.4557031056880833e-13 -2.658885078767302e-07 -0.9999999999999647
  outer loop
    vertex 0.0010311458535733563 -62.74999995074235 -58.689460194469014
    vertex -0.41283318083704024 -51.54659052316678 -58.689460222524566
    vertex 0.0012772913270142183 -51.6011092011042 -58.689460221445785
  endloop
endfacet
facet normal 2.4557031056880833e-13 -2.658885078767302e-07 -0.9999999999999647
  outer loop
    vertex 0.0010311458535733563 -62.74999995074235 -58.689460194469014
    vertex 0.0012772913270142183 -51.6011092011042 -58.689460221445785
    vertex 2.738637693057238 -62.69020920648481 -58.689458552888624
  endloop
endfacet
facet normal 2.4557031056880833e-13 -2.658885078767302e-07 -0.9999999999999647
  outer loop
    vertex 2.738637693057238 -62.69020920648481 -58.689458552888624
    vertex 0.0012772913270142183 -51.6011092011042 -58.689460221445785
    vertex 0.4153877820501479 -51.54659052316736 -58.68946022252454
  endloop
endfacet
facet normal 2.4557031056880833e-13 -2.658885078767302e-07 -0.9999999999999647
  outer loop
    vertex 2.738637693057238 -62.69020920648481 -58.689458552888624
    vertex 0.4153877820501479 -51.54659052316736 -58.68946022252454
    vertex 0.8012773098860468 -51.386749847159926 -58.68946022368001
  endloop
endfacet
facet normal 2.4557031056880833e-13 -2.658885078767302e-07 -0.9999999999999647
  outer loop
    vertex 2.738637693057238 -62.69020920648481 -58.689458552888624
    vertex 0.8012773098860468 -51.386749847159926 -58.68946022368001
    vertex 1.1326481597845632 -51.132480051003306 -58.689460224833425
  endloop
endfacet
facet normal 2.4557031056880833e-13 -2.658885078767302e-07 -0.9999999999999647
  outer loop
    vertex 2.738637693057238 -62.69020920648481 -58.689458552888624
    vertex 1.1326481597845632 -51.132480051003306 -58.689460224833425
    vertex 1.3869179559411329 -50.801109201104836 -58.689460225906195
  endloop
endfacet
facet normal 2.4557031056880833e-13 -2.658885078767302e-07 -0.9999999999999647
  outer loop
    vertex 2.738637693057238 -62.69020920648481 -58.689458552888624
    vertex 1.3869179559411329 -50.801109201104836 -58.689460225906195
    vertex 1.546758631948708 -50.415219673268986 -58.6894602268252
  endloop
endfacet
facet normal 2.4557031056880833e-13 -2.658885078767302e-07 -0.9999999999999647
  outer loop
    vertex 2.738637693057238 -62.69020920648481 -58.689458552888624
    vertex 1.546758631948708 -50.415219673268986 -58.6894602268252
    vertex 1.6012773098861357 -50.00110920110484 -58.68946022752779
  endloop
endfacet
facet normal 0.9238795325113214 0.3826834323650067 -2.766413792235837e-09
  outer loop
    vertex 1.3869179489122876 -49.2011092050994 -61.58946018334156
    vertex 1.5467586319486177 -49.58699872894074 -58.6894602279661
    vertex 1.546758624919637 -49.586998732935434 -61.58946018319738
  endloop
endfacet
facet normal 0.9238795325113214 0.3826834323650067 -2.766413792235837e-09
  outer loop
    vertex 1.5467586319486177 -49.58699872894074 -58.6894602279661
    vertex 1.3869179489122876 -49.2011092050994 -61.58946018334156
    vertex 1.3869179559411782 -49.20110920110484 -58.68946022811027
  endloop
endfacet
facet normal 0.7933533402912505 0.6087614290087008 -2.7614761033883293e-09
  outer loop
    vertex 1.1326481527554924 -48.86973835520097 -61.58946018318176
    vertex 1.3869179559411782 -49.20110920110484 -58.68946022811027
    vertex 1.3869179489122876 -49.2011092050994 -61.58946018334156
  endloop
endfacet
facet normal 0.7933533402912505 0.6087614290087008 -2.7614761033883293e-09
  outer loop
    vertex 1.3869179559411782 -49.20110920110484 -58.68946022811027
    vertex 1.1326481527554924 -48.86973835520097 -61.58946018318176
    vertex 1.1326481597846536 -48.86973835120628 -58.68946022795047
  endloop
endfacet
facet normal -0.15214738047884718 0.9883578170953116 -1.243061491965905e-07
  outer loop
    vertex 8.192028113320514 -62.21296596198436 -58.68945854701236
    vertex 10.89792346010036 -61.79642195205842 -61.589460128790144
    vertex 8.192028984905738 -62.21296619254707 -61.589460131451155
  endloop
endfacet
facet normal -0.15214738047884718 0.9883578170953116 -1.243061491965905e-07
  outer loop
    vertex 10.89792346010036 -61.79642195205842 -61.589460128790144
    vertex 8.192028113320514 -62.21296596198436 -58.68945854701236
    vertex 10.897922588515 -61.796421721495655 -58.689458544351346
  endloop
endfacet
facet normal 0.9914448613738076 -0.1305261922200735 -2.223224859543277e-09
  outer loop
    vertex 1.6012773028571097 -50.00110920509931 -61.58946018275907
    vertex 1.546758631948708 -50.415219673268986 -58.6894602268252
    vertex 1.546758624919592 -50.41521967726346 -61.58946018205646
  endloop
endfacet
facet normal 0.9914448613738076 -0.1305261922200735 -2.223224859543277e-09
  outer loop
    vertex 1.546758631948708 -50.415219673268986 -58.6894602268252
    vertex 1.6012773028571097 -50.00110920509931 -61.58946018275907
    vertex 1.6012773098861357 -50.00110920110484 -58.68946022752779
  endloop
endfacet
facet normal -0.999999999999991 1.9966897635226442e-08 -1.322929930264395e-07
  outer loop
    vertex 21.745913632729735 -37.50055215960405 -58.689460283691716
    vertex 21.74591357936081 -37.5005521601412 -60.38946023239216
    vertex 21.745912709783088 -56.88406699157426 -58.68944802902521
  endloop
endfacet
facet normal -0.999999999999991 1.9966897635226442e-08 -1.322929930264395e-07
  outer loop
    vertex 21.745912709783088 -56.88406699157426 -58.68944802902521
    vertex 21.745913581368267 -35.250261864619326 -61.589460194549595
    vertex 21.74591358136849 -56.88406722213707 -61.58944961346401
  endloop
endfacet
facet normal -0.999999999999991 1.9966897635226442e-08 -1.322929930264395e-07
  outer loop
    vertex 21.745913581368267 -35.250261864619326 -61.589460194549595
    vertex 21.745912709783088 -56.88406699157426 -58.68944802902521
    vertex 21.74591357936081 -37.5005521601412 -60.38946023239216
  endloop
endfacet
facet normal -0.999999999999991 1.9966897635226442e-08 -1.322929930264395e-07
  outer loop
    vertex 21.745913581368267 -35.250261864619326 -61.589460194549595
    vertex 21.74591357936081 -37.5005521601412 -60.38946023239216
    vertex 21.745913579360767 -35.25026186515304 -60.389460200781855
  endloop
endfacet
facet normal -0.6087614290086993 0.7933533402912134 -2.4603619834554653e-07
  outer loop
    vertex 20.372315405731854 -59.263209051523596 -61.58944960814434
    vertex 20.94127752774615 -58.8266281608105 -58.689448024667186
    vertex 20.94127839933155 -58.82662839137322 -61.58944960910598
  endloop
endfacet
facet normal -0.6087614290086993 0.7933533402912134 -2.4603619834554653e-07
  outer loop
    vertex 20.94127752774615 -58.8266281608105 -58.689448024667186
    vertex 20.372315405731854 -59.263209051523596 -61.58944960814434
    vertex 20.372314534146632 -59.26320882096079 -58.68944802370554
  endloop
endfacet
facet normal 0.13052618864626034 -0.991444861844309 1.3656959829717274e-09
  outer loop
    vertex 0.4153877820501479 -51.54659052316736 -58.68946022252454
    vertex 0.001277298355859635 -51.60110920509886 -61.58946017667705
    vertex 0.4153877750209416 -51.54659052716197 -61.589460177755825
  endloop
endfacet
facet normal 0.13052618864626034 -0.991444861844309 1.3656959829717274e-09
  outer loop
    vertex 0.001277298355859635 -51.60110920509886 -61.58946017667705
    vertex 0.4153877820501479 -51.54659052316736 -58.68946022252454
    vertex 0.0012772913270142183 -51.6011092011042 -58.689460221445785
  endloop
endfacet
facet normal -0.3826834323650632 0.9238795325112787 -1.884666495211509e-07
  outer loop
    vertex 19.709743966440808 -59.537655127718764 -61.5894496075538
    vertex 20.372314534146632 -59.26320882096079 -58.68944802370554
    vertex 20.372315405731854 -59.263209051523596 -61.58944960814434
  endloop
endfacet
facet normal -0.3826834323650632 0.9238795325112787 -1.884666495211509e-07
  outer loop
    vertex 20.372314534146632 -59.26320882096079 -58.68944802370554
    vertex 19.709743966440808 -59.537655127718764 -61.5894496075538
    vertex 19.709743094855586 -59.53765489715618 -58.689448023115
  endloop
endfacet
facet normal -0.19511413236521774 0.9807805439298589 -1.3661723025713758e-07
  outer loop
    vertex 10.897922588515 -61.796421721495655 -58.689458544351346
    vertex 13.583073118750812 -61.26224471010467 -61.58946012632075
    vertex 10.89792346010036 -61.79642195205842 -61.589460128790144
  endloop
endfacet
facet normal -0.19511413236521774 0.9807805439298589 -1.3661723025713758e-07
  outer loop
    vertex 13.583073118750812 -61.26224471010467 -61.58946012632075
    vertex 10.897922588515 -61.796421721495655 -58.689458544351346
    vertex 13.583072247165408 -61.26224447954186 -58.68945854188196
  endloop
endfacet
facet normal 0.13052618864903376 0.9914448618439439 -1.3656526721356534e-09
  outer loop
    vertex 0.0012772983558145155 -48.40110920509882 -61.58946018108522
    vertex 0.41538778205019306 -48.45562787904236 -58.689460226782494
    vertex 0.41538777502112206 -48.455627883036875 -61.58946018201378
  endloop
endfacet
facet normal 0.13052618864903376 0.9914448618439439 -1.3656526721356534e-09
  outer loop
    vertex 0.41538778205019306 -48.45562787904236 -58.689460226782494
    vertex 0.0012772983558145155 -48.40110920509882 -61.58946018108522
    vertex 0.001277291326788621 -48.40110920110435 -58.689460225853935
  endloop
endfacet
facet normal -0.27985232096363233 0.9600430607276127 -1.6043627658429504e-07
  outer loop
    vertex 16.242365754283185 -60.61145107286406 -58.689458539608886
    vertex 18.87074186511759 -59.84528055426302 -61.5894601219753
    vertex 16.24236662586841 -60.61145130342686 -61.58946012404769
  endloop
endfacet
facet normal -0.27985232096363233 0.9600430607276127 -1.6043627658429504e-07
  outer loop
    vertex 18.87074186511759 -59.84528055426302 -61.5894601219753
    vertex 16.242365754283185 -60.61145107286406 -58.689458539608886
    vertex 18.870740993532277 -59.845280323700216 -58.689458537536495
  endloop
endfacet
facet normal -1.0786177062632313e-08 -1.0 1.4593202790247192e-08
  outer loop
    vertex 21.74591357936081 -37.5005521601412 -60.38946023239216
    vertex 19.495703301882102 -37.500552111061644 -58.68946026320512
    vertex 19.495703297179663 -37.5005521601412 -60.38946026320512
  endloop
endfacet
facet normal -1.0786177062632313e-08 -1.0 1.4593202790247192e-08
  outer loop
    vertex 19.495703301882102 -37.500552111061644 -58.68946026320512
    vertex 21.74591357936081 -37.5005521601412 -60.38946023239216
    vertex 21.745913632729735 -37.50055215960405 -58.689460283691716
  endloop
endfacet
facet normal 0.9238795325112119 -0.3826834323652706 -1.7121092404293844e-09
  outer loop
    vertex 1.546758624919592 -50.41521967726346 -61.58946018205646
    vertex 1.3869179559411329 -50.801109201104836 -58.689460225906195
    vertex 1.3869179489121521 -50.80110920509931 -61.58946018113748
  endloop
endfacet
facet normal 0.9238795325112119 -0.3826834323652706 -1.7121092404293844e-09
  outer loop
    vertex 1.3869179559411329 -50.801109201104836 -58.689460225906195
    vertex 1.546758624919592 -50.41521967726346 -61.58946018205646
    vertex 1.546758631948708 -50.415219673268986 -58.6894602268252
  endloop
endfacet
facet normal 0.608761429008706 0.7933533402912465 -2.5683459800970606e-09
  outer loop
    vertex 0.8012773028571112 -48.615468559044274 -61.58946018272888
    vertex 1.1326481597846536 -48.86973835120628 -58.68946022795047
    vertex 1.1326481527554924 -48.86973835520097 -61.58946018318176
  endloop
endfacet
facet normal 0.608761429008706 0.7933533402912465 -2.5683459800970606e-09
  outer loop
    vertex 1.1326481597846536 -48.86973835120628 -58.68946022795047
    vertex 0.8012773028571112 -48.615468559044274 -61.58946018272888
    vertex 0.8012773098862724 -48.61546855504989 -58.68946022749759
  endloop
endfacet
facet normal 0.38268343236504965 0.9238795325113035 -2.200163731081221e-09
  outer loop
    vertex 0.41538777502112206 -48.455627883036875 -61.58946018201378
    vertex 0.8012773098862724 -48.61546855504989 -58.68946022749759
    vertex 0.8012773028571112 -48.615468559044274 -61.58946018272888
  endloop
endfacet
facet normal 0.38268343236504965 0.9238795325113035 -2.200163731081221e-09
  outer loop
    vertex 0.8012773098862724 -48.61546855504989 -58.68946022749759
    vertex 0.41538777502112206 -48.455627883036875 -61.58946018201378
    vertex 0.41538778205019306 -48.45562787904236 -58.689460226782494
  endloop
endfacet
facet normal -0.3394923431338593 0.9406088182413828 -1.7681576981953706e-07
  outer loop
    vertex 18.87074186511759 -59.84528055426302 -61.5894601219753
    vertex 19.209383406298727 -59.72305469284827 -58.68945861772592
    vertex 19.209384277883863 -59.723054923410984 -61.58946020216472
  endloop
endfacet
facet normal -0.3394923431338593 0.9406088182413828 -1.7681576981953706e-07
  outer loop
    vertex 19.209383406298727 -59.72305469284827 -58.68945861772592
    vertex 18.87074186511759 -59.84528055426302 -61.5894601219753
    vertex 18.870740993532277 -59.845280323700216 -58.689458537536495
  endloop
endfacet
facet normal -0.06542735411217811 0.9978573351606281 -9.8998000884643e-08
  outer loop
    vertex 2.738637693057238 -62.69020920648481 -58.689458552888624
    vertex 5.470540517093939 -62.51108451593425 -61.58946013429872
    vertex 2.738638564642417 -62.69020943704752 -61.58946013732742
  endloop
endfacet
facet normal -0.06542735411217811 0.9978573351606281 -9.8998000884643e-08
  outer loop
    vertex 5.470540517093939 -62.51108451593425 -61.58946013429872
    vertex 2.738637693057238 -62.69020920648481 -58.689458552888624
    vertex 5.47053964550876 -62.511084285371716 -58.689458549859914
  endloop
endfacet
facet normal 0.6087614290087019 -0.7933533402912495 -3.8264604802534586e-10
  outer loop
    vertex 1.1326481597845632 -51.132480051003306 -58.689460224833425
    vertex 0.801277302857021 -51.386749851154576 -61.5894601789113
    vertex 1.1326481527554924 -51.132480054998005 -61.58946018006471
  endloop
endfacet
facet normal 0.6087614290087019 -0.7933533402912495 -3.8264604802534586e-10
  outer loop
    vertex 0.801277302857021 -51.386749851154576 -61.5894601789113
    vertex 1.1326481597845632 -51.132480051003306 -58.689460224833425
    vertex 0.8012773098860468 -51.386749847159926 -58.68946022368001
  endloop
endfacet
facet normal -0.23770947341094656 0.9713362992551389 -1.4866825265503967e-07
  outer loop
    vertex 13.583072247165408 -61.26224447954186 -58.68945854188196
    vertex 16.24236662586841 -60.61145130342686 -61.58946012404769
    vertex 13.583073118750812 -61.26224471010467 -61.58946012632075
  endloop
endfacet
facet normal -0.23770947341094656 0.9713362992551389 -1.4866825265503967e-07
  outer loop
    vertex 16.24236662586841 -60.61145130342686 -61.58946012404769
    vertex 13.583072247165408 -61.26224447954186 -58.68945854188196
    vertex 16.242365754283185 -60.61145107286406 -58.689458539608886
  endloop
endfacet
facet normal 0.3826834323650625 -0.9238795325112981 3.451156866820032e-10
  outer loop
    vertex 0.8012773098860468 -51.386749847159926 -58.68946022368001
    vertex 0.4153877750209416 -51.54659052716197 -61.589460177755825
    vertex 0.801277302857021 -51.386749851154576 -61.5894601789113
  endloop
endfacet
facet normal 0.3826834323650625 -0.9238795325112981 3.451156866820032e-10
  outer loop
    vertex 0.4153877750209416 -51.54659052716197 -61.589460177755825
    vertex 0.8012773098860468 -51.386749847159926 -58.68946022368001
    vertex 0.4153877820501479 -51.54659052316736 -58.68946022252454
  endloop
endfacet
facet normal 1.3693370083788593e-08 1.4047208053740042e-08 -1.0
  outer loop
    vertex 21.74591357936081 -37.5005521601412 -60.38946023239216
    vertex 19.495703297179663 -37.5005521601412 -60.38946026320512
    vertex 21.745913579360767 -35.25026186515304 -60.389460200781855
  endloop
endfacet
facet normal 0.7933533402912923 -0.6087614290086463 -1.084338263166378e-09
  outer loop
    vertex 1.3869179489121521 -50.80110920509931 -61.58946018113748
    vertex 1.1326481597845632 -51.132480051003306 -58.689460224833425
    vertex 1.1326481527554924 -51.132480054998005 -61.58946018006471
  endloop
endfacet
facet normal 0.7933533402912923 -0.6087614290086463 -1.084338263166378e-09
  outer loop
    vertex 1.1326481597845632 -51.132480051003306 -58.689460224833425
    vertex 1.3869179489121521 -50.80110920509931 -61.58946018113748
    vertex 1.3869179559411329 -50.801109201104836 -58.689460225906195
  endloop
endfacet
facet normal -0.021835270545387697 0.9997615820585464 -4.830098398562133e-08
  outer loop
    vertex 0.0010311458535733563 -62.74999995074235 -58.689460194469014
    vertex 2.738638564642417 -62.69020943704752 -61.58946013732742
    vertex 0.001031143024176906 -62.74999998141789 -61.589460140531536
  endloop
endfacet
facet normal -0.021835270545387697 0.9997615820585464 -4.830098398562133e-08
  outer loop
    vertex 2.738638564642417 -62.69020943704752 -61.58946013732742
    vertex 0.0010311458535733563 -62.74999995074235 -58.689460194469014
    vertex 2.738637693057238 -62.69020920648481 -58.689458552888624
  endloop
endfacet
facet normal 0.7071711609168853 -0.7070423945572923 3.829040394562353e-05
  outer loop
    vertex 19.495703301882102 -37.500552111061644 -58.68946026320512
    vertex 16.99587664934262 -40.00110915665235 -58.689460178911624
    vertex 19.495703297179663 -37.5005521601412 -60.38946026320512
  endloop
endfacet
facet normal 0.7071711609168853 -0.7070423945572923 3.829040394562353e-05
  outer loop
    vertex 16.995876640482688 -40.00110920510005 -61.589460178911615
    vertex 19.495703297179663 -37.5005521601412 -60.38946026320512
    vertex 16.99587664934262 -40.00110915665235 -58.689460178911624
  endloop
endfacet
facet normal 0.7071711609168853 -0.7070423945572923 3.829040394562353e-05
  outer loop
    vertex 19.495703297179663 -37.5005521601412 -60.38946026320512
    vertex 16.995876640482688 -40.00110920510005 -61.589460178911615
    vertex 21.745913581368267 -35.250261864619326 -61.589460194549595
  endloop
endfacet
facet normal 0.7071711609168853 -0.7070423945572923 3.829040394562353e-05
  outer loop
    vertex 19.495703297179663 -37.5005521601412 -60.38946026320512
    vertex 21.745913581368267 -35.250261864619326 -61.589460194549595
    vertex 21.745913579360767 -35.25026186515304 -60.389460200781855
  endloop
endfacet
facet normal 0.9914448613737938 0.13052619222017892 -2.5828377660838544e-09
  outer loop
    vertex 1.546758624919637 -49.586998732935434 -61.58946018319738
    vertex 1.6012773098861357 -50.00110920110484 -58.68946022752779
    vertex 1.6012773028571097 -50.00110920509931 -61.58946018275907
  endloop
endfacet
facet normal 0.9914448613737938 0.13052619222017892 -2.5828377660838544e-09
  outer loop
    vertex 1.6012773098861357 -50.00110920110484 -58.68946022752779
    vertex 1.546758624919637 -49.586998732935434 -61.58946018319738
    vertex 1.5467586319486177 -49.58699872894074 -58.6894602279661
  endloop
endfacet
facet normal -1.7152949619274684e-14 -1.0 1.1075142890585423e-08
  outer loop
    vertex 16.995876640482688 -40.00110920510005 -61.589460178911615
    vertex -16.99332204812951 -40.00110915665181 -58.689460178911645
    vertex -16.993322039269763 -40.00110920509946 -61.58946017891164
  endloop
endfacet
facet normal -1.7152949619274684e-14 -1.0 1.1075142890585423e-08
  outer loop
    vertex -16.99332204812951 -40.00110915665181 -58.689460178911645
    vertex 16.995876640482688 -40.00110920510005 -61.589460178911615
    vertex 16.99587664934262 -40.00110915665235 -58.689460178911624
  endloop
endfacet
facet normal -0.13052619222008996 0.9914448613738054 -1.6820237696342532e-09
  outer loop
    vertex -0.41283318083708537 -48.45562787904182 -58.689460226782515
    vertex 0.0012772983558145155 -48.40110920509882 -61.58946018108522
    vertex -0.41283317380819484 -48.45562788303629 -61.5894601820138
  endloop
endfacet
facet normal -0.13052619222008996 0.9914448613738054 -1.6820237696342532e-09
  outer loop
    vertex 0.0012772983558145155 -48.40110920509882 -61.58946018108522
    vertex -0.41283318083708537 -48.45562787904182 -58.689460226782515
    vertex 0.001277291326788621 -48.40110920110435 -58.689460225853935
  endloop
endfacet
facet normal -0.6087614290087023 -0.7933533402912494 -3.826460480253463e-10
  outer loop
    vertex -0.7987227016440938 -51.386749851153944 -61.589460178911324
    vertex -1.1300935585714555 -51.132480051002766 -58.689460224833454
    vertex -1.1300935515425652 -51.13248005499737 -61.589460180064734
  endloop
endfacet
facet normal -0.6087614290087023 -0.7933533402912494 -3.826460480253463e-10
  outer loop
    vertex -1.1300935585714555 -51.132480051002766 -58.689460224833454
    vertex -0.7987227016440938 -51.386749851153944 -61.589460178911324
    vertex -0.7987227086729843 -51.38674984715934 -58.68946022368004
  endloop
endfacet
facet normal -0.7071711609168857 -0.7070423945572919 3.829040394562356e-05
  outer loop
    vertex -19.493148700668996 -37.500552111061104 -58.68946026320515
    vertex -19.493148695966553 -37.500552160140565 -60.389460263205144
    vertex -16.99332204812951 -40.00110915665181 -58.689460178911645
  endloop
endfacet
facet normal -0.7071711609168857 -0.7070423945572919 3.829040394562356e-05
  outer loop
    vertex -16.993322039269763 -40.00110920509946 -61.58946017891164
    vertex -19.493148695966553 -37.500552160140565 -60.389460263205144
    vertex -21.743358980155385 -35.250261864618786 -61.589460194549616
  endloop
endfacet
facet normal -0.7071711609168857 -0.7070423945572919 3.829040394562356e-05
  outer loop
    vertex -19.493148695966553 -37.500552160140565 -60.389460263205144
    vertex -16.993322039269763 -40.00110920509946 -61.58946017891164
    vertex -16.99332204812951 -40.00110915665181 -58.689460178911645
  endloop
endfacet
facet normal -0.7071711609168857 -0.7070423945572919 3.829040394562356e-05
  outer loop
    vertex -21.743358980155385 -35.250261864618786 -61.589460194549616
    vertex -19.493148695966553 -37.500552160140565 -60.389460263205144
    vertex -21.743358978147793 -35.2502618651525 -60.389460200781876
  endloop
endfacet
facet normal -0.9914448613737934 0.13052619222018075 -2.582837766083853e-09
  outer loop
    vertex -1.598722708673028 -50.00110920110425 -58.689460227527796
    vertex -1.5442040237067098 -49.58699873293485 -61.58946018319741
    vertex -1.5987227016441374 -50.00110920509877 -61.589460182759076
  endloop
endfacet
facet normal -0.9914448613737934 0.13052619222018075 -2.582837766083853e-09
  outer loop
    vertex -1.5442040237067098 -49.58699873293485 -61.58946018319741
    vertex -1.598722708673028 -50.00110920110425 -58.689460227527796
    vertex -1.5442040307355551 -49.58699872894011 -58.68946022796612
  endloop
endfacet
facet normal 1.078617728466667e-08 -1.0 1.4593202790247185e-08
  outer loop
    vertex -19.493148700668996 -37.500552111061104 -58.68946026320515
    vertex -21.743358978147793 -37.500552160140565 -60.38946023239218
    vertex -19.493148695966553 -37.500552160140565 -60.389460263205144
  endloop
endfacet
facet normal 1.078617728466667e-08 -1.0 1.4593202790247185e-08
  outer loop
    vertex -21.743358978147793 -37.500552160140565 -60.38946023239218
    vertex -19.493148700668996 -37.500552111061104 -58.68946026320515
    vertex -21.743359031516675 -37.500552159603465 -58.68946028369174
  endloop
endfacet
facet normal -0.7933533402912928 -0.6087614290086456 -1.0843382631663786e-09
  outer loop
    vertex -1.1300935585714555 -51.132480051002766 -58.689460224833454
    vertex -1.38436334769918 -50.80110920509877 -61.589460181137504
    vertex -1.1300935515425652 -51.13248005499737 -61.589460180064734
  endloop
endfacet
facet normal -0.7933533402912928 -0.6087614290086456 -1.0843382631663786e-09
  outer loop
    vertex -1.38436334769918 -50.80110920509877 -61.589460181137504
    vertex -1.1300935585714555 -51.132480051002766 -58.689460224833454
    vertex -1.3843633547280252 -50.801109201104296 -58.68946022590622
  endloop
endfacet
facet normal -1.8725912407230074e-13 1.8204452561624321e-07 0.9999999999999836
  outer loop
    vertex 0.001031143024176906 -62.74999998141789 -61.589460140531536
    vertex -1.5987227016441374 -50.00110920509877 -61.589460182759076
    vertex -2.736083963429535 -62.69020943704694 -61.58946013732744
  endloop
endfacet
facet normal -1.8725912407230074e-13 1.8204452561624321e-07 0.9999999999999836
  outer loop
    vertex -1.5987227016441374 -50.00110920509877 -61.589460182759076
    vertex 0.001031143024176906 -62.74999998141789 -61.589460140531536
    vertex -1.5442040237066195 -50.41521967726287 -61.589460182056484
  endloop
endfacet
facet normal -1.8725912407230074e-13 1.8204452561624321e-07 0.9999999999999836
  outer loop
    vertex -1.5442040237066195 -50.41521967726287 -61.589460182056484
    vertex 0.001031143024176906 -62.74999998141789 -61.589460140531536
    vertex -1.38436334769918 -50.80110920509877 -61.589460181137504
  endloop
endfacet
facet normal -1.8725912407230074e-13 1.8204452561624321e-07 0.9999999999999836
  outer loop
    vertex -1.38436334769918 -50.80110920509877 -61.589460181137504
    vertex 0.001031143024176906 -62.74999998141789 -61.589460140531536
    vertex -1.1300935515425652 -51.13248005499737 -61.589460180064734
  endloop
endfacet
facet normal -1.8725912407230074e-13 1.8204452561624321e-07 0.9999999999999836
  outer loop
    vertex -1.1300935515425652 -51.13248005499737 -61.589460180064734
    vertex 0.001031143024176906 -62.74999998141789 -61.589460140531536
    vertex -0.7987227016440938 -51.386749851153944 -61.589460178911324
  endloop
endfacet
facet normal -1.8725912407230074e-13 1.8204452561624321e-07 0.9999999999999836
  outer loop
    vertex -0.7987227016440938 -51.386749851153944 -61.589460178911324
    vertex 0.001031143024176906 -62.74999998141789 -61.589460140531536
    vertex -0.4128331738080144 -51.546590527161335 -61.58946017775586
  endloop
endfacet
facet normal -1.8725912407230074e-13 1.8204452561624321e-07 0.9999999999999836
  outer loop
    vertex -0.4128331738080144 -51.546590527161335 -61.58946017775586
    vertex 0.001031143024176906 -62.74999998141789 -61.589460140531536
    vertex 0.001277298355859635 -51.60110920509886 -61.58946017667705
  endloop
endfacet
facet normal -1.8725912407230074e-13 1.8204452561624321e-07 0.9999999999999836
  outer loop
    vertex 0.001277298355859635 -51.60110920509886 -61.58946017667705
    vertex 0.001031143024176906 -62.74999998141789 -61.589460140531536
    vertex 2.738638564642417 -62.69020943704752 -61.58946013732742
  endloop
endfacet
facet normal -1.8725912407230074e-13 1.8204452561624321e-07 0.9999999999999836
  outer loop
    vertex 0.001277298355859635 -51.60110920509886 -61.58946017667705
    vertex 2.738638564642417 -62.69020943704752 -61.58946013732742
    vertex 0.4153877750209416 -51.54659052716197 -61.589460177755825
  endloop
endfacet
facet normal -1.8725912407230074e-13 1.8204452561624321e-07 0.9999999999999836
  outer loop
    vertex 0.4153877750209416 -51.54659052716197 -61.589460177755825
    vertex 2.738638564642417 -62.69020943704752 -61.58946013732742
    vertex 0.801277302857021 -51.386749851154576 -61.5894601789113
  endloop
endfacet
facet normal -1.8725912407230074e-13 1.8204452561624321e-07 0.9999999999999836
  outer loop
    vertex 0.801277302857021 -51.386749851154576 -61.5894601789113
    vertex 2.738638564642417 -62.69020943704752 -61.58946013732742
    vertex 1.1326481527554924 -51.132480054998005 -61.58946018006471
  endloop
endfacet
facet normal -1.8725912407230074e-13 1.8204452561624321e-07 0.9999999999999836
  outer loop
    vertex 1.1326481527554924 -51.132480054998005 -61.58946018006471
    vertex 2.738638564642417 -62.69020943704752 -61.58946013732742
    vertex 1.3869179489121521 -50.80110920509931 -61.58946018113748
  endloop
endfacet
facet normal -1.8725912407230074e-13 1.8204452561624321e-07 0.9999999999999836
  outer loop
    vertex 1.3869179489121521 -50.80110920509931 -61.58946018113748
    vertex 2.738638564642417 -62.69020943704752 -61.58946013732742
    vertex 1.546758624919592 -50.41521967726346 -61.58946018205646
  endloop
endfacet
facet normal -1.8725912407230074e-13 1.8204452561624321e-07 0.9999999999999836
  outer loop
    vertex 1.546758624919592 -50.41521967726346 -61.58946018205646
    vertex 2.738638564642417 -62.69020943704752 -61.58946013732742
    vertex 1.6012773028571097 -50.00110920509931 -61.58946018275907
  endloop
endfacet
facet normal -1.8725912407230074e-13 1.8204452561624321e-07 0.9999999999999836
  outer loop
    vertex -21.64975053446426 -57.59509395848212 -61.58944961185967
    vertex -21.743358980155385 -35.250261864618786 -61.589460194549616
    vertex -21.74335898015552 -56.88406722213657 -61.58944961346404
  endloop
endfacet
facet normal -1.8725912407230074e-13 1.8204452561624321e-07 0.9999999999999836
  outer loop
    vertex -21.743358980155385 -35.250261864618786 -61.589460194549616
    vertex -21.64975053446426 -57.59509395848212 -61.58944961185967
    vertex -16.993322039269763 -40.00110920509946 -61.58946017891164
  endloop
endfacet
facet normal -1.8725912407230074e-13 1.8204452561624321e-07 0.9999999999999836
  outer loop
    vertex -16.993322039269763 -40.00110920509946 -61.58946017891164
    vertex -21.64975053446426 -57.59509395848212 -61.58944961185967
    vertex -21.37530445826878 -58.25766539777293 -61.58944961037323
  endloop
endfacet
facet normal -1.8725912407230074e-13 1.8204452561624321e-07 0.9999999999999836
  outer loop
    vertex -16.993322039269763 -40.00110920509946 -61.58946017891164
    vertex -21.37530445826878 -58.25766539777293 -61.58944961037323
    vertex -20.938723798118627 -58.82662839137268 -61.589449609106005
  endloop
endfacet
facet normal -1.8725912407230074e-13 1.8204452561624321e-07 0.9999999999999836
  outer loop
    vertex -16.993322039269763 -40.00110920509946 -61.58946017891164
    vertex -20.938723798118627 -58.82662839137268 -61.589449609106005
    vertex -20.369760804518883 -59.26320905152296 -61.58944960814436
  endloop
endfacet
facet normal -1.8725912407230074e-13 1.8204452561624321e-07 0.9999999999999836
  outer loop
    vertex -16.993322039269763 -40.00110920509946 -61.58946017891164
    vertex -20.369760804518883 -59.26320905152296 -61.58944960814436
    vertex -19.707189365227972 -59.537655127718175 -61.589449607553824
  endloop
endfacet
facet normal -1.8725912407230074e-13 1.8204452561624321e-07 0.9999999999999836
  outer loop
    vertex -16.993322039269763 -40.00110920509946 -61.58946017891164
    vertex -19.707189365227972 -59.537655127718175 -61.589449607553824
    vertex -19.206829676670935 -59.723054923410444 -61.58946020216473
  endloop
endfacet
facet normal -1.8725912407230074e-13 1.8204452561624321e-07 0.9999999999999836
  outer loop
    vertex -16.993322039269763 -40.00110920509946 -61.58946017891164
    vertex -19.206829676670935 -59.723054923410444 -61.58946020216473
    vertex -18.868187263904666 -59.84528055426248 -61.58946012197532
  endloop
endfacet
facet normal -1.8725912407230074e-13 1.8204452561624321e-07 0.9999999999999836
  outer loop
    vertex -16.993322039269763 -40.00110920509946 -61.58946017891164
    vertex -18.868187263904666 -59.84528055426248 -61.58946012197532
    vertex -16.239812024655528 -60.61145130342632 -61.589460124047726
  endloop
endfacet
facet normal -1.8725912407230074e-13 1.8204452561624321e-07 0.9999999999999836
  outer loop
    vertex -16.993322039269763 -40.00110920509946 -61.58946017891164
    vertex -16.239812024655528 -60.61145130342632 -61.589460124047726
    vertex -1.1300935515426103 -48.86973835520043 -61.58946018318179
  endloop
endfacet
facet normal -1.8725912407230074e-13 1.8204452561624321e-07 0.9999999999999836
  outer loop
    vertex -16.993322039269763 -40.00110920509946 -61.58946017891164
    vertex -1.1300935515426103 -48.86973835520043 -61.58946018318179
    vertex -0.7987227016441389 -48.615468559043684 -61.58946018272891
  endloop
endfacet
facet normal -1.8725912407230074e-13 1.8204452561624321e-07 0.9999999999999836
  outer loop
    vertex -16.993322039269763 -40.00110920509946 -61.58946017891164
    vertex -0.7987227016441389 -48.615468559043684 -61.58946018272891
    vertex 16.995876640482688 -40.00110920510005 -61.589460178911615
  endloop
endfacet
facet normal -1.8725912407230074e-13 1.8204452561624321e-07 0.9999999999999836
  outer loop
    vertex -1.1300935515426103 -48.86973835520043 -61.58946018318179
    vertex -16.239812024655528 -60.61145130342632 -61.589460124047726
    vertex -13.580518517537886 -61.262244710104035 -61.58946012632077
  endloop
endfacet
facet normal -1.8725912407230074e-13 1.8204452561624321e-07 0.9999999999999836
  outer loop
    vertex -1.1300935515426103 -48.86973835520043 -61.58946018318179
    vertex -13.580518517537886 -61.262244710104035 -61.58946012632077
    vertex -1.3843633476993151 -49.20110920509882 -61.58946018334158
  endloop
endfacet
facet normal -1.8725912407230074e-13 1.8204452561624321e-07 0.9999999999999836
  outer loop
    vertex -1.3843633476993151 -49.20110920509882 -61.58946018334158
    vertex -13.580518517537886 -61.262244710104035 -61.58946012632077
    vertex -10.895368858887432 -61.79642195205788 -61.589460128790165
  endloop
endfacet
facet normal -1.8725912407230074e-13 1.8204452561624321e-07 0.9999999999999836
  outer loop
    vertex -1.3843633476993151 -49.20110920509882 -61.58946018334158
    vertex -10.895368858887432 -61.79642195205788 -61.589460128790165
    vertex -8.189474383692811 -62.21296619254644 -61.589460131451176
  endloop
endfacet
facet normal -1.8725912407230074e-13 1.8204452561624321e-07 0.9999999999999836
  outer loop
    vertex -1.3843633476993151 -49.20110920509882 -61.58946018334158
    vertex -8.189474383692811 -62.21296619254644 -61.589460131451176
    vertex -1.5442040237067098 -49.58699873293485 -61.58946018319741
  endloop
endfacet
facet normal -1.8725912407230074e-13 1.8204452561624321e-07 0.9999999999999836
  outer loop
    vertex -1.5442040237067098 -49.58699873293485 -61.58946018319741
    vertex -8.189474383692811 -62.21296619254644 -61.589460131451176
    vertex -5.467985915881147 -62.51108451593371 -61.58946013429874
  endloop
endfacet
facet normal -1.8725912407230074e-13 1.8204452561624321e-07 0.9999999999999836
  outer loop
    vertex -1.5442040237067098 -49.58699873293485 -61.58946018319741
    vertex -5.467985915881147 -62.51108451593371 -61.58946013429874
    vertex -1.5987227016441374 -50.00110920509877 -61.589460182759076
  endloop
endfacet
facet normal -1.8725912407230074e-13 1.8204452561624321e-07 0.9999999999999836
  outer loop
    vertex -1.5987227016441374 -50.00110920509877 -61.589460182759076
    vertex -5.467985915881147 -62.51108451593371 -61.58946013429874
    vertex -2.736083963429535 -62.69020943704694 -61.58946013732744
  endloop
endfacet
facet normal -1.8725912407230074e-13 1.8204452561624321e-07 0.9999999999999836
  outer loop
    vertex 16.995876640482688 -40.00110920510005 -61.589460178911615
    vertex -0.7987227016441389 -48.615468559043684 -61.58946018272891
    vertex -0.41283317380819484 -48.45562788303629 -61.5894601820138
  endloop
endfacet
facet normal -1.8725912407230074e-13 1.8204452561624321e-07 0.9999999999999836
  outer loop
    vertex 16.995876640482688 -40.00110920510005 -61.589460178911615
    vertex -0.41283317380819484 -48.45562788303629 -61.5894601820138
    vertex 0.0012772983558145155 -48.40110920509882 -61.58946018108522
  endloop
endfacet
facet normal -1.8725912407230074e-13 1.8204452561624321e-07 0.9999999999999836
  outer loop
    vertex 16.995876640482688 -40.00110920510005 -61.589460178911615
    vertex 0.0012772983558145155 -48.40110920509882 -61.58946018108522
    vertex 0.41538777502112206 -48.455627883036875 -61.58946018201378
  endloop
endfacet
facet normal -1.8725912407230074e-13 1.8204452561624321e-07 0.9999999999999836
  outer loop
    vertex 16.995876640482688 -40.00110920510005 -61.589460178911615
    vertex 0.41538777502112206 -48.455627883036875 -61.58946018201378
    vertex 0.8012773028571112 -48.615468559044274 -61.58946018272888
  endloop
endfacet
facet normal -1.8725912407230074e-13 1.8204452561624321e-07 0.9999999999999836
  outer loop
    vertex 16.995876640482688 -40.00110920510005 -61.589460178911615
    vertex 0.8012773028571112 -48.615468559044274 -61.58946018272888
    vertex 1.1326481527554924 -48.86973835520097 -61.58946018318176
  endloop
endfacet
facet normal -1.8725912407230074e-13 1.8204452561624321e-07 0.9999999999999836
  outer loop
    vertex 16.995876640482688 -40.00110920510005 -61.589460178911615
    vertex 1.1326481527554924 -48.86973835520097 -61.58946018318176
    vertex 1.3869179489122876 -49.2011092050994 -61.58946018334156
  endloop
endfacet
facet normal -1.8725912407230074e-13 1.8204452561624321e-07 0.9999999999999836
  outer loop
    vertex 16.995876640482688 -40.00110920510005 -61.589460178911615
    vertex 1.3869179489122876 -49.2011092050994 -61.58946018334156
    vertex 1.546758624919637 -49.586998732935434 -61.58946018319738
  endloop
endfacet
facet normal -1.8725912407230074e-13 1.8204452561624321e-07 0.9999999999999836
  outer loop
    vertex 16.995876640482688 -40.00110920510005 -61.589460178911615
    vertex 1.546758624919637 -49.586998732935434 -61.58946018319738
    vertex 1.6012773028571097 -50.00110920509931 -61.58946018275907
  endloop
endfacet
facet normal -1.8725912407230074e-13 1.8204452561624321e-07 0.9999999999999836
  outer loop
    vertex 16.995876640482688 -40.00110920510005 -61.589460178911615
    vertex 1.6012773028571097 -50.00110920509931 -61.58946018275907
    vertex 2.738638564642417 -62.69020943704752 -61.58946013732742
  endloop
endfacet
facet normal -1.8725912407230074e-13 1.8204452561624321e-07 0.9999999999999836
  outer loop
    vertex 16.995876640482688 -40.00110920510005 -61.589460178911615
    vertex 2.738638564642417 -62.69020943704752 -61.58946013732742
    vertex 5.470540517093939 -62.51108451593425 -61.58946013429872
  endloop
endfacet
facet normal -1.8725912407230074e-13 1.8204452561624321e-07 0.9999999999999836
  outer loop
    vertex 16.995876640482688 -40.00110920510005 -61.589460178911615
    vertex 5.470540517093939 -62.51108451593425 -61.58946013429872
    vertex 8.192028984905738 -62.21296619254707 -61.589460131451155
  endloop
endfacet
facet normal -1.8725912407230074e-13 1.8204452561624321e-07 0.9999999999999836
  outer loop
    vertex 16.995876640482688 -40.00110920510005 -61.589460178911615
    vertex 8.192028984905738 -62.21296619254707 -61.589460131451155
    vertex 10.89792346010036 -61.79642195205842 -61.589460128790144
  endloop
endfacet
facet normal -1.8725912407230074e-13 1.8204452561624321e-07 0.9999999999999836
  outer loop
    vertex 16.995876640482688 -40.00110920510005 -61.589460178911615
    vertex 10.89792346010036 -61.79642195205842 -61.589460128790144
    vertex 13.583073118750812 -61.26224471010467 -61.58946012632075
  endloop
endfacet
facet normal -1.8725912407230074e-13 1.8204452561624321e-07 0.9999999999999836
  outer loop
    vertex 16.995876640482688 -40.00110920510005 -61.589460178911615
    vertex 13.583073118750812 -61.26224471010467 -61.58946012632075
    vertex 16.24236662586841 -60.61145130342686 -61.58946012404769
  endloop
endfacet
facet normal -1.8725912407230074e-13 1.8204452561624321e-07 0.9999999999999836
  outer loop
    vertex 16.995876640482688 -40.00110920510005 -61.589460178911615
    vertex 16.24236662586841 -60.61145130342686 -61.58946012404769
    vertex 18.87074186511759 -59.84528055426302 -61.5894601219753
  endloop
endfacet
facet normal -1.8725912407230074e-13 1.8204452561624321e-07 0.9999999999999836
  outer loop
    vertex 16.995876640482688 -40.00110920510005 -61.589460178911615
    vertex 18.87074186511759 -59.84528055426302 -61.5894601219753
    vertex 21.745913581368267 -35.250261864619326 -61.589460194549595
  endloop
endfacet
facet normal -1.8725912407230074e-13 1.8204452561624321e-07 0.9999999999999836
  outer loop
    vertex 21.745913581368267 -35.250261864619326 -61.589460194549595
    vertex 18.87074186511759 -59.84528055426302 -61.5894601219753
    vertex 19.209384277883863 -59.723054923410984 -61.58946020216472
  endloop
endfacet
facet normal -1.8725912407230074e-13 1.8204452561624321e-07 0.9999999999999836
  outer loop
    vertex 21.745913581368267 -35.250261864619326 -61.589460194549595
    vertex 19.209384277883863 -59.723054923410984 -61.58946020216472
    vertex 19.709743966440808 -59.537655127718764 -61.5894496075538
  endloop
endfacet
facet normal -1.8725912407230074e-13 1.8204452561624321e-07 0.9999999999999836
  outer loop
    vertex 21.745913581368267 -35.250261864619326 -61.589460194549595
    vertex 19.709743966440808 -59.537655127718764 -61.5894496075538
    vertex 20.372315405731854 -59.263209051523596 -61.58944960814434
  endloop
endfacet
facet normal -1.8725912407230074e-13 1.8204452561624321e-07 0.9999999999999836
  outer loop
    vertex 21.745913581368267 -35.250261864619326 -61.589460194549595
    vertex 20.372315405731854 -59.263209051523596 -61.58944960814434
    vertex 20.94127839933155 -58.82662839137322 -61.58944960910598
  endloop
endfacet
facet normal -1.8725912407230074e-13 1.8204452561624321e-07 0.9999999999999836
  outer loop
    vertex 21.745913581368267 -35.250261864619326 -61.589460194549595
    vertex 20.94127839933155 -58.82662839137322 -61.58944960910598
    vertex 21.37785905948166 -58.25766539777352 -61.58944961037321
  endloop
endfacet
facet normal -1.8725912407230074e-13 1.8204452561624321e-07 0.9999999999999836
  outer loop
    vertex 21.745913581368267 -35.250261864619326 -61.589460194549595
    vertex 21.37785905948166 -58.25766539777352 -61.58944961037321
    vertex 21.652305135677185 -57.59509395848261 -61.58944961185964
  endloop
endfacet
facet normal -1.8725912407230074e-13 1.8204452561624321e-07 0.9999999999999836
  outer loop
    vertex 21.745913581368267 -35.250261864619326 -61.589460194549595
    vertex 21.652305135677185 -57.59509395848261 -61.58944961185964
    vertex 21.74591358136849 -56.88406722213707 -61.58944961346401
  endloop
endfacet
facet normal -0.6087614290087054 0.793353340291247 -2.5683459800970577e-09
  outer loop
    vertex -1.130093558571546 -48.86973835120569 -58.6894602279505
    vertex -0.7987227016441389 -48.615468559043684 -61.58946018272891
    vertex -1.1300935515426103 -48.86973835520043 -61.58946018318179
  endloop
endfacet
facet normal -0.6087614290087054 0.793353340291247 -2.5683459800970577e-09
  outer loop
    vertex -0.7987227016441389 -48.615468559043684 -61.58946018272891
    vertex -1.130093558571546 -48.86973835120569 -58.6894602279505
    vertex -0.798722708673255 -48.6154685550494 -58.68946022749761
  endloop
endfacet
facet normal -0.1305261922199995 -0.9914448613738173 1.0493302327469e-09
  outer loop
    vertex 0.001277298355859635 -51.60110920509886 -61.58946017667705
    vertex -0.41283318083704024 -51.54659052316678 -58.689460222524566
    vertex -0.4128331738080144 -51.546590527161335 -61.58946017775586
  endloop
endfacet
facet normal -0.1305261922199995 -0.9914448613738173 1.0493302327469e-09
  outer loop
    vertex -0.41283318083704024 -51.54659052316678 -58.689460222524566
    vertex 0.001277298355859635 -51.60110920509886 -61.58946017667705
    vertex 0.0012772913270142183 -51.6011092011042 -58.689460221445785
  endloop
endfacet
facet normal -0.9238795325112126 -0.3826834323652693 -1.712109240429386e-09
  outer loop
    vertex -1.3843633547280252 -50.801109201104296 -58.68946022590622
    vertex -1.5442040237066195 -50.41521967726287 -61.589460182056484
    vertex -1.38436334769918 -50.80110920509877 -61.589460181137504
  endloop
endfacet
facet normal -0.9238795325112126 -0.3826834323652693 -1.712109240429386e-09
  outer loop
    vertex -1.5442040237066195 -50.41521967726287 -61.589460182056484
    vertex -1.3843633547280252 -50.801109201104296 -58.68946022590622
    vertex -1.5442040307356455 -50.41521967326835 -58.68946022682522
  endloop
endfacet
facet normal 0.3394923431338593 0.9406088182413828 -1.768157698195371e-07
  outer loop
    vertex -19.206828805085667 -59.72305469284764 -58.68945861772594
    vertex -18.868187263904666 -59.84528055426248 -61.58946012197532
    vertex -19.206829676670935 -59.723054923410444 -61.58946020216473
  endloop
endfacet
facet normal 0.3394923431338593 0.9406088182413828 -1.768157698195371e-07
  outer loop
    vertex -18.868187263904666 -59.84528055426248 -61.58946012197532
    vertex -19.206828805085667 -59.72305469284764 -58.68945861772594
    vertex -18.868186392319217 -59.845280323699626 -58.68945853753652
  endloop
endfacet
facet normal -1.3693370083788591e-08 1.4047208053740077e-08 -1.0
  outer loop
    vertex -19.493148695966553 -37.500552160140565 -60.389460263205144
    vertex -21.743358978147793 -37.500552160140565 -60.38946023239218
    vertex -21.743358978147793 -35.2502618651525 -60.389460200781876
  endloop
endfacet
facet normal -0.3826834323650625 -0.9238795325112981 3.4511568668200333e-10
  outer loop
    vertex -0.4128331738080144 -51.546590527161335 -61.58946017775586
    vertex -0.7987227086729843 -51.38674984715934 -58.68946022368004
    vertex -0.7987227016440938 -51.386749851153944 -61.589460178911324
  endloop
endfacet
facet normal -0.3826834323650625 -0.9238795325112981 3.4511568668200333e-10
  outer loop
    vertex -0.7987227086729843 -51.38674984715934 -58.68946022368004
    vertex -0.4128331738080144 -51.546590527161335 -61.58946017775586
    vertex -0.41283318083704024 -51.54659052316678 -58.689460222524566
  endloop
endfacet
facet normal 0.0218391960831375 0.9997614963152162 -4.8322868486959995e-08
  outer loop
    vertex -2.736083963429535 -62.69020943704694 -61.58946013732744
    vertex 0.0010311458535733563 -62.74999995074235 -58.689460194469014
    vertex 0.001031143024176906 -62.74999998141789 -61.589460140531536
  endloop
endfacet
facet normal 0.0218391960831375 0.9997614963152162 -4.8322868486959995e-08
  outer loop
    vertex 0.0010311458535733563 -62.74999995074235 -58.689460194469014
    vertex -2.736083963429535 -62.69020943704694 -61.58946013732744
    vertex -2.7360830918441756 -62.69020920648422 -58.68945855288865
  endloop
endfacet
facet normal 0.06542735411217787 0.9978573351606281 -9.899800088464293e-08
  outer loop
    vertex -5.467985915881147 -62.51108451593371 -61.58946013429874
    vertex -2.7360830918441756 -62.69020920648422 -58.68945855288865
    vertex -2.736083963429535 -62.69020943704694 -61.58946013732744
  endloop
endfacet
facet normal 0.06542735411217787 0.9978573351606281 -9.899800088464293e-08
  outer loop
    vertex -2.7360830918441756 -62.69020920648422 -58.68945855288865
    vertex -5.467985915881147 -62.51108451593371 -61.58946013429874
    vertex -5.467985044295697 -62.51108428537108 -58.689458549859935
  endloop
endfacet
facet normal -0.7933533402912498 0.6087614290087018 -2.7614761033883256e-09
  outer loop
    vertex -1.3843633547280705 -49.20110920110425 -58.68946022811029
    vertex -1.1300935515426103 -48.86973835520043 -61.58946018318179
    vertex -1.3843633476993151 -49.20110920509882 -61.58946018334158
  endloop
endfacet
facet normal -0.7933533402912498 0.6087614290087018 -2.7614761033883256e-09
  outer loop
    vertex -1.1300935515426103 -48.86973835520043 -61.58946018318179
    vertex -1.3843633547280705 -49.20110920110425 -58.68946022811029
    vertex -1.130093558571546 -48.86973835120569 -58.6894602279505
  endloop
endfacet
facet normal 0.9238795325112319 0.3826834323650982 -3.0809378604781705e-07
  outer loop
    vertex -21.64975053446426 -57.59509395848212 -61.58944961185967
    vertex -21.375303586683508 -58.25766516721026 -58.68944802593444
    vertex -21.37530445826878 -58.25766539777293 -61.58944961037323
  endloop
endfacet
facet normal 0.9238795325112319 0.3826834323650982 -3.0809378604781705e-07
  outer loop
    vertex -21.375303586683508 -58.25766516721026 -58.68944802593444
    vertex -21.64975053446426 -57.59509395848212 -61.58944961185967
    vertex -21.649749662878854 -57.595093727919355 -58.68944802742087
  endloop
endfacet
facet normal 0.9914448613737625 0.13052619222005143 -3.083527028788036e-07
  outer loop
    vertex -21.74335898015552 -56.88406722213657 -61.58944961346404
    vertex -21.649749662878854 -57.595093727919355 -58.68944802742087
    vertex -21.64975053446426 -57.59509395848212 -61.58944961185967
  endloop
endfacet
facet normal 0.9914448613737625 0.13052619222005143 -3.083527028788036e-07
  outer loop
    vertex -21.649749662878854 -57.595093727919355 -58.68944802742087
    vertex -21.74335898015552 -56.88406722213657 -61.58944961346404
    vertex -21.74335810857007 -56.88406699157372 -58.689448029025236
  endloop
endfacet
facet normal 0.19511413236521763 0.9807805439298589 -1.3661723025713758e-07
  outer loop
    vertex -13.580518517537886 -61.262244710104035 -61.58946012632077
    vertex -10.895367987301983 -61.79642172149503 -58.68945854435137
    vertex -10.895368858887432 -61.79642195205788 -61.589460128790165
  endloop
endfacet
facet normal 0.19511413236521763 0.9807805439298589 -1.3661723025713758e-07
  outer loop
    vertex -10.895367987301983 -61.79642172149503 -58.68945854435137
    vertex -13.580518517537886 -61.262244710104035 -61.58946012632077
    vertex -13.580517645952437 -61.262244479541316 -58.68945854188198
  endloop
endfacet
facet normal 0.38268343236506314 0.9238795325112787 -1.8846664952115096e-07
  outer loop
    vertex -20.36975993293357 -59.263208820960294 -58.68944802370556
    vertex -19.707189365227972 -59.537655127718175 -61.589449607553824
    vertex -20.369760804518883 -59.26320905152296 -61.58944960814436
  endloop
endfacet
facet normal 0.38268343236506314 0.9238795325112787 -1.8846664952115096e-07
  outer loop
    vertex -19.707189365227972 -59.537655127718175 -61.589449607553824
    vertex -20.36975993293357 -59.263208820960294 -58.68944802370556
    vertex -19.707188493642477 -59.53765489715555 -58.68944802311502
  endloop
endfacet
facet normal 0.3474484862068436 0.9376990718948915 -1.7897562328650904e-07
  outer loop
    vertex -19.707189365227972 -59.537655127718175 -61.589449607553824
    vertex -19.206828805085667 -59.72305469284764 -58.68945861772594
    vertex -19.206829676670935 -59.723054923410444 -61.58946020216473
  endloop
endfacet
facet normal 0.3474484862068436 0.9376990718948915 -1.7897562328650904e-07
  outer loop
    vertex -19.206828805085667 -59.72305469284764 -58.68945861772594
    vertex -19.707189365227972 -59.537655127718175 -61.589449607553824
    vertex -19.707188493642477 -59.53765489715555 -58.68944802311502
  endloop
endfacet
facet normal 0.10889100740634228 0.9940536949813221 -1.1175844431597657e-07
  outer loop
    vertex -8.189474383692811 -62.21296619254644 -61.589460131451176
    vertex -5.467985044295697 -62.51108428537108 -58.689458549859935
    vertex -5.467985915881147 -62.51108451593371 -61.58946013429874
  endloop
endfacet
facet normal 0.10889100740634228 0.9940536949813221 -1.1175844431597657e-07
  outer loop
    vertex -5.467985044295697 -62.51108428537108 -58.689458549859935
    vertex -8.189474383692811 -62.21296619254644 -61.589460131451176
    vertex -8.189473512107497 -62.21296596198377 -58.68945854701238
  endloop
endfacet
facet normal -0.9238795325113205 0.38268343236500824 -2.766413792235834e-09
  outer loop
    vertex -1.5442040307355551 -49.58699872894011 -58.68946022796612
    vertex -1.3843633476993151 -49.20110920509882 -61.58946018334158
    vertex -1.5442040237067098 -49.58699873293485 -61.58946018319741
  endloop
endfacet
facet normal -0.9238795325113205 0.38268343236500824 -2.766413792235834e-09
  outer loop
    vertex -1.3843633476993151 -49.20110920509882 -61.58946018334158
    vertex -1.5442040307355551 -49.58699872894011 -58.68946022796612
    vertex -1.3843633547280705 -49.20110920110425 -58.68946022811029
  endloop
endfacet
facet normal 0.6087614290086998 0.7933533402912133 -2.4603619834554674e-07
  outer loop
    vertex -20.938722926533085 -58.82662816080992 -58.689448024667215
    vertex -20.369760804518883 -59.26320905152296 -61.58944960814436
    vertex -20.938723798118627 -58.82662839137268 -61.589449609106005
  endloop
endfacet
facet normal 0.6087614290086998 0.7933533402912133 -2.4603619834554674e-07
  outer loop
    vertex -20.369760804518883 -59.26320905152296 -61.58944960814436
    vertex -20.938722926533085 -58.82662816080992 -58.689448024667215
    vertex -20.36975993293357 -59.263208820960294 -58.68944802370556
  endloop
endfacet
facet normal -0.38268343236504937 0.9238795325113036 -2.200163731081218e-09
  outer loop
    vertex -0.798722708673255 -48.6154685550494 -58.68946022749761
    vertex -0.41283317380819484 -48.45562788303629 -61.5894601820138
    vertex -0.7987227016441389 -48.615468559043684 -61.58946018272891
  endloop
endfacet
facet normal -0.38268343236504937 0.9238795325113036 -2.200163731081218e-09
  outer loop
    vertex -0.41283317380819484 -48.45562788303629 -61.5894601820138
    vertex -0.798722708673255 -48.6154685550494 -58.68946022749761
    vertex -0.41283318083708537 -48.45562787904182 -58.689460226782515
  endloop
endfacet
facet normal 0.7933533402912504 0.6087614290086334 -2.868387868467403e-07
  outer loop
    vertex -21.37530445826878 -58.25766539777293 -61.58944961037323
    vertex -20.938722926533085 -58.82662816080992 -58.689448024667215
    vertex -20.938723798118627 -58.82662839137268 -61.589449609106005
  endloop
endfacet
facet normal 0.7933533402912504 0.6087614290086334 -2.868387868467403e-07
  outer loop
    vertex -20.938722926533085 -58.82662816080992 -58.689448024667215
    vertex -21.37530445826878 -58.25766539777293 -61.58944961037323
    vertex -21.375303586683508 -58.25766516721026 -58.68944802593444
  endloop
endfacet
facet normal -0.9914448613738078 -0.1305261922200717 -2.223224859543277e-09
  outer loop
    vertex -1.5442040307356455 -50.41521967326835 -58.68946022682522
    vertex -1.5987227016441374 -50.00110920509877 -61.589460182759076
    vertex -1.5442040237066195 -50.41521967726287 -61.589460182056484
  endloop
endfacet
facet normal -0.9914448613738078 -0.1305261922200717 -2.223224859543277e-09
  outer loop
    vertex -1.5987227016441374 -50.00110920509877 -61.589460182759076
    vertex -1.5442040307356455 -50.41521967326835 -58.68946022682522
    vertex -1.598722708673028 -50.00110920110425 -58.689460227527796
  endloop
endfacet
facet normal 0.23770947341094628 0.9713362992551389 -1.4866825265503967e-07
  outer loop
    vertex -16.239812024655528 -60.61145130342632 -61.589460124047726
    vertex -13.580517645952437 -61.262244479541316 -58.68945854188198
    vertex -13.580518517537886 -61.262244710104035 -61.58946012632077
  endloop
endfacet
facet normal 0.23770947341094628 0.9713362992551389 -1.4866825265503967e-07
  outer loop
    vertex -13.580517645952437 -61.262244479541316 -58.68945854188198
    vertex -16.239812024655528 -60.61145130342632 -61.589460124047726
    vertex -16.23981115307012 -60.611451072863424 -58.68945853960892
  endloop
endfacet
facet normal 0.9999999999999911 1.9966895803358455e-08 -1.3229299302643956e-07
  outer loop
    vertex -21.743358980155385 -35.250261864618786 -61.589460194549616
    vertex -21.74335810857007 -56.88406699157372 -58.689448029025236
    vertex -21.74335898015552 -56.88406722213657 -61.58944961346404
  endloop
endfacet
facet normal 0.9999999999999911 1.9966895803358455e-08 -1.3229299302643956e-07
  outer loop
    vertex -21.74335810857007 -56.88406699157372 -58.689448029025236
    vertex -21.743358980155385 -35.250261864618786 -61.589460194549616
    vertex -21.743358978147793 -37.500552160140565 -60.38946023239218
  endloop
endfacet
facet normal 0.9999999999999911 1.9966895803358455e-08 -1.3229299302643956e-07
  outer loop
    vertex -21.743358978147793 -37.500552160140565 -60.38946023239218
    vertex -21.743358980155385 -35.250261864618786 -61.589460194549616
    vertex -21.743358978147793 -35.2502618651525 -60.389460200781876
  endloop
endfacet
facet normal 0.9999999999999911 1.9966895803358455e-08 -1.3229299302643956e-07
  outer loop
    vertex -21.743359031516675 -37.500552159603465 -58.68946028369174
    vertex -21.74335810857007 -56.88406699157372 -58.689448029025236
    vertex -21.743358978147793 -37.500552160140565 -60.38946023239218
  endloop
endfacet
facet normal 0.1521473804788469 0.9883578170953118 -1.243061491965905e-07
  outer loop
    vertex -10.895368858887432 -61.79642195205788 -61.589460128790165
    vertex -8.189473512107497 -62.21296596198377 -58.68945854701238
    vertex -8.189474383692811 -62.21296619254644 -61.589460131451176
  endloop
endfacet
facet normal 0.1521473804788469 0.9883578170953118 -1.243061491965905e-07
  outer loop
    vertex -8.189473512107497 -62.21296596198377 -58.68945854701238
    vertex -10.895368858887432 -61.79642195205788 -61.589460128790165
    vertex -10.895367987301983 -61.79642172149503 -58.68945854435137
  endloop
endfacet
facet normal 0.27985232096363216 0.9600430607276127 -1.6043627658429507e-07
  outer loop
    vertex -18.868187263904666 -59.84528055426248 -61.58946012197532
    vertex -16.23981115307012 -60.611451072863424 -58.68945853960892
    vertex -16.239812024655528 -60.61145130342632 -61.589460124047726
  endloop
endfacet
facet normal 0.27985232096363216 0.9600430607276127 -1.6043627658429507e-07
  outer loop
    vertex -16.23981115307012 -60.611451072863424 -58.68945853960892
    vertex -18.868187263904666 -59.84528055426248 -61.58946012197532
    vertex -18.868186392319217 -59.845280323699626 -58.68945853753652
  endloop
endfacet
endsolid print_holder_power_2
