solid print_holder_sensors_2
facet normal -3.3540410394692724e-05 0.00010067170079027016 -0.9999999943701248
  outer loop
    vertex -2.239376227030151 62.17422090133289 -170.96279115830365
    vertex -1.5467734497052077 58.0360799010069 -170.96309336147567
    vertex -1.6013303394100793 57.62197446593911 -170.9631524154872
  endloop
endfacet
facet normal -3.3540410394692724e-05 0.00010067170079027016 -0.9999999943701248
  outer loop
    vertex -1.5467734497052077 58.0360799010069 -170.96309336147567
    vertex -2.239376227030151 62.17422090133289 -170.96279115830365
    vertex -0.0009246779589439647 62.20557885600676 -170.96278215755856
  endloop
endfacet
facet normal -3.3540410394692724e-05 0.00010067170079027016 -0.9999999943701248
  outer loop
    vertex -1.5467734497052077 58.0360799010069 -170.96309336147567
    vertex -0.0009246779589439647 62.20557885600676 -170.96278215755856
    vertex -1.3868971667524823 58.421954674509635 -170.9630446027604
  endloop
endfacet
facet normal -3.3540410394692724e-05 0.00010067170079027016 -0.9999999943701248
  outer loop
    vertex -1.3868971667524823 58.421954674509635 -170.9630446027604
    vertex -0.0009246779589439647 62.20557885600676 -170.96278215755856
    vertex -1.1325967950257474 58.75330205832214 -170.96300946216724
  endloop
endfacet
facet normal -3.3540410394692724e-05 0.00010067170079027016 -0.9999999943701248
  outer loop
    vertex -1.1325967950257474 58.75330205832214 -170.96300946216724
    vertex -0.0009246779589439647 62.20557885600676 -170.96278215755856
    vertex -0.8012024846078816 59.00754127581417 -170.96299033446957
  endloop
endfacet
facet normal -3.3540410394692724e-05 0.00010067170079027016 -0.9999999943701248
  outer loop
    vertex -0.8012024846078816 59.00754127581417 -170.96299033446957
    vertex -0.0009246779589439647 62.20557885600676 -170.96278215755856
    vertex -0.4152982100980431 59.167346344464 -170.96298852318847
  endloop
endfacet
facet normal -3.3540410394692724e-05 0.00010067170079027016 -0.9999999943701248
  outer loop
    vertex -0.4152982100980431 59.167346344464 -170.96298852318847
    vertex -0.0009246779589439647 62.20557885600676 -170.96278215755856
    vertex -0.001190151414071805 59.22182682977778 -170.96316413039327
  endloop
endfacet
facet normal -3.3540410394692724e-05 0.00010067170079027016 -0.9999999943701248
  outer loop
    vertex -0.001190151414071805 59.22182682977778 -170.96316413039327
    vertex -0.0009246779589439647 62.20557885600676 -170.96278215755856
    vertex 0.4129157835302419 59.167273708993115 -170.96319079417918
  endloop
endfacet
facet normal -3.3540410394692724e-05 0.00010067170079027016 -0.9999999943701248
  outer loop
    vertex 0.4129157835302419 59.167273708993115 -170.96319079417918
    vertex -0.0009246779589439647 62.20557885600676 -170.96278215755856
    vertex 2.2375213348396477 62.17382815961551 -170.96277954399685
  endloop
endfacet
facet normal -3.3540410394692724e-05 0.00010067170079027016 -0.9999999943701248
  outer loop
    vertex 0.4129157835302419 59.167273708993115 -170.96319079417918
    vertex 2.2375213348396477 62.17382815961551 -170.96277954399685
    vertex 0.7987920139655752 59.007400937995456 -170.9632213372752
  endloop
endfacet
facet normal -3.3540410394692724e-05 0.00010067170079027016 -0.9999999943701248
  outer loop
    vertex 0.7987920139655752 59.007400937995456 -170.9632213372752
    vertex 2.2375213348396477 62.17382815961551 -170.96277954399685
    vertex 1.130141712478424 58.75310358192628 -170.9632536782197
  endloop
endfacet
facet normal -3.3540410394692724e-05 0.00010067170079027016 -0.9999999943701248
  outer loop
    vertex 1.130141712478424 58.75310358192628 -170.9632536782197
    vertex 2.2375213348396477 62.17382815961551 -170.96277954399685
    vertex 1.3843839446967725 58.42171158535521 -170.96328561302857
  endloop
endfacet
facet normal -3.3540410394692724e-05 0.00010067170079027016 -0.9999999943701248
  outer loop
    vertex 1.3843839446967725 58.42171158535521 -170.96328561302857
    vertex 2.2375213348396477 62.17382815961551 -170.96277954399685
    vertex 1.5441925226492568 58.035808765198034 -170.96331496539958
  endloop
endfacet
facet normal -3.3540410394692724e-05 0.00010067170079027016 -0.9999999943701248
  outer loop
    vertex 1.5441925226492568 58.035808765198034 -170.96331496539958
    vertex 2.2375213348396477 62.17382815961551 -170.96277954399685
    vertex 1.5986767558461141 57.621693760913566 -170.96333973501717
  endloop
endfacet
facet normal -3.3540410394692724e-05 0.00010067170079027016 -0.9999999943701248
  outer loop
    vertex -10.150534404309298 59.012580770079545 -170.96257960698225
    vertex -7.651731425980355 52.998257903064506 -170.9636511227347
    vertex -10.152225582915602 50.498697216699426 -170.96405722010107
  endloop
endfacet
facet normal -3.3540410394692724e-05 0.00010067170079027016 -0.9999999943701248
  outer loop
    vertex -7.651731425980355 52.998257903064506 -170.9636511227347
    vertex -10.150534404309298 59.012580770079545 -170.96257960698225
    vertex -10.054602190044616 59.74014166628707 -170.96235795920654
  endloop
endfacet
facet normal -3.3540410394692724e-05 0.00010067170079027016 -0.9999999943701248
  outer loop
    vertex -7.651731425980355 52.998257903064506 -170.9636511227347
    vertex -10.054602190044616 59.74014166628707 -170.96235795920654
    vertex -9.779959880565988 60.402814514996386 -170.96228567131277
  endloop
endfacet
facet normal -3.3540410394692724e-05 0.00010067170079027016 -0.9999999943701248
  outer loop
    vertex -7.651731425980355 52.998257903064506 -170.9636511227347
    vertex -9.779959880565988 60.402814514996386 -170.96228567131277
    vertex -9.343163425954515 60.97182467456325 -170.96222781781645
  endloop
endfacet
facet normal -3.3540410394692724e-05 0.00010067170079027016 -0.9999999943701248
  outer loop
    vertex -7.651731425980355 52.998257903064506 -170.9636511227347
    vertex -9.343163425954515 60.97182467456325 -170.96222781781645
    vertex -8.773979782751512 61.408395042945834 -170.96218834132839
  endloop
endfacet
facet normal -3.3540410394692724e-05 0.00010067170079027016 -0.9999999943701248
  outer loop
    vertex -7.651731425980355 52.998257903064506 -170.9636511227347
    vertex -8.773979782751512 61.408395042945834 -170.96218834132839
    vertex -8.136113530993494 61.672459459447786 -170.96253172652442
  endloop
endfacet
facet normal -3.3540410394692724e-05 0.00010067170079027016 -0.9999999943701248
  outer loop
    vertex -7.651731425980355 52.998257903064506 -170.9636511227347
    vertex -8.136113530993494 61.672459459447786 -170.96253172652442
    vertex -8.11119787562057 61.682774071005674 -170.96216993211385
  endloop
endfacet
facet normal -3.3540410394692724e-05 0.00010067170079027016 -0.9999999943701248
  outer loop
    vertex -7.651731425980355 52.998257903064506 -170.9636511227347
    vertex -8.11119787562057 61.682774071005674 -170.96216993211385
    vertex -7.650001082621519 61.743398145174524 -170.96339173445293
  endloop
endfacet
facet normal -3.3540410394692724e-05 0.00010067170079027016 -0.9999999943701248
  outer loop
    vertex -7.651731425980355 52.998257903064506 -170.9636511227347
    vertex -7.650001082621519 61.743398145174524 -170.96339173445293
    vertex -1.1328055900590872 56.49056039591516 -170.9633492716037
  endloop
endfacet
facet normal -3.3540410394692724e-05 0.00010067170079027016 -0.9999999943701248
  outer loop
    vertex -7.651731425980355 52.998257903064506 -170.9636511227347
    vertex -1.1328055900590872 56.49056039591516 -170.9633492716037
    vertex -0.801458205253984 56.23626002949743 -170.96340651433405
  endloop
endfacet
facet normal -3.3540410394692724e-05 0.00010067170079027016 -0.9999999943701248
  outer loop
    vertex -7.651731425980355 52.998257903064506 -170.9636511227347
    vertex -0.801458205253984 56.23626002949743 -170.96340651433405
    vertex -0.41558342941772664 56.07638375141515 -170.963452711511
  endloop
endfacet
facet normal -3.3540410394692724e-05 0.00010067170079027016 -0.9999999943701248
  outer loop
    vertex -7.651731425980355 52.998257903064506 -170.9636511227347
    vertex -0.41558342941772664 56.07638375141515 -170.963452711511
    vertex 7.648266508509972 52.99691570741827 -170.9637770616306
  endloop
endfacet
facet normal -3.3540410394692724e-05 0.00010067170079027016 -0.9999999943701248
  outer loop
    vertex -1.1328055900590872 56.49056039591516 -170.9633492716037
    vertex -7.650001082621519 61.743398145174524 -170.96339173445293
    vertex -1.3870448071363177 56.82195470094924 -170.9632848843176
  endloop
endfacet
facet normal -3.3540410394692724e-05 0.00010067170079027016 -0.9999999943701248
  outer loop
    vertex -1.3870448071363177 56.82195470094924 -170.9632848843176
    vertex -7.650001082621519 61.743398145174524 -170.96339173445293
    vertex -4.94938894905089 62.0178395972629 -170.96282286091835
  endloop
endfacet
facet normal -3.3540410394692724e-05 0.00010067170079027016 -0.9999999943701248
  outer loop
    vertex -1.3870448071363177 56.82195470094924 -170.9632848843176
    vertex -4.94938894905089 62.0178395972629 -170.96282286091835
    vertex -1.5468498739917291 57.20785897036448 -170.96321774036232
  endloop
endfacet
facet normal -3.3540410394692724e-05 0.00010067170079027016 -0.9999999943701248
  outer loop
    vertex -1.5468498739917291 57.20785897036448 -170.96321774036232
    vertex -4.94938894905089 62.0178395972629 -170.96282286091835
    vertex -2.239376227030151 62.17422090133289 -170.96279115830365
  endloop
endfacet
facet normal -3.3540410394692724e-05 0.00010067170079027016 -0.9999999943701248
  outer loop
    vertex -1.5468498739917291 57.20785897036448 -170.96321774036232
    vertex -2.239376227030151 62.17422090133289 -170.96279115830365
    vertex -1.6013303394100793 57.62197446593911 -170.9631524154872
  endloop
endfacet
facet normal -3.3540410394692724e-05 0.00010067170079027016 -0.9999999943701248
  outer loop
    vertex 7.648266508509972 52.99691570741827 -170.9637770616306
    vertex -0.41558342941772664 56.07638375141515 -170.963452711511
    vertex -0.0014563173634288883 56.021826848384286 -170.96333130692767
  endloop
endfacet
facet normal -3.3540410394692724e-05 0.00010067170079027016 -0.9999999943701248
  outer loop
    vertex 7.648266508509972 52.99691570741827 -170.9637770616306
    vertex -0.0014563173634288883 56.021826848384286 -170.96333130692767
    vertex 0.412658686965513 56.07631108284013 -170.96335227431135
  endloop
endfacet
facet normal -3.3540410394692724e-05 0.00010067170079027016 -0.9999999943701248
  outer loop
    vertex 7.648266508509972 52.99691570741827 -170.9637770616306
    vertex 0.412658686965513 56.07631108284013 -170.96335227431135
    vertex 0.7985615074917868 56.23611966199861 -170.9633661164009
  endloop
endfacet
facet normal -3.3540410394692724e-05 0.00010067170079027016 -0.9999999943701248
  outer loop
    vertex 7.648266508509972 52.99691570741827 -170.9637770616306
    vertex 0.7985615074917868 56.23611966199861 -170.9633661164009
    vertex 1.1299535047305829 56.49036189528569 -170.9633718898808
  endloop
endfacet
facet normal -3.3540410394692724e-05 0.00010067170079027016 -0.9999999943701248
  outer loop
    vertex 7.648266508509972 52.99691570741827 -170.9637770616306
    vertex 1.1299535047305829 56.49036189528569 -170.9633718898808
    vertex 1.3842508617218892 56.821711594658915 -170.96336920129534
  endloop
endfacet
facet normal -3.3540410394692724e-05 0.00010067170079027016 -0.9999999943701248
  outer loop
    vertex 7.648266508509972 52.99691570741827 -170.9637770616306
    vertex 1.3842508617218892 56.821711594658915 -170.96336920129534
    vertex 1.544123633832822 57.20758782568543 -170.96335823387005
  endloop
endfacet
facet normal -3.3540410394692724e-05 0.00010067170079027016 -0.9999999943701248
  outer loop
    vertex 7.648266508509972 52.99691570741827 -170.9637770616306
    vertex 1.544123633832822 57.20758782568543 -170.96335823387005
    vertex 1.5986767558461141 57.621693760913566 -170.96333973501717
  endloop
endfacet
facet normal -3.3540410394692724e-05 0.00010067170079027016 -0.9999999943701248
  outer loop
    vertex 7.648266508509972 52.99691570741827 -170.9637770616306
    vertex 1.5986767558461141 57.621693760913566 -170.96333973501717
    vertex 2.2375213348396477 62.17382815961551 -170.96277954399685
  endloop
endfacet
facet normal -3.3540410394692724e-05 0.00010067170079027016 -0.9999999943701248
  outer loop
    vertex 7.648266508509972 52.99691570741827 -170.9637770616306
    vertex 2.2375213348396477 62.17382815961551 -170.96277954399685
    vertex 4.9475065777198655 62.01697137732143 -170.9627795439963
  endloop
endfacet
facet normal -3.3540410394692724e-05 0.00010067170079027016 -0.9999999943701248
  outer loop
    vertex 7.648266508509972 52.99691570741827 -170.9637770616306
    vertex 4.9475065777198655 62.01697137732143 -170.9627795439963
    vertex 7.6480705183848 61.742055991864234 -170.9622662704947
  endloop
endfacet
facet normal -3.3540410394692724e-05 0.00010067170079027016 -0.9999999943701248
  outer loop
    vertex 7.648266508509972 52.99691570741827 -170.9637770616306
    vertex 7.6480705183848 61.742055991864234 -170.9622662704947
    vertex 8.109256667686115 61.6813512492411 -170.96350035244095
  endloop
endfacet
facet normal -3.3540410394692724e-05 0.00010067170079027016 -0.9999999943701248
  outer loop
    vertex 7.648266508509972 52.99691570741827 -170.9637770616306
    vertex 8.109256667686115 61.6813512492411 -170.96350035244095
    vertex 10.148322073784644 50.49691631158603 -170.96387696634625
  endloop
endfacet
facet normal -3.3540410394692724e-05 0.00010067170079027016 -0.9999999943701248
  outer loop
    vertex 10.148322073784644 50.49691631158603 -170.96387696634625
    vertex 8.109256667686115 61.6813512492411 -170.96350035244095
    vertex 8.134170512948895 61.67103219331547 -170.9631406463498
  endloop
endfacet
facet normal -3.3540410394692724e-05 0.00010067170079027016 -0.9999999943701248
  outer loop
    vertex 10.148322073784644 50.49691631158603 -170.96387696634625
    vertex 8.134170512948895 61.67103219331547 -170.9631406463498
    vertex 8.771990424239174 61.40685594082333 -170.96353749442494
  endloop
endfacet
facet normal -3.3540410394692724e-05 0.00010067170079027016 -0.9999999943701248
  outer loop
    vertex 10.148322073784644 50.49691631158603 -170.96387696634625
    vertex 8.771990424239174 61.40685594082333 -170.96353749442494
    vertex 9.341097461494014 60.97018571564888 -170.9635863980242
  endloop
endfacet
facet normal -3.3540410394692724e-05 0.00010067170079027016 -0.9999999943701248
  outer loop
    vertex 10.148322073784644 50.49691631158603 -170.96387696634625
    vertex 9.341097461494014 60.97018571564888 -170.9635863980242
    vertex 9.777794075354835 60.40109892793226 -170.96364373054772
  endloop
endfacet
facet normal -3.3540410394692724e-05 0.00010067170079027016 -0.9999999943701248
  outer loop
    vertex 10.148322073784644 50.49691631158603 -170.96387696634625
    vertex 9.777794075354835 60.40109892793226 -170.96364373054772
    vertex 10.052320113263335 59.73837790179659 -170.9637055848686
  endloop
endfacet
facet normal -3.3540410394692724e-05 0.00010067170079027016 -0.9999999943701248
  outer loop
    vertex 10.148322073784644 50.49691631158603 -170.96387696634625
    vertex 10.052320113263335 59.73837790179659 -170.9637055848686
    vertex 10.14812467396185 59.01080015531896 -170.96363121068637
  endloop
endfacet
facet normal -0.014007396746200888 0.999901886491263 0.00010113163794932862
  outer loop
    vertex -2.239271401389555 62.17389852922731 -167.75866631907417
    vertex -0.0009246779589439647 62.20557885600676 -170.96278215755856
    vertex -2.239376227030151 62.17422090133289 -170.96279115830365
  endloop
endfacet
facet normal -0.014007396746200888 0.999901886491263 0.00010113163794932862
  outer loop
    vertex -0.0009246779589439647 62.20557885600676 -170.96278215755856
    vertex -2.239271401389555 62.17389852922731 -167.75866631907417
    vertex -0.0008198523184203055 62.20525648390097 -167.75865731832909
  endloop
endfacet
facet normal 0.7069674980900649 -0.7072460338831488 -6.48138128297817e-05
  outer loop
    vertex -7.651731425980355 52.998257903064506 -170.9636511227347
    vertex -10.152095863577292 50.49868536313888 -169.45726401444645
    vertex -10.152225582915602 50.498697216699426 -170.96405722010107
  endloop
endfacet
facet normal 0.7069674980900649 -0.7072460338831488 -6.48138128297817e-05
  outer loop
    vertex -10.152095863577292 50.49868536313888 -169.45726401444645
    vertex -7.651731425980355 52.998257903064506 -170.9636511227347
    vertex -7.651659892452096 52.99808522538606 -169.45709627399435
  endloop
endfacet
facet normal 0.7933392272718327 0.6087798200245879 3.4677976818996824e-05
  outer loop
    vertex 9.777794075354835 60.40109892793226 -170.96364373054772
    vertex 9.341202287134578 60.96986334354343 -167.75946155879475
    vertex 9.777898900995547 60.40077655582662 -167.75951889131824
  endloop
endfacet
facet normal 0.7933392272718327 0.6087798200245879 3.4677976818996824e-05
  outer loop
    vertex 9.341202287134578 60.96986334354343 -167.75946155879475
    vertex 9.777794075354835 60.40109892793226 -170.96364373054772
    vertex 9.341097461494014 60.97018571564888 -170.9635863980242
  endloop
endfacet
facet normal 0.057784332330738 0.9983290846318951 9.856537723244078e-05
  outer loop
    vertex 2.23762616048011 62.17350578751006 -167.7586547047674
    vertex 4.9475065777198655 62.01697137732143 -170.9627795439963
    vertex 2.2375213348396477 62.17382815961551 -170.96277954399685
  endloop
endfacet
facet normal 0.057784332330738 0.9983290846318951 9.856537723244078e-05
  outer loop
    vertex 4.9475065777198655 62.01697137732143 -170.9627795439963
    vertex 2.23762616048011 62.17350578751006 -167.7586547047674
    vertex 4.947611403360506 62.016649005215925 -167.75865470476685
  endloop
endfacet
facet normal 0.13050200233827552 0.9914480411388766 9.543367036815704e-05
  outer loop
    vertex 7.6480705183848 61.742055991864234 -170.9622662704947
    vertex 8.109361493326672 61.68102887713554 -167.75937551321147
    vertex 8.109256667686115 61.6813512492411 -170.96350035244095
  endloop
endfacet
facet normal 0.13050200233827552 0.9914480411388766 9.543367036815704e-05
  outer loop
    vertex 8.109361493326672 61.68102887713554 -167.75937551321147
    vertex 7.6480705183848 61.742055991864234 -170.9622662704947
    vertex 7.648175344025433 61.741733619758634 -167.75814143126522
  endloop
endfacet
facet normal 0.01418283141895987 0.9998994135690507 0.0001001858771692938
  outer loop
    vertex -0.0008198523184203055 62.20525648390097 -167.75865731832909
    vertex 2.2375213348396477 62.17382815961551 -170.96277954399685
    vertex -0.0009246779589439647 62.20557885600676 -170.96278215755856
  endloop
endfacet
facet normal 0.01418283141895987 0.9998994135690507 0.0001001858771692938
  outer loop
    vertex 2.2375213348396477 62.17382815961551 -170.96277954399685
    vertex -0.0008198523184203055 62.20525648390097 -167.75865731832909
    vertex 2.23762616048011 62.17350578751006 -167.7586547047674
  endloop
endfacet
facet normal 0.6087430368753063 0.7933674505052942 5.9452159647007276e-05
  outer loop
    vertex 8.771990424239174 61.40685594082333 -170.96353749442494
    vertex 9.341202287134578 60.96986334354343 -167.75946155879475
    vertex 9.341097461494014 60.97018571564888 -170.9635863980242
  endloop
endfacet
facet normal 0.6087430368753063 0.7933674505052942 5.9452159647007276e-05
  outer loop
    vertex 9.341202287134578 60.96986334354343 -167.75946155879475
    vertex 8.771990424239174 61.40685594082333 -170.96353749442494
    vertex 8.772095249879849 61.406533568717705 -167.75941265519546
  endloop
endfacet
facet normal -0.9238034997840735 0.3828669337413053 6.952861429434147e-05
  outer loop
    vertex -9.77985505492551 60.40249214289088 -167.75816083208332
    vertex -10.054602190044616 59.74014166628707 -170.96235795920654
    vertex -10.054497364404014 59.7398192941816 -167.7582331199771
  endloop
endfacet
facet normal -0.9238034997840735 0.3828669337413053 6.952861429434147e-05
  outer loop
    vertex -10.054602190044616 59.74014166628707 -170.96235795920654
    vertex -9.77985505492551 60.40249214289088 -167.75816083208332
    vertex -9.779959880565988 60.402814514996386 -170.96228567131277
  endloop
endfacet
facet normal -0.9999999804533974 0.00019508184368299873 3.219128950192858e-05
  outer loop
    vertex -10.150429578668664 59.012258397973945 -167.7584547677528
    vertex -10.151599312981375 52.998465362337 -169.45683733884624
    vertex -10.151624206679225 52.99815484379209 -167.7595057052714
  endloop
endfacet
facet normal -0.9999999804533974 0.00019508184368299873 3.219128950192858e-05
  outer loop
    vertex -10.151599312981375 52.998465362337 -169.45683733884624
    vertex -10.152225582915602 50.498697216699426 -170.96405722010107
    vertex -10.152095863577292 50.49868536313888 -169.45726401444645
  endloop
endfacet
facet normal -0.9999999804533974 0.00019508184368299873 3.219128950192858e-05
  outer loop
    vertex -10.152225582915602 50.498697216699426 -170.96405722010107
    vertex -10.151599312981375 52.998465362337 -169.45683733884624
    vertex -10.150534404309298 59.012580770079545 -170.96257960698225
  endloop
endfacet
facet normal -0.9999999804533974 0.00019508184368299873 3.219128950192858e-05
  outer loop
    vertex -10.150534404309298 59.012580770079545 -170.96257960698225
    vertex -10.151599312981375 52.998465362337 -169.45683733884624
    vertex -10.150429578668664 59.012258397973945 -167.7584547677528
  endloop
endfacet
facet normal 0.3826635567608975 0.9238877615268661 8.017466000674505e-05
  outer loop
    vertex 8.109361493326672 61.68102887713554 -167.75937551321147
    vertex 8.134170512948895 61.67103219331547 -170.9631406463498
    vertex 8.109256667686115 61.6813512492411 -170.96350035244095
  endloop
endfacet
facet normal 0.3826635567608975 0.9238877615268661 8.017466000674505e-05
  outer loop
    vertex 8.134170512948895 61.67103219331547 -170.9631406463498
    vertex 8.109361493326672 61.68102887713554 -167.75937551321147
    vertex 8.134275338589374 61.67070982120996 -167.75901580712036
  endloop
endfacet
facet normal 0.10127581932751906 0.9948583814079136 9.67572533032173e-05
  outer loop
    vertex 4.947611403360506 62.016649005215925 -167.75865470476685
    vertex 7.6480705183848 61.742055991864234 -170.9622662704947
    vertex 4.9475065777198655 62.01697137732143 -170.9627795439963
  endloop
endfacet
facet normal 0.10127581932751906 0.9948583814079136 9.67572533032173e-05
  outer loop
    vertex 7.6480705183848 61.742055991864234 -170.9622662704947
    vertex 4.947611403360506 62.016649005215925 -167.75865470476685
    vertex 7.648175344025433 61.741733619758634 -167.75814143126522
  endloop
endfacet
facet normal 0.3826619542649443 0.9238884252603982 8.017478057430125e-05
  outer loop
    vertex 8.134170512948895 61.67103219331547 -170.9631406463498
    vertex 8.772095249879849 61.406533568717705 -167.75941265519546
    vertex 8.771990424239174 61.40685594082333 -170.96353749442494
  endloop
endfacet
facet normal 0.3826619542649443 0.9238884252603982 8.017478057430125e-05
  outer loop
    vertex 8.772095249879849 61.406533568717705 -167.75941265519546
    vertex 8.134170512948895 61.67103219331547 -170.9631406463498
    vertex 8.134275338589374 61.67070982120996 -167.75901580712036
  endloop
endfacet
facet normal 0.9914418398853408 0.130549139102207 -2.0110762435319844e-05
  outer loop
    vertex 10.14812467396185 59.01080015531896 -170.96363121068637
    vertex 10.052424938904027 59.73805552969126 -167.75958074563914
    vertex 10.14822949960253 59.010477783213446 -167.7595063714569
  endloop
endfacet
facet normal 0.9914418398853408 0.130549139102207 -2.0110762435319844e-05
  outer loop
    vertex 10.052424938904027 59.73805552969126 -167.75958074563914
    vertex 10.14812467396185 59.01080015531896 -170.96363121068637
    vertex 10.052320113263335 59.73837790179659 -170.9637055848686
  endloop
endfacet
facet normal 0.9999999991687895 2.3186604791002867e-05 -3.353807630831675e-05
  outer loop
    vertex 10.148322073784644 50.49691631158603 -170.96387696634625
    vertex 10.148362339203672 52.99640416480642 -169.4576337399721
    vertex 10.148365420005323 50.49678581864005 -169.45794510357572
  endloop
endfacet
facet normal 0.9999999991687895 2.3186604791002867e-05 -3.353807630831675e-05
  outer loop
    vertex 10.148362339203672 52.99640416480642 -169.4576337399721
    vertex 10.148322073784644 50.49691631158603 -170.96387696634625
    vertex 10.14812467396185 59.01080015531896 -170.96363121068637
  endloop
endfacet
facet normal 0.9999999991687895 2.3186604791002867e-05 -3.353807630831675e-05
  outer loop
    vertex 10.148362339203672 52.99640416480642 -169.4576337399721
    vertex 10.14812467396185 59.01080015531896 -170.96363121068637
    vertex 10.14822949960253 59.010477783213446 -167.7595063714569
  endloop
endfacet
facet normal 0.9999999991687895 2.3186604791002867e-05 -3.353807630831675e-05
  outer loop
    vertex 10.14822949960253 59.010477783213446 -167.7595063714569
    vertex 10.148368940460477 52.996374022581925 -167.75967638544748
    vertex 10.148362339203672 52.99640416480642 -169.4576337399721
  endloop
endfacet
facet normal -0.7070988378223002 -0.7071147228681821 -4.7470057205931105e-05
  outer loop
    vertex 10.148365420005323 50.49678581864005 -169.45794510357572
    vertex 7.648266508509972 52.99691570741827 -170.9637770616306
    vertex 10.148322073784644 50.49691631158603 -170.96387696634625
  endloop
endfacet
facet normal -0.7070988378223002 -0.7071147228681821 -4.7470057205931105e-05
  outer loop
    vertex 7.648266508509972 52.99691570741827 -170.9637770616306
    vertex 10.148365420005323 50.49678581864005 -169.45794510357572
    vertex 7.648364732893584 52.996623477537234 -169.45760957692576
  endloop
endfacet
facet normal -0.9914189195062929 0.13072308094148788 4.641271258552532e-05
  outer loop
    vertex -10.054497364404014 59.7398192941816 -167.7582331199771
    vertex -10.150534404309298 59.012580770079545 -170.96257960698225
    vertex -10.150429578668664 59.012258397973945 -167.7584547677528
  endloop
endfacet
facet normal -0.9914189195062929 0.13072308094148788 4.641271258552532e-05
  outer loop
    vertex -10.150534404309298 59.012580770079545 -170.96257960698225
    vertex -10.054497364404014 59.7398192941816 -167.7582331199771
    vertex -10.054602190044616 59.74014166628707 -170.96235795920654
  endloop
endfacet
facet normal 0.923870660362416 0.3827048508506961 7.540547178107355e-06
  outer loop
    vertex 10.052320113263335 59.73837790179659 -170.9637055848686
    vertex 9.777898900995547 60.40077655582662 -167.75951889131824
    vertex 10.052424938904027 59.73805552969126 -167.75958074563914
  endloop
endfacet
facet normal 0.923870660362416 0.3827048508506961 7.540547178107355e-06
  outer loop
    vertex 9.777898900995547 60.40077655582662 -167.75951889131824
    vertex 10.052320113263335 59.73837790179659 -170.9637055848686
    vertex 9.777794075354835 60.40109892793226 -170.96364373054772
  endloop
endfacet
facet normal -0.7932324033774094 0.6089189983114255 8.79062520460667e-05
  outer loop
    vertex -9.343058600314096 60.971502302457715 -167.758102978587
    vertex -9.779959880565988 60.402814514996386 -170.96228567131277
    vertex -9.77985505492551 60.40249214289088 -167.75816083208332
  endloop
endfacet
facet normal -0.7932324033774094 0.6089189983114255 8.79062520460667e-05
  outer loop
    vertex -9.779959880565988 60.402814514996386 -170.96228567131277
    vertex -9.343058600314096 60.971502302457715 -167.758102978587
    vertex -9.343163425954515 60.97182467456325 -170.96222781781645
  endloop
endfacet
facet normal -0.1306086595923978 -0.9914339962563541 -9.542867911784317e-05
  outer loop
    vertex 0.4130206091706922 59.16695133688746 -167.7590659549497
    vertex -0.001190151414071805 59.22182682977778 -170.96316413039327
    vertex 0.4129157835302419 59.167273708993115 -170.96319079417918
  endloop
endfacet
facet normal -0.1306086595923978 -0.9914339962563541 -9.542867911784317e-05
  outer loop
    vertex -0.001190151414071805 59.22182682977778 -170.96316413039327
    vertex 0.4130206091706922 59.16695133688746 -167.7590659549497
    vertex -0.0010853257735537857 59.22150445767225 -167.7590392911638
  endloop
endfacet
facet normal 0.6086882207552878 -0.7934095032552679 -0.0001002895374070363
  outer loop
    vertex -0.8012024846078816 59.00754127581417 -170.96299033446957
    vertex -1.132491969385197 58.7529796862165 -167.75888462293776
    vertex -1.1325967950257474 58.75330205832214 -170.96300946216724
  endloop
endfacet
facet normal 0.6086882207552878 -0.7934095032552679 -0.0001002895374070363
  outer loop
    vertex -1.132491969385197 58.7529796862165 -167.75888462293776
    vertex -0.8012024846078816 59.00754127581417 -170.96299033446957
    vertex -0.8010976589671844 59.0072189037086 -167.7588654952401
  endloop
endfacet
facet normal -0.13032805149526305 0.9914709214793318 0.00010418432086905713
  outer loop
    vertex -8.11119787562057 61.682774071005674 -170.96216993211385
    vertex -7.649896256980822 61.74307577306895 -167.75926689522345
    vertex -7.650001082621519 61.743398145174524 -170.96339173445293
  endloop
endfacet
facet normal -0.13032805149526305 0.9914709214793318 0.00010418432086905713
  outer loop
    vertex -7.649896256980822 61.74307577306895 -167.75926689522345
    vertex -8.11119787562057 61.682774071005674 -170.96216993211385
    vertex -8.11109304998 61.68245169890005 -167.7580450928844
  endloop
endfacet
facet normal -0.130443723569553 0.991455709614125 0.00010418666915357064
  outer loop
    vertex -0.0014563173634288883 56.021826848384286 -170.96333130692767
    vertex 0.412763512606031 56.0759887107346 -167.7592274350819
    vertex 0.412658686965513 56.07631108284013 -170.96335227431135
  endloop
endfacet
facet normal -0.130443723569553 0.991455709614125 0.00010418666915357064
  outer loop
    vertex 0.412763512606031 56.0759887107346 -167.7592274350819
    vertex -0.0014563173634288883 56.021826848384286 -170.96333130692767
    vertex -0.0013514917228657497 56.02150447627883 -167.75920646769822
  endloop
endfacet
facet normal 0.3825981814779374 -0.9239148339141984 -0.00010584457833442709
  outer loop
    vertex -0.4152982100980431 59.167346344464 -170.96298852318847
    vertex -0.8010976589671844 59.0072189037086 -167.7588654952401
    vertex -0.8012024846078816 59.00754127581417 -170.96299033446957
  endloop
endfacet
facet normal 0.3825981814779374 -0.9239148339141984 -0.00010584457833442709
  outer loop
    vertex -0.8010976589671844 59.0072189037086 -167.7588654952401
    vertex -0.4152982100980431 59.167346344464 -170.96298852318847
    vertex -0.4151933844574461 59.16702397235842 -167.75886368395902
  endloop
endfacet
facet normal 0.608834630675444 0.793297163083887 5.944201159904668e-05
  outer loop
    vertex -1.1328055900590872 56.49056039591516 -170.9633492716037
    vertex -0.8013533796133885 56.23593765739185 -167.75928167510457
    vertex -0.801458205253984 56.23626002949743 -170.96340651433405
  endloop
endfacet
facet normal 0.608834630675444 0.793297163083887 5.944201159904668e-05
  outer loop
    vertex -0.8013533796133885 56.23593765739185 -167.75928167510457
    vertex -1.1328055900590872 56.49056039591516 -170.9633492716037
    vertex -1.1327007644183449 56.49023802380965 -167.75922443237425
  endloop
endfacet
facet normal -0.3826065827229679 0.9239113548679834 0.00010584450987413327
  outer loop
    vertex 0.412658686965513 56.07631108284013 -170.96335227431135
    vertex 0.7986663331323048 56.23579728989308 -167.75924127717144
    vertex 0.7985615074917868 56.23611966199861 -170.9633661164009
  endloop
endfacet
facet normal -0.3826065827229679 0.9239113548679834 0.00010584450987413327
  outer loop
    vertex 0.7986663331323048 56.23579728989308 -167.75924127717144
    vertex 0.412658686965513 56.07631108284013 -170.96335227431135
    vertex 0.412763512606031 56.0759887107346 -167.7592274350819
  endloop
endfacet
facet normal -0.6086038295360854 0.7934742394150429 0.0001002932239902385
  outer loop
    vertex -9.343058600314096 60.971502302457715 -167.758102978587
    vertex -8.773979782751512 61.408395042945834 -170.96218834132839
    vertex -9.343163425954515 60.97182467456325 -170.96222781781645
  endloop
endfacet
facet normal -0.6086038295360854 0.7934742394150429 0.0001002932239902385
  outer loop
    vertex -8.773979782751512 61.408395042945834 -170.96218834132839
    vertex -9.343058600314096 60.971502302457715 -167.758102978587
    vertex -8.773874957111063 61.40807267084019 -167.7580635020989
  endloop
endfacet
facet normal -0.38250144048392254 0.9239548889553444 0.00010584536601090771
  outer loop
    vertex -8.136008705352939 61.672137087342236 -167.75840688729497
    vertex -8.11119787562057 61.682774071005674 -170.96216993211385
    vertex -8.136113530993494 61.672459459447786 -170.96253172652442
  endloop
endfacet
facet normal -0.38250144048392254 0.9239548889553444 0.00010584536601090771
  outer loop
    vertex -8.11119787562057 61.682774071005674 -170.96216993211385
    vertex -8.136008705352939 61.672137087342236 -167.75840688729497
    vertex -8.11109304998 61.68245169890005 -167.7580450928844
  endloop
endfacet
facet normal 0.7934095085207933 0.6086882211666613 3.4666398144180524e-05
  outer loop
    vertex -1.1328055900590872 56.49056039591516 -170.9633492716037
    vertex -1.3869399814956818 56.82163232884364 -167.75916004508815
    vertex -1.1327007644183449 56.49023802380965 -167.75922443237425
  endloop
endfacet
facet normal 0.7934095085207933 0.6086882211666613 3.4666398144180524e-05
  outer loop
    vertex -1.3869399814956818 56.82163232884364 -167.75916004508815
    vertex -1.1328055900590872 56.49056039591516 -170.9633492716037
    vertex -1.3870448071363177 56.82195470094924 -170.9632848843176
  endloop
endfacet
facet normal 0.13043701251648346 -0.9914565925500427 -0.00010418653294875623
  outer loop
    vertex -0.0010853257735537857 59.22150445767225 -167.7590392911638
    vertex -0.4152982100980431 59.167346344464 -170.96298852318847
    vertex -0.001190151414071805 59.22182682977778 -170.96316413039327
  endloop
endfacet
facet normal 0.13043701251648346 -0.9914565925500427 -0.00010418653294875623
  outer loop
    vertex -0.4152982100980431 59.167346344464 -170.96298852318847
    vertex -0.0010853257735537857 59.22150445767225 -167.7590392911638
    vertex -0.4151933844574461 59.16702397235842 -167.75886368395902
  endloop
endfacet
facet normal -0.1011012675638131 0.9948761344886308 0.00010354685112308965
  outer loop
    vertex -7.649896256980822 61.74307577306895 -167.75926689522345
    vertex -4.94938894905089 62.0178395972629 -170.96282286091835
    vertex -7.650001082621519 61.743398145174524 -170.96339173445293
  endloop
endfacet
facet normal -0.1011012675638131 0.9948761344886308 0.00010354685112308965
  outer loop
    vertex -4.94938894905089 62.0178395972629 -170.96282286091835
    vertex -7.649896256980822 61.74307577306895 -167.75926689522345
    vertex -4.949284123410193 62.01751722515731 -167.7586980216889
  endloop
endfacet
facet normal 0.9914569006958273 0.13043471032550324 -2.012278732072226e-05
  outer loop
    vertex -1.5468498739917291 57.20785897036448 -170.96321774036232
    vertex -1.6012255137695846 57.621652093833546 -167.75902757625772
    vertex -1.5467450483513105 57.20753659825894 -167.75909290113287
  endloop
endfacet
facet normal 0.9914569006958273 0.13043471032550324 -2.012278732072226e-05
  outer loop
    vertex -1.6012255137695846 57.621652093833546 -167.75902757625772
    vertex -1.5468498739917291 57.20785897036448 -170.96321774036232
    vertex -1.6013303394100793 57.62197446593911 -170.9631524154872
  endloop
endfacet
facet normal 0.991432812462998 -0.1306176719227211 -4.640256685573982e-05
  outer loop
    vertex -1.6013303394100793 57.62197446593911 -170.9631524154872
    vertex -1.5466686240646905 58.03575752890137 -167.75896852224622
    vertex -1.6012255137695846 57.621652093833546 -167.75902757625772
  endloop
endfacet
facet normal 0.991432812462998 -0.1306176719227211 -4.640256685573982e-05
  outer loop
    vertex -1.5466686240646905 58.03575752890137 -167.75896852224622
    vertex -1.6013303394100793 57.62197446593911 -170.9631524154872
    vertex -1.5467734497052077 58.0360799010069 -170.96309336147567
  endloop
endfacet
facet normal 0.923914839435058 0.382598182712641 7.528326930933185e-06
  outer loop
    vertex -1.3870448071363177 56.82195470094924 -170.9632848843176
    vertex -1.5467450483513105 57.20753659825894 -167.75909290113287
    vertex -1.3869399814956818 56.82163232884364 -167.75916004508815
  endloop
endfacet
facet normal 0.923914839435058 0.382598182712641 7.528326930933185e-06
  outer loop
    vertex -1.5467450483513105 57.20753659825894 -167.75909290113287
    vertex -1.3870448071363177 56.82195470094924 -170.9632848843176
    vertex -1.5468498739917291 57.20785897036448 -170.96321774036232
  endloop
endfacet
facet normal -0.38249985071090514 0.9239555470924404 0.00010584537894504915
  outer loop
    vertex -8.773979782751512 61.408395042945834 -170.96218834132839
    vertex -8.136008705352939 61.672137087342236 -167.75840688729497
    vertex -8.136113530993494 61.672459459447786 -170.96253172652442
  endloop
endfacet
facet normal -0.38249985071090514 0.9239555470924404 0.00010584537894504915
  outer loop
    vertex -8.136008705352939 61.672137087342236 -167.75840688729497
    vertex -8.773979782751512 61.408395042945834 -170.96218834132839
    vertex -8.773874957111063 61.40807267084019 -167.7580635020989
  endloop
endfacet
facet normal 0.3827686789501333 0.9238442141335638 8.016675017518324e-05
  outer loop
    vertex -0.801458205253984 56.23626002949743 -170.96340651433405
    vertex -0.41547860377702955 56.07606137930958 -167.75932787228155
    vertex -0.41558342941772664 56.07638375141515 -170.963452711511
  endloop
endfacet
facet normal 0.3827686789501333 0.9238442141335638 8.016675017518324e-05
  outer loop
    vertex -0.41547860377702955 56.07606137930958 -167.75932787228155
    vertex -0.801458205253984 56.23626002949743 -170.96340651433405
    vertex -0.8013533796133885 56.23593765739185 -167.75928167510457
  endloop
endfacet
facet normal 0.13061096144486462 0.9914336930142309 9.542857138486586e-05
  outer loop
    vertex -0.41547860377702955 56.07606137930958 -167.75932787228155
    vertex -0.0014563173634288883 56.021826848384286 -170.96333130692767
    vertex -0.41558342941772664 56.07638375141515 -170.963452711511
  endloop
endfacet
facet normal 0.13061096144486462 0.9914336930142309 9.542857138486586e-05
  outer loop
    vertex -0.0014563173634288883 56.021826848384286 -170.96333130692767
    vertex -0.41547860377702955 56.07606137930958 -167.75932787228155
    vertex -0.0013514917228657497 56.02150447627883 -167.75920646769822
  endloop
endfacet
facet normal 0.7932971638631149 -0.6088346262166275 -8.789993025701649e-05
  outer loop
    vertex -1.3868971667524823 58.421954674509635 -170.9630446027604
    vertex -1.132491969385197 58.7529796862165 -167.75888462293776
    vertex -1.3867923411119931 58.42163230240397 -167.75891976353094
  endloop
endfacet
facet normal 0.7932971638631149 -0.6088346262166275 -8.789993025701649e-05
  outer loop
    vertex -1.132491969385197 58.7529796862165 -167.75888462293776
    vertex -1.3868971667524823 58.421954674509635 -170.9630446027604
    vertex -1.1325967950257474 58.75330205832214 -170.96300946216724
  endloop
endfacet
facet normal 0.9238442164280107 -0.3827686754940541 -6.952008812237352e-05
  outer loop
    vertex -1.5467734497052077 58.0360799010069 -170.96309336147567
    vertex -1.3867923411119931 58.42163230240397 -167.75891976353094
    vertex -1.5466686240646905 58.03575752890137 -167.75896852224622
  endloop
endfacet
facet normal 0.9238442164280107 -0.3827686754940541 -6.952008812237352e-05
  outer loop
    vertex -1.3867923411119931 58.42163230240397 -167.75891976353094
    vertex -1.5467734497052077 58.0360799010069 -170.96309336147567
    vertex -1.3868971667524823 58.421954674509635 -170.9630446027604
  endloop
endfacet
facet normal -0.057609172501036976 0.9983392072589656 0.00010243674182525947
  outer loop
    vertex -4.949284123410193 62.01751722515731 -167.7586980216889
    vertex -2.239376227030151 62.17422090133289 -170.96279115830365
    vertex -4.94938894905089 62.0178395972629 -170.96282286091835
  endloop
endfacet
facet normal -0.057609172501036976 0.9983392072589656 0.00010243674182525947
  outer loop
    vertex -2.239376227030151 62.17422090133289 -170.96279115830365
    vertex -4.949284123410193 62.01751722515731 -167.7586980216889
    vertex -2.239271401389555 62.17389852922731 -167.75866631907417
  endloop
endfacet
facet normal -0.9239113597687 -0.3826065854551669 -7.529289558757659e-06
  outer loop
    vertex 1.3844887703373696 58.42138921324964 -167.75916077379912
    vertex 1.5441925226492568 58.035808765198034 -170.96331496539958
    vertex 1.5442973482899538 58.03548639309244 -167.7591901261701
  endloop
endfacet
facet normal -0.9239113597687 -0.3826065854551669 -7.529289558757659e-06
  outer loop
    vertex 1.5441925226492568 58.035808765198034 -170.96331496539958
    vertex 1.3844887703373696 58.42138921324964 -167.75916077379912
    vertex 1.3843839446967725 58.42171158535521 -170.96328561302857
  endloop
endfacet
facet normal -0.6086954357136531 0.7934039680285436 0.00010028922215901055
  outer loop
    vertex 0.7985615074917868 56.23611966199861 -170.9633661164009
    vertex 1.1300583303712193 56.49003952318009 -167.75924705065134
    vertex 1.1299535047305829 56.49036189528569 -170.9633718898808
  endloop
endfacet
facet normal -0.6086954357136531 0.7934039680285436 0.00010028922215901055
  outer loop
    vertex 1.1300583303712193 56.49003952318009 -167.75924705065134
    vertex 0.7985615074917868 56.23611966199861 -170.9633661164009
    vertex 0.7986663331323048 56.23579728989308 -167.75924127717144
  endloop
endfacet
facet normal -9.419194031617676e-05 -0.9999999914801161 -9.037503213148179e-05
  outer loop
    vertex 10.148368940460477 52.996374022581925 -167.75967638544748
    vertex 7.648364732893584 52.996623477537234 -169.45760957692576
    vertex 10.148362339203672 52.99640416480642 -169.4576337399721
  endloop
endfacet
facet normal -9.419194031617676e-05 -0.9999999914801161 -9.037503213148179e-05
  outer loop
    vertex 7.648364732893584 52.996623477537234 -169.45760957692576
    vertex 10.148368940460477 52.996374022581925 -167.75967638544748
    vertex -7.651659892452096 52.99808522538606 -169.45709627399435
  endloop
endfacet
facet normal -9.419194031617676e-05 -0.9999999914801161 -9.037503213148179e-05
  outer loop
    vertex -7.651659892452096 52.99808522538606 -169.45709627399435
    vertex 10.148368940460477 52.996374022581925 -167.75967638544748
    vertex -10.151599312981375 52.998465362337 -169.45683733884624
  endloop
endfacet
facet normal -9.419194031617676e-05 -0.9999999914801161 -9.037503213148179e-05
  outer loop
    vertex -10.151599312981375 52.998465362337 -169.45683733884624
    vertex 10.148368940460477 52.996374022581925 -167.75967638544748
    vertex -10.151624206679225 52.99815484379209 -167.7595057052714
  endloop
endfacet
facet normal -9.419194031617676e-05 -0.9999999914801161 -9.037503213148179e-05
  outer loop
    vertex 7.648364732893584 52.996623477537234 -169.45760957692576
    vertex -7.651731425980355 52.998257903064506 -170.9636511227347
    vertex 7.648266508509972 52.99691570741827 -170.9637770616306
  endloop
endfacet
facet normal -9.419194031617676e-05 -0.9999999914801161 -9.037503213148179e-05
  outer loop
    vertex -7.651731425980355 52.998257903064506 -170.9636511227347
    vertex 7.648364732893584 52.996623477537234 -169.45760957692576
    vertex -7.651659892452096 52.99808522538606 -169.45709627399435
  endloop
endfacet
facet normal -0.923847697582932 0.38276027332754126 6.951935902134097e-05
  outer loop
    vertex 1.5442284594733018 57.20726545357992 -167.75923339464057
    vertex 1.3842508617218892 56.821711594658915 -170.96336920129534
    vertex 1.3843556873624863 56.82138922255334 -167.75924436206589
  endloop
endfacet
facet normal -0.923847697582932 0.38276027332754126 6.951935902134097e-05
  outer loop
    vertex 1.3842508617218892 56.821711594658915 -170.96336920129534
    vertex 1.5442284594733018 57.20726545357992 -167.75923339464057
    vertex 1.544123633832822 57.20758782568543 -170.96335823387005
  endloop
endfacet
facet normal -0.9914340003980673 0.13060865477282801 4.640169892774864e-05
  outer loop
    vertex 1.5987815814866815 57.62137138880785 -167.7592148957877
    vertex 1.544123633832822 57.20758782568543 -170.96335823387005
    vertex 1.5442284594733018 57.20726545357992 -167.75923339464057
  endloop
endfacet
facet normal -0.9914340003980673 0.13060865477282801 4.640169892774864e-05
  outer loop
    vertex 1.544123633832822 57.20758782568543 -170.96335823387005
    vertex 1.5987815814866815 57.62137138880785 -167.7592148957877
    vertex 1.5986767558461141 57.621693760913566 -170.96333973501717
  endloop
endfacet
facet normal -0.793403972954632 -0.6086954365674044 -3.4667310196011176e-05
  outer loop
    vertex 1.1302465381190592 58.75278120982068 -167.75912883899025
    vertex 1.3843839446967725 58.42171158535521 -170.96328561302857
    vertex 1.3844887703373696 58.42138921324964 -167.75916077379912
  endloop
endfacet
facet normal -0.793403972954632 -0.6086954365674044 -3.4667310196011176e-05
  outer loop
    vertex 1.3843839446967725 58.42171158535521 -170.96328561302857
    vertex 1.1302465381190592 58.75278120982068 -167.75912883899025
    vertex 1.130141712478424 58.75310358192628 -170.9632536782197
  endloop
endfacet
facet normal 0.00010355060984194724 -0.00017070582617049264 0.999999980068396
  outer loop
    vertex -7.651659892452096 52.99808522538606 -169.45709627399435
    vertex -10.151599312981375 52.998465362337 -169.45683733884624
    vertex -10.152095863577292 50.49868536313888 -169.45726401444645
  endloop
endfacet
facet normal 4.234715006298643e-05 -0.00010131367866649034 0.9999999939711288
  outer loop
    vertex -10.151624206679225 52.99815484379209 -167.7595057052714
    vertex -0.41547860377702955 56.07606137930958 -167.75932787228155
    vertex -10.150429578668664 59.012258397973945 -167.7584547677528
  endloop
endfacet
facet normal 4.234715006298643e-05 -0.00010131367866649034 0.9999999939711288
  outer loop
    vertex -0.41547860377702955 56.07606137930958 -167.75932787228155
    vertex -10.151624206679225 52.99815484379209 -167.7595057052714
    vertex 10.148368940460477 52.996374022581925 -167.75967638544748
  endloop
endfacet
facet normal 4.234715006298643e-05 -0.00010131367866649034 0.9999999939711288
  outer loop
    vertex -10.150429578668664 59.012258397973945 -167.7584547677528
    vertex -0.41547860377702955 56.07606137930958 -167.75932787228155
    vertex -10.054497364404014 59.7398192941816 -167.7582331199771
  endloop
endfacet
facet normal 4.234715006298643e-05 -0.00010131367866649034 0.9999999939711288
  outer loop
    vertex -10.054497364404014 59.7398192941816 -167.7582331199771
    vertex -0.41547860377702955 56.07606137930958 -167.75932787228155
    vertex -0.8013533796133885 56.23593765739185 -167.75928167510457
  endloop
endfacet
facet normal 4.234715006298643e-05 -0.00010131367866649034 0.9999999939711288
  outer loop
    vertex -10.054497364404014 59.7398192941816 -167.7582331199771
    vertex -0.8013533796133885 56.23593765739185 -167.75928167510457
    vertex -9.77985505492551 60.40249214289088 -167.75816083208332
  endloop
endfacet
facet normal 4.234715006298643e-05 -0.00010131367866649034 0.9999999939711288
  outer loop
    vertex -9.77985505492551 60.40249214289088 -167.75816083208332
    vertex -0.8013533796133885 56.23593765739185 -167.75928167510457
    vertex -9.343058600314096 60.971502302457715 -167.758102978587
  endloop
endfacet
facet normal 4.234715006298643e-05 -0.00010131367866649034 0.9999999939711288
  outer loop
    vertex -9.343058600314096 60.971502302457715 -167.758102978587
    vertex -0.8013533796133885 56.23593765739185 -167.75928167510457
    vertex -8.773874957111063 61.40807267084019 -167.7580635020989
  endloop
endfacet
facet normal 4.234715006298643e-05 -0.00010131367866649034 0.9999999939711288
  outer loop
    vertex -8.773874957111063 61.40807267084019 -167.7580635020989
    vertex -0.8013533796133885 56.23593765739185 -167.75928167510457
    vertex -8.136008705352939 61.672137087342236 -167.75840688729497
  endloop
endfacet
facet normal 4.234715006298643e-05 -0.00010131367866649034 0.9999999939711288
  outer loop
    vertex -8.136008705352939 61.672137087342236 -167.75840688729497
    vertex -0.8013533796133885 56.23593765739185 -167.75928167510457
    vertex -8.11109304998 61.68245169890005 -167.7580450928844
  endloop
endfacet
facet normal 4.234715006298643e-05 -0.00010131367866649034 0.9999999939711288
  outer loop
    vertex -8.11109304998 61.68245169890005 -167.7580450928844
    vertex -0.8013533796133885 56.23593765739185 -167.75928167510457
    vertex -1.1327007644183449 56.49023802380965 -167.75922443237425
  endloop
endfacet
facet normal 4.234715006298643e-05 -0.00010131367866649034 0.9999999939711288
  outer loop
    vertex -8.11109304998 61.68245169890005 -167.7580450928844
    vertex -1.1327007644183449 56.49023802380965 -167.75922443237425
    vertex -7.649896256980822 61.74307577306895 -167.75926689522345
  endloop
endfacet
facet normal 4.234715006298643e-05 -0.00010131367866649034 0.9999999939711288
  outer loop
    vertex -7.649896256980822 61.74307577306895 -167.75926689522345
    vertex -1.1327007644183449 56.49023802380965 -167.75922443237425
    vertex -1.3869399814956818 56.82163232884364 -167.75916004508815
  endloop
endfacet
facet normal 4.234715006298643e-05 -0.00010131367866649034 0.9999999939711288
  outer loop
    vertex -7.649896256980822 61.74307577306895 -167.75926689522345
    vertex -1.3869399814956818 56.82163232884364 -167.75916004508815
    vertex -4.949284123410193 62.01751722515731 -167.7586980216889
  endloop
endfacet
facet normal 4.234715006298643e-05 -0.00010131367866649034 0.9999999939711288
  outer loop
    vertex -4.949284123410193 62.01751722515731 -167.7586980216889
    vertex -1.3869399814956818 56.82163232884364 -167.75916004508815
    vertex -1.5467450483513105 57.20753659825894 -167.75909290113287
  endloop
endfacet
facet normal 4.234715006298643e-05 -0.00010131367866649034 0.9999999939711288
  outer loop
    vertex -4.949284123410193 62.01751722515731 -167.7586980216889
    vertex -1.5467450483513105 57.20753659825894 -167.75909290113287
    vertex -2.239271401389555 62.17389852922731 -167.75866631907417
  endloop
endfacet
facet normal 4.234715006298643e-05 -0.00010131367866649034 0.9999999939711288
  outer loop
    vertex -2.239271401389555 62.17389852922731 -167.75866631907417
    vertex -1.5467450483513105 57.20753659825894 -167.75909290113287
    vertex -1.6012255137695846 57.621652093833546 -167.75902757625772
  endloop
endfacet
facet normal 4.234715006298643e-05 -0.00010131367866649034 0.9999999939711288
  outer loop
    vertex -0.41547860377702955 56.07606137930958 -167.75932787228155
    vertex 10.148368940460477 52.996374022581925 -167.75967638544748
    vertex -0.0013514917228657497 56.02150447627883 -167.75920646769822
  endloop
endfacet
facet normal 4.234715006298643e-05 -0.00010131367866649034 0.9999999939711288
  outer loop
    vertex -0.0013514917228657497 56.02150447627883 -167.75920646769822
    vertex 10.148368940460477 52.996374022581925 -167.75967638544748
    vertex 0.412763512606031 56.0759887107346 -167.7592274350819
  endloop
endfacet
facet normal 4.234715006298643e-05 -0.00010131367866649034 0.9999999939711288
  outer loop
    vertex 0.412763512606031 56.0759887107346 -167.7592274350819
    vertex 10.148368940460477 52.996374022581925 -167.75967638544748
    vertex 0.7986663331323048 56.23579728989308 -167.75924127717144
  endloop
endfacet
facet normal 4.234715006298643e-05 -0.00010131367866649034 0.9999999939711288
  outer loop
    vertex 0.7986663331323048 56.23579728989308 -167.75924127717144
    vertex 10.148368940460477 52.996374022581925 -167.75967638544748
    vertex 1.1300583303712193 56.49003952318009 -167.75924705065134
  endloop
endfacet
facet normal 4.234715006298643e-05 -0.00010131367866649034 0.9999999939711288
  outer loop
    vertex 1.1300583303712193 56.49003952318009 -167.75924705065134
    vertex 10.148368940460477 52.996374022581925 -167.75967638544748
    vertex 1.3843556873624863 56.82138922255334 -167.75924436206589
  endloop
endfacet
facet normal 4.234715006298643e-05 -0.00010131367866649034 0.9999999939711288
  outer loop
    vertex 1.3843556873624863 56.82138922255334 -167.75924436206589
    vertex 10.148368940460477 52.996374022581925 -167.75967638544748
    vertex 1.5442284594733018 57.20726545357992 -167.75923339464057
  endloop
endfacet
facet normal 4.234715006298643e-05 -0.00010131367866649034 0.9999999939711288
  outer loop
    vertex 1.5442284594733018 57.20726545357992 -167.75923339464057
    vertex 10.148368940460477 52.996374022581925 -167.75967638544748
    vertex 1.5987815814866815 57.62137138880785 -167.7592148957877
  endloop
endfacet
facet normal 4.234715006298643e-05 -0.00010131367866649034 0.9999999939711288
  outer loop
    vertex 1.5987815814866815 57.62137138880785 -167.7592148957877
    vertex 10.148368940460477 52.996374022581925 -167.75967638544748
    vertex 2.23762616048011 62.17350578751006 -167.7586547047674
  endloop
endfacet
facet normal 4.234715006298643e-05 -0.00010131367866649034 0.9999999939711288
  outer loop
    vertex 2.23762616048011 62.17350578751006 -167.7586547047674
    vertex 10.148368940460477 52.996374022581925 -167.75967638544748
    vertex 4.947611403360506 62.016649005215925 -167.75865470476685
  endloop
endfacet
facet normal 4.234715006298643e-05 -0.00010131367866649034 0.9999999939711288
  outer loop
    vertex 4.947611403360506 62.016649005215925 -167.75865470476685
    vertex 10.148368940460477 52.996374022581925 -167.75967638544748
    vertex 7.648175344025433 61.741733619758634 -167.75814143126522
  endloop
endfacet
facet normal 4.234715006298643e-05 -0.00010131367866649034 0.9999999939711288
  outer loop
    vertex 7.648175344025433 61.741733619758634 -167.75814143126522
    vertex 10.148368940460477 52.996374022581925 -167.75967638544748
    vertex 8.109361493326672 61.68102887713554 -167.75937551321147
  endloop
endfacet
facet normal 4.234715006298643e-05 -0.00010131367866649034 0.9999999939711288
  outer loop
    vertex 8.109361493326672 61.68102887713554 -167.75937551321147
    vertex 10.148368940460477 52.996374022581925 -167.75967638544748
    vertex 8.134275338589374 61.67070982120996 -167.75901580712036
  endloop
endfacet
facet normal 4.234715006298643e-05 -0.00010131367866649034 0.9999999939711288
  outer loop
    vertex 8.134275338589374 61.67070982120996 -167.75901580712036
    vertex 10.148368940460477 52.996374022581925 -167.75967638544748
    vertex 8.772095249879849 61.406533568717705 -167.75941265519546
  endloop
endfacet
facet normal 4.234715006298643e-05 -0.00010131367866649034 0.9999999939711288
  outer loop
    vertex 8.772095249879849 61.406533568717705 -167.75941265519546
    vertex 10.148368940460477 52.996374022581925 -167.75967638544748
    vertex 9.341202287134578 60.96986334354343 -167.75946155879475
  endloop
endfacet
facet normal 4.234715006298643e-05 -0.00010131367866649034 0.9999999939711288
  outer loop
    vertex 9.341202287134578 60.96986334354343 -167.75946155879475
    vertex 10.148368940460477 52.996374022581925 -167.75967638544748
    vertex 9.777898900995547 60.40077655582662 -167.75951889131824
  endloop
endfacet
facet normal 4.234715006298643e-05 -0.00010131367866649034 0.9999999939711288
  outer loop
    vertex 9.777898900995547 60.40077655582662 -167.75951889131824
    vertex 10.148368940460477 52.996374022581925 -167.75967638544748
    vertex 10.052424938904027 59.73805552969126 -167.75958074563914
  endloop
endfacet
facet normal 4.234715006298643e-05 -0.00010131367866649034 0.9999999939711288
  outer loop
    vertex 10.052424938904027 59.73805552969126 -167.75958074563914
    vertex 10.148368940460477 52.996374022581925 -167.75967638544748
    vertex 10.14822949960253 59.010477783213446 -167.7595063714569
  endloop
endfacet
facet normal 4.234715006298643e-05 -0.00010131367866649034 0.9999999939711288
  outer loop
    vertex -2.239271401389555 62.17389852922731 -167.75866631907417
    vertex -1.5466686240646905 58.03575752890137 -167.75896852224622
    vertex -0.0008198523184203055 62.20525648390097 -167.75865731832909
  endloop
endfacet
facet normal 4.234715006298643e-05 -0.00010131367866649034 0.9999999939711288
  outer loop
    vertex -1.5466686240646905 58.03575752890137 -167.75896852224622
    vertex -2.239271401389555 62.17389852922731 -167.75866631907417
    vertex -1.6012255137695846 57.621652093833546 -167.75902757625772
  endloop
endfacet
facet normal 4.234715006298643e-05 -0.00010131367866649034 0.9999999939711288
  outer loop
    vertex -0.0008198523184203055 62.20525648390097 -167.75865731832909
    vertex -1.5466686240646905 58.03575752890137 -167.75896852224622
    vertex -1.3867923411119931 58.42163230240397 -167.75891976353094
  endloop
endfacet
facet normal 4.234715006298643e-05 -0.00010131367866649034 0.9999999939711288
  outer loop
    vertex -0.0008198523184203055 62.20525648390097 -167.75865731832909
    vertex -1.3867923411119931 58.42163230240397 -167.75891976353094
    vertex -1.132491969385197 58.7529796862165 -167.75888462293776
  endloop
endfacet
facet normal 4.234715006298643e-05 -0.00010131367866649034 0.9999999939711288
  outer loop
    vertex -0.0008198523184203055 62.20525648390097 -167.75865731832909
    vertex -1.132491969385197 58.7529796862165 -167.75888462293776
    vertex -0.8010976589671844 59.0072189037086 -167.7588654952401
  endloop
endfacet
facet normal 4.234715006298643e-05 -0.00010131367866649034 0.9999999939711288
  outer loop
    vertex -0.0008198523184203055 62.20525648390097 -167.75865731832909
    vertex -0.8010976589671844 59.0072189037086 -167.7588654952401
    vertex -0.4151933844574461 59.16702397235842 -167.75886368395902
  endloop
endfacet
facet normal 4.234715006298643e-05 -0.00010131367866649034 0.9999999939711288
  outer loop
    vertex -0.0008198523184203055 62.20525648390097 -167.75865731832909
    vertex -0.4151933844574461 59.16702397235842 -167.75886368395902
    vertex -0.0010853257735537857 59.22150445767225 -167.7590392911638
  endloop
endfacet
facet normal 4.234715006298643e-05 -0.00010131367866649034 0.9999999939711288
  outer loop
    vertex -0.0008198523184203055 62.20525648390097 -167.75865731832909
    vertex -0.0010853257735537857 59.22150445767225 -167.7590392911638
    vertex 0.4130206091706922 59.16695133688746 -167.7590659549497
  endloop
endfacet
facet normal 4.234715006298643e-05 -0.00010131367866649034 0.9999999939711288
  outer loop
    vertex -0.0008198523184203055 62.20525648390097 -167.75865731832909
    vertex 0.4130206091706922 59.16695133688746 -167.7590659549497
    vertex 2.23762616048011 62.17350578751006 -167.7586547047674
  endloop
endfacet
facet normal 4.234715006298643e-05 -0.00010131367866649034 0.9999999939711288
  outer loop
    vertex 2.23762616048011 62.17350578751006 -167.7586547047674
    vertex 0.4130206091706922 59.16695133688746 -167.7590659549497
    vertex 0.7988968396061158 59.007078565889955 -167.75909649804575
  endloop
endfacet
facet normal 4.234715006298643e-05 -0.00010131367866649034 0.9999999939711288
  outer loop
    vertex 2.23762616048011 62.17350578751006 -167.7586547047674
    vertex 0.7988968396061158 59.007078565889955 -167.75909649804575
    vertex 1.1302465381190592 58.75278120982068 -167.75912883899025
  endloop
endfacet
facet normal 4.234715006298643e-05 -0.00010131367866649034 0.9999999939711288
  outer loop
    vertex 2.23762616048011 62.17350578751006 -167.7586547047674
    vertex 1.1302465381190592 58.75278120982068 -167.75912883899025
    vertex 1.3844887703373696 58.42138921324964 -167.75916077379912
  endloop
endfacet
facet normal 4.234715006298643e-05 -0.00010131367866649034 0.9999999939711288
  outer loop
    vertex 2.23762616048011 62.17350578751006 -167.7586547047674
    vertex 1.3844887703373696 58.42138921324964 -167.75916077379912
    vertex 1.5442973482899538 58.03548639309244 -167.7591901261701
  endloop
endfacet
facet normal 4.234715006298643e-05 -0.00010131367866649034 0.9999999939711288
  outer loop
    vertex 2.23762616048011 62.17350578751006 -167.7586547047674
    vertex 1.5442973482899538 58.03548639309244 -167.7591901261701
    vertex 1.5987815814866815 57.62137138880785 -167.7592148957877
  endloop
endfacet
facet normal -0.9914557143446447 -0.13044372767006487 2.0121839738597806e-05
  outer loop
    vertex 1.5442973482899538 58.03548639309244 -167.7591901261701
    vertex 1.5986767558461141 57.621693760913566 -170.96333973501717
    vertex 1.5987815814866815 57.62137138880785 -167.7592148957877
  endloop
endfacet
facet normal -0.9914557143446447 -0.13044372767006487 2.0121839738597806e-05
  outer loop
    vertex 1.5986767558461141 57.621693760913566 -170.96333973501717
    vertex 1.5442973482899538 58.03548639309244 -167.7591901261701
    vertex 1.5441925226492568 58.035808765198034 -170.96331496539958
  endloop
endfacet
facet normal -0.38276027835027004 -0.9238476946393355 -8.016738232318943e-05
  outer loop
    vertex 0.7988968396061158 59.007078565889955 -167.75909649804575
    vertex 0.4129157835302419 59.167273708993115 -170.96319079417918
    vertex 0.7987920139655752 59.007400937995456 -170.9632213372752
  endloop
endfacet
facet normal -0.38276027835027004 -0.9238476946393355 -8.016738232318943e-05
  outer loop
    vertex 0.4129157835302419 59.167273708993115 -170.96319079417918
    vertex 0.7988968396061158 59.007078565889955 -167.75909649804575
    vertex 0.4130206091706922 59.16695133688746 -167.7590659549497
  endloop
endfacet
facet normal -0.7933027007263653 0.6088274117465082 8.789938967270195e-05
  outer loop
    vertex 1.3843556873624863 56.82138922255334 -167.75924436206589
    vertex 1.1299535047305829 56.49036189528569 -170.9633718898808
    vertex 1.1300583303712193 56.49003952318009 -167.75924705065134
  endloop
endfacet
facet normal -0.7933027007263653 0.6088274117465082 8.789938967270195e-05
  outer loop
    vertex 1.1299535047305829 56.49036189528569 -170.9633718898808
    vertex 1.3843556873624863 56.82138922255334 -167.75924436206589
    vertex 1.3842508617218892 56.821711594658915 -170.96336920129534
  endloop
endfacet
facet normal -0.6088274167287424 -0.7933026995453618 -5.944281092277717e-05
  outer loop
    vertex 1.1302465381190592 58.75278120982068 -167.75912883899025
    vertex 0.7987920139655752 59.007400937995456 -170.9632213372752
    vertex 1.130141712478424 58.75310358192628 -170.9632536782197
  endloop
endfacet
facet normal -0.6088274167287424 -0.7933026995453618 -5.944281092277717e-05
  outer loop
    vertex 0.7987920139655752 59.007400937995456 -170.9632213372752
    vertex 1.1302465381190592 58.75278120982068 -167.75912883899025
    vertex 0.7988968396061158 59.007078565889955 -167.75909649804575
  endloop
endfacet
facet normal 9.662569663428198e-06 -3.0299109132869634e-05 0.9999999994942994
  outer loop
    vertex 10.148365420005323 50.49678581864005 -169.45794510357572
    vertex 10.148362339203672 52.99640416480642 -169.4576337399721
    vertex 7.648364732893584 52.996623477537234 -169.45760957692576
  endloop
endfacet
endsolid print_holder_sensors_2
