solid print_holder_nano_2
facet normal 6.07346136315851e-05 -2.69994211758989e-06 -0.9999999981520085
  outer loop
    vertex -57.34521719212936 -23.931452312844115 -115.96621950093892
    vertex -57.34521336561567 -25.35384039115564 -115.96624190187039
    vertex -57.438845750408454 -24.642646603885094 -115.96623068759476
  endloop
endfacet
facet normal 6.07346136315851e-05 -2.69994211758989e-06 -0.9999999981520085
  outer loop
    vertex -57.34521336561567 -25.35384039115564 -115.96624190187039
    vertex -57.34521719212936 -23.931452312844115 -115.96621950093892
    vertex -57.07070832229756 -23.2687242336623 -115.96620910425519
  endloop
endfacet
facet normal 6.07346136315851e-05 -2.69994211758989e-06 -0.9999999981520085
  outer loop
    vertex -57.34521336561567 -25.35384039115564 -115.96624190187039
    vertex -57.07070832229756 -23.2687242336623 -115.96620910425519
    vertex -56.824077330934585 -26.618555875991866 -115.97172451794461
  endloop
endfacet
facet normal 6.07346136315851e-05 -2.69994211758989e-06 -0.9999999981520085
  outer loop
    vertex -56.824077330934585 -26.618555875991866 -115.97172451794461
    vertex -57.07070832229756 -23.2687242336623 -115.96620910425519
    vertex -56.63402646674381 -22.699626189727194 -115.96620020606032
  endloop
endfacet
facet normal 6.07346136315851e-05 -2.69994211758989e-06 -0.9999999981520085
  outer loop
    vertex -56.824077330934585 -26.618555875991866 -115.97172451794461
    vertex -56.63402646674381 -22.699626189727194 -115.96620020606032
    vertex -55.61057703208281 -29.068831685059468 -115.96506926501648
  endloop
endfacet
facet normal 6.07346136315851e-05 -2.69994211758989e-06 -0.9999999981520085
  outer loop
    vertex -55.61057703208281 -29.068831685059468 -115.96506926501648
    vertex -56.63402646674381 -22.699626189727194 -115.96620020606032
    vertex -56.05181866870652 -22.25287994484709 -115.96607055141621
  endloop
endfacet
facet normal 6.07346136315851e-05 -2.69994211758989e-06 -0.9999999981520085
  outer loop
    vertex -55.61057703208281 -29.068831685059468 -115.96506926501648
    vertex -56.05181866870652 -22.25287994484709 -115.96607055141621
    vertex -30.70026838398338 -7.616005758471398 -115.96432075532792
  endloop
endfacet
facet normal 6.07346136315851e-05 -2.69994211758989e-06 -0.9999999981520085
  outer loop
    vertex -55.61057703208281 -29.068831685059468 -115.96506926501648
    vertex -30.70026838398338 -7.616005758471398 -115.96432075532792
    vertex -54.28968330617098 -31.466872461166798 -115.96506926501766
  endloop
endfacet
facet normal 6.07346136315851e-05 -2.69994211758989e-06 -0.9999999981520085
  outer loop
    vertex -54.28968330617098 -31.466872461166798 -115.96506926501766
    vertex -30.70026838398338 -7.616005758471398 -115.96432075532792
    vertex -52.865445708869906 -33.8050142587187 -115.96506926501878
  endloop
endfacet
facet normal 6.07346136315851e-05 -2.69994211758989e-06 -0.9999999981520085
  outer loop
    vertex -52.865445708869906 -33.8050142587187 -115.96506926501878
    vertex -30.70026838398338 -7.616005758471398 -115.96432075532792
    vertex -51.33882821350176 -36.08140983068638 -115.96594139099872
  endloop
endfacet
facet normal 6.07346136315851e-05 -2.69994211758989e-06 -0.9999999981520085
  outer loop
    vertex -51.33882821350176 -36.08140983068638 -115.96594139099872
    vertex -30.70026838398338 -7.616005758471398 -115.96432075532792
    vertex -50.84597439920884 -36.75457781815637 -115.96566836850035
  endloop
endfacet
facet normal 6.07346136315851e-05 -2.69994211758989e-06 -0.9999999981520085
  outer loop
    vertex -50.84597439920884 -36.75457781815637 -115.96566836850035
    vertex -30.70026838398338 -7.616005758471398 -115.96432075532792
    vertex -50.4212921864356 -37.19670664384048 -115.9653835372839
  endloop
endfacet
facet normal 6.07346136315851e-05 -2.69994211758989e-06 -0.9999999981520085
  outer loop
    vertex -50.4212921864356 -37.19670664384048 -115.9653835372839
    vertex -30.70026838398338 -7.616005758471398 -115.96432075532792
    vertex -49.80327581451342 -37.570298913017794 -115.96630366235536
  endloop
endfacet
facet normal 6.07346136315851e-05 -2.69994211758989e-06 -0.9999999981520085
  outer loop
    vertex -49.80327581451342 -37.570298913017794 -115.96630366235536
    vertex -30.70026838398338 -7.616005758471398 -115.96432075532792
    vertex -49.109624618577 -37.7712070867755 -115.96630919864292
  endloop
endfacet
facet normal 6.07346136315851e-05 -2.69994211758989e-06 -0.9999999981520085
  outer loop
    vertex -49.109624618577 -37.7712070867755 -115.96630919864292
    vertex -30.70026838398338 -7.616005758471398 -115.96432075532792
    vertex -38.48167099940539 -20.72604717216936 -115.96535620164755
  endloop
endfacet
facet normal 6.07346136315851e-05 -2.69994211758989e-06 -0.9999999981520085
  outer loop
    vertex -49.109624618577 -37.7712070867755 -115.96630919864292
    vertex -38.48167099940539 -20.72604717216936 -115.96535620164755
    vertex -48.38761015228231 -37.78573934038756 -115.96631106241308
  endloop
endfacet
facet normal 6.07346136315851e-05 -2.69994211758989e-06 -0.9999999981520085
  outer loop
    vertex -48.38761015228231 -37.78573934038756 -115.96631106241308
    vertex -38.48167099940539 -20.72604717216936 -115.96535620164755
    vertex -47.6888568627837 -37.61350192434976 -115.96627909183046
  endloop
endfacet
facet normal 6.07346136315851e-05 -2.69994211758989e-06 -0.9999999981520085
  outer loop
    vertex -47.6888568627837 -37.61350192434976 -115.96627909183046
    vertex -38.48167099940539 -20.72604717216936 -115.96535620164755
    vertex -38.64151167538739 -21.11193669967662 -115.96536486762986
  endloop
endfacet
facet normal 6.07346136315851e-05 -2.69994211758989e-06 -0.9999999981520085
  outer loop
    vertex -47.6888568627837 -37.61350192434976 -115.96627909183046
    vertex -38.64151167538739 -21.11193669967662 -115.96536486762986
    vertex -38.69603035357608 -21.526047171576494 -115.96536706072642
  endloop
endfacet
facet normal 6.07346136315851e-05 -2.69994211758989e-06 -0.9999999981520085
  outer loop
    vertex -38.48167099940539 -20.72604717216936 -115.96535620164755
    vertex -30.70026838398338 -7.616005758471398 -115.96432075532792
    vertex -38.22740120354884 -20.394676322641356 -115.9653416533518
  endloop
endfacet
facet normal 6.07346136315851e-05 -2.69994211758989e-06 -0.9999999981520085
  outer loop
    vertex -38.22740120354884 -20.394676322641356 -115.9653416533518
    vertex -30.70026838398338 -7.616005758471398 -115.96432075532792
    vertex -37.896030354204925 -20.14040652687225 -115.965322214185
  endloop
endfacet
facet normal 6.07346136315851e-05 -2.69994211758989e-06 -0.9999999981520085
  outer loop
    vertex -37.896030354204925 -20.14040652687225 -115.965322214185
    vertex -30.70026838398338 -7.616005758471398 -115.96432075532792
    vertex -37.51014082714002 -19.980565851242538 -115.96529920889421
  endloop
endfacet
facet normal 6.07346136315851e-05 -2.69994211758989e-06 -0.9999999981520085
  outer loop
    vertex -37.51014082714002 -19.980565851242538 -115.96529920889421
    vertex -30.70026838398338 -7.616005758471398 -115.96432075532792
    vertex -37.096030355910955 -19.926047173647397 -115.96527420525196
  endloop
endfacet
facet normal 6.07346136315851e-05 -2.69994211758989e-06 -0.9999999981520085
  outer loop
    vertex -37.096030355910955 -19.926047173647397 -115.96527420525196
    vertex -30.70026838398338 -7.616005758471398 -115.96432075532792
    vertex -36.68191988478242 -19.980565851868565 -115.96524890721517
  endloop
endfacet
facet normal 6.07346136315851e-05 -2.69994211758989e-06 -0.9999999981520085
  outer loop
    vertex -36.68191988478242 -19.980565851868565 -115.96524890721517
    vertex -30.70026838398338 -7.616005758471398 -115.96432075532792
    vertex -36.29603035801157 -20.14040652808151 -115.96522503880324
  endloop
endfacet
facet normal 6.07346136315851e-05 -2.69994211758989e-06 -0.9999999981520085
  outer loop
    vertex -36.29603035801157 -20.14040652808151 -115.96522503880324
    vertex -30.70026838398338 -7.616005758471398 -115.96432075532792
    vertex -35.96465950913538 -20.39467632435173 -115.96520422660892
  endloop
endfacet
facet normal 6.07346136315851e-05 -2.69994211758989e-06 -0.9999999981520085
  outer loop
    vertex -35.96465950913538 -20.39467632435173 -115.96520422660892
    vertex -30.70026838398338 -7.616005758471398 -115.96432075532792
    vertex -35.71038971388846 -20.726047174263975 -115.96518788894909
  endloop
endfacet
facet normal 6.07346136315851e-05 -2.69994211758989e-06 -0.9999999981520085
  outer loop
    vertex -35.71038971388846 -20.726047174263975 -115.96518788894909
    vertex -30.70026838398338 -7.616005758471398 -115.96432075532792
    vertex -35.55054903861636 -21.111936702012958 -115.96517713920804
  endloop
endfacet
facet normal 6.07346136315851e-05 -2.69994211758989e-06 -0.9999999981520085
  outer loop
    vertex -35.55054903861636 -21.111936702012958 -115.96517713920804
    vertex -30.70026838398338 -7.616005758471398 -115.96432075532792
    vertex -35.49603036118941 -21.52604717399521 -115.96517270996291
  endloop
endfacet
facet normal 6.07346136315851e-05 -2.69994211758989e-06 -0.9999999981520085
  outer loop
    vertex -35.49603036118941 -21.52604717399521 -115.96517270996291
    vertex -30.70026838398338 -7.616005758471398 -115.96432075532792
    vertex -31.63833534234884 -10.980603596737295 -115.96504014737263
  endloop
endfacet
facet normal 6.07346136315851e-05 -2.69994211758989e-06 -0.9999999981520085
  outer loop
    vertex -47.6888568627837 -37.61350192434976 -115.96627909183046
    vertex -37.09603035885454 -23.12604717192427 -115.96526556543733
    vertex -21.94576686693868 -22.769294133344793 -115.96472539333628
  endloop
endfacet
facet normal 6.07346136315851e-05 -2.69994211758989e-06 -0.9999999981520085
  outer loop
    vertex -37.09603035885454 -23.12604717192427 -115.96526556543733
    vertex -47.6888568627837 -37.61350192434976 -115.96627909183046
    vertex -37.51014082998314 -23.071528493703173 -115.96529086347415
  endloop
endfacet
facet normal 6.07346136315851e-05 -2.69994211758989e-06 -0.9999999981520085
  outer loop
    vertex -37.51014082998314 -23.071528493703173 -115.96529086347415
    vertex -47.6888568627837 -37.61350192434976 -115.96627909183046
    vertex -37.89603035675403 -22.911687817490154 -115.96531473188605
  endloop
endfacet
facet normal 6.07346136315851e-05 -2.69994211758989e-06 -0.9999999981520085
  outer loop
    vertex -37.89603035675403 -22.911687817490154 -115.96531473188605
    vertex -47.6888568627837 -37.61350192434976 -115.96627909183046
    vertex -38.22740120563017 -22.65741802121995 -115.96533554408032
  endloop
endfacet
facet normal 6.07346136315851e-05 -2.69994211758989e-06 -0.9999999981520085
  outer loop
    vertex -38.22740120563017 -22.65741802121995 -115.96533554408032
    vertex -47.6888568627837 -37.61350192434976 -115.96627909183046
    vertex -38.48167100087706 -22.326047171307682 -115.96535188174025
  endloop
endfacet
facet normal 6.07346136315851e-05 -2.69994211758989e-06 -0.9999999981520085
  outer loop
    vertex -38.48167100087706 -22.326047171307682 -115.96535188174025
    vertex -47.6888568627837 -37.61350192434976 -115.96627909183046
    vertex -38.641511676149186 -21.940157643558734 -115.9653626314813
  endloop
endfacet
facet normal 6.07346136315851e-05 -2.69994211758989e-06 -0.9999999981520085
  outer loop
    vertex -38.641511676149186 -21.940157643558734 -115.9653626314813
    vertex -47.6888568627837 -37.61350192434976 -115.96627909183046
    vertex -38.69603035357608 -21.526047171576494 -115.96536706072642
  endloop
endfacet
facet normal 6.07346136315851e-05 -2.69994211758989e-06 -0.9999999981520085
  outer loop
    vertex -21.94576686693868 -22.769294133344793 -115.96472539333628
    vertex -37.09603035885454 -23.12604717192427 -115.96526556543733
    vertex -36.6819198876255 -23.071528494329087 -115.96524056179504
  endloop
endfacet
facet normal 6.07346136315851e-05 -2.69994211758989e-06 -0.9999999981520085
  outer loop
    vertex -21.94576686693868 -22.769294133344793 -115.96472539333628
    vertex -36.6819198876255 -23.071528494329087 -115.96524056179504
    vertex -36.29603036056062 -22.91168781869943 -115.9652175565043
  endloop
endfacet
facet normal 6.07346136315851e-05 -2.69994211758989e-06 -0.9999999981520085
  outer loop
    vertex -21.94576686693868 -22.769294133344793 -115.96472539333628
    vertex -36.29603036056062 -22.91168781869943 -115.9652175565043
    vertex -35.96465951121665 -22.657418022930237 -115.9651981173375
  endloop
endfacet
facet normal 6.07346136315851e-05 -2.69994211758989e-06 -0.9999999981520085
  outer loop
    vertex -21.94576686693868 -22.769294133344793 -115.96472539333628
    vertex -35.96465951121665 -22.657418022930237 -115.9651981173375
    vertex -35.71038971536017 -22.32604717340232 -115.96518356904177
  endloop
endfacet
facet normal 6.07346136315851e-05 -2.69994211758989e-06 -0.9999999981520085
  outer loop
    vertex -21.94576686693868 -22.769294133344793 -115.96472539333628
    vertex -35.71038971536017 -22.32604717340232 -115.96518356904177
    vertex -35.55054903937809 -21.940157645895017 -115.96517490305945
  endloop
endfacet
facet normal 6.07346136315851e-05 -2.69994211758989e-06 -0.9999999981520085
  outer loop
    vertex -21.94576686693868 -22.769294133344793 -115.96472539333628
    vertex -35.55054903937809 -21.940157645895017 -115.96517490305945
    vertex -35.49603036118941 -21.52604717399521 -115.96517270996291
  endloop
endfacet
facet normal 6.07346136315851e-05 -2.69994211758989e-06 -0.9999999981520085
  outer loop
    vertex -21.94576686693868 -22.769294133344793 -115.96472539333628
    vertex -35.49603036118941 -21.52604717399521 -115.96517270996291
    vertex -25.332475445571557 -21.90150800593329 -115.96409740090584
  endloop
endfacet
facet normal 6.07346136315851e-05 -2.69994211758989e-06 -0.9999999981520085
  outer loop
    vertex -25.332475445571557 -21.90150800593329 -115.96409740090584
    vertex -35.49603036118941 -21.52604717399521 -115.96517270996291
    vertex -31.63833534234884 -10.980603596737295 -115.96504014737263
  endloop
endfacet
facet normal -0.7933549764024177 0.6087592944253506 -5.355622009646066e-05
  outer loop
    vertex -57.07090059463671 -23.268717425822015 -113.0406002198681
    vertex -56.63402646674381 -22.699626189727194 -115.96620020606032
    vertex -57.07070832229756 -23.2687242336623 -115.96620910425519
  endloop
endfacet
facet normal -0.7933549764024177 0.6087592944253506 -5.355622009646066e-05
  outer loop
    vertex -56.63402646674381 -22.699626189727194 -115.96620020606032
    vertex -57.07090059463671 -23.268717425822015 -113.0406002198681
    vertex -56.634218739082904 -22.69961938188719 -113.04059132167323
  endloop
endfacet
facet normal -0.8759116855396951 -0.4824714664612223 -5.6442609604491424e-05
  outer loop
    vertex -54.289875578510355 -31.466865653326316 -113.03946038063057
    vertex -55.61057703208281 -29.068831685059468 -115.96506926501648
    vertex -54.28968330617098 -31.466872461166798 -115.96506926501766
  endloop
endfacet
facet normal -0.8759116855396951 -0.4824714664612223 -5.6442609604491424e-05
  outer loop
    vertex -55.61057703208281 -29.068831685059468 -115.96506926501648
    vertex -54.289875578510355 -31.466865653326316 -113.03946038063057
    vertex -55.610769304422185 -29.068824877219246 -113.0394603806294
  endloop
endfacet
facet normal -0.8305282359996201 -0.5569765222771028 -5.328661681783881e-05
  outer loop
    vertex -51.33902048584089 -36.081403022846054 -113.0403325066116
    vertex -52.865445708869906 -33.8050142587187 -115.96506926501878
    vertex -51.33882821350176 -36.08140983068638 -115.96594139099872
  endloop
endfacet
facet normal -0.8305282359996201 -0.5569765222771028 -5.328661681783881e-05
  outer loop
    vertex -52.865445708869906 -33.8050142587187 -115.96506926501878
    vertex -51.33902048584089 -36.081403022846054 -113.0403325066116
    vertex -52.86563798120891 -33.805007450878215 -113.03946038063172
  endloop
endfacet
facet normal -0.5173260321962813 -0.8557883940481855 -3.200749633736654e-05
  outer loop
    vertex -49.803468086852455 -37.570292105177515 -113.04069477796828
    vertex -50.4212921864356 -37.19670664384048 -115.9653835372839
    vertex -49.80327581451342 -37.570298913017794 -115.96630366235536
  endloop
endfacet
facet normal -0.5173260321962813 -0.8557883940481855 -3.200749633736654e-05
  outer loop
    vertex -50.4212921864356 -37.19670664384048 -115.9653835372839
    vertex -49.803468086852455 -37.570292105177515 -113.04069477796828
    vertex -50.421484458774714 -37.19669983600025 -113.03977465289681
  endloop
endfacet
facet normal 0.2393290229034803 -0.9709385245588369 1.7988168497766813e-05
  outer loop
    vertex -47.6888568627837 -37.61350192434976 -115.96627909183046
    vertex -48.38780242462155 -37.78573253254731 -113.04070217802601
    vertex -48.38761015228231 -37.78573934038756 -115.96631106241308
  endloop
endfacet
facet normal 0.2393290229034803 -0.9709385245588369 1.7988168497766813e-05
  outer loop
    vertex -48.38780242462155 -37.78573253254731 -113.04070217802601
    vertex -47.6888568627837 -37.61350192434976 -115.96627909183046
    vertex -47.689049135122886 -37.6134951165096 -113.04067020744337
  endloop
endfacet
facet normal -7.19630917168237e-05 4.048068899796283e-06 0.9999999974024634
  outer loop
    vertex -47.689049135122886 -37.6134951165096 -113.04067020744337
    vertex -38.641689376875476 -21.940149743917285 -113.03950675616537
    vertex -38.696208054302446 -21.526039271935 -113.03951118541049
  endloop
endfacet
facet normal -7.19630917168237e-05 4.048068899796283e-06 0.9999999974024634
  outer loop
    vertex -38.641689376875476 -21.940149743917285 -113.03950675616537
    vertex -47.689049135122886 -37.6134951165096 -113.04067020744337
    vertex -38.48184870160347 -22.3260392716662 -113.0394960064243
  endloop
endfacet
facet normal -7.19630917168237e-05 4.048068899796283e-06 0.9999999974024634
  outer loop
    vertex -38.48184870160347 -22.3260392716662 -113.0394960064243
    vertex -47.689049135122886 -37.6134951165096 -113.04067020744337
    vertex -38.22757890635656 -22.657410121578508 -113.03947966876437
  endloop
endfacet
facet normal -7.19630917168237e-05 4.048068899796283e-06 0.9999999974024634
  outer loop
    vertex -38.22757890635656 -22.657410121578508 -113.03947966876437
    vertex -47.689049135122886 -37.6134951165096 -113.04067020744337
    vertex -37.8962080574803 -22.911679917848645 -113.03945885657012
  endloop
endfacet
facet normal -7.19630917168237e-05 4.048068899796283e-06 0.9999999974024634
  outer loop
    vertex -37.8962080574803 -22.911679917848645 -113.03945885657012
    vertex -47.689049135122886 -37.6134951165096 -113.04067020744337
    vertex -37.51031853070954 -23.071520594061642 -113.0394349881582
  endloop
endfacet
facet normal -7.19630917168237e-05 4.048068899796283e-06 0.9999999974024634
  outer loop
    vertex -37.51031853070954 -23.071520594061642 -113.0394349881582
    vertex -47.689049135122886 -37.6134951165096 -113.04067020744337
    vertex -37.09620805958091 -23.126039272282775 -113.0394096901214
  endloop
endfacet
facet normal -7.19630917168237e-05 4.048068899796283e-06 0.9999999974024634
  outer loop
    vertex -37.09620805958091 -23.126039272282775 -113.0394096901214
    vertex -47.689049135122886 -37.6134951165096 -113.04067020744337
    vertex -24.110677893334763 -24.017735966825207 -113.03897020955255
  endloop
endfacet
facet normal -7.19630917168237e-05 4.048068899796283e-06 0.9999999974024634
  outer loop
    vertex -37.09620805958091 -23.126039272282775 -113.0394096901214
    vertex -24.110677893334763 -24.017735966825207 -113.03897020955255
    vertex -36.68209758835196 -23.071520594687637 -113.03938468647911
  endloop
endfacet
facet normal -7.19630917168237e-05 4.048068899796283e-06 0.9999999974024634
  outer loop
    vertex -36.68209758835196 -23.071520594687637 -113.03938468647911
    vertex -24.110677893334763 -24.017735966825207 -113.03897020955255
    vertex -36.296208061287054 -22.91167991905792 -113.03936168118837
  endloop
endfacet
facet normal -7.19630917168237e-05 4.048068899796283e-06 0.9999999974024634
  outer loop
    vertex -36.296208061287054 -22.91167991905792 -113.03936168118837
    vertex -24.110677893334763 -24.017735966825207 -113.03897020955255
    vertex -35.96483721194307 -22.657410123288766 -113.03934224202156
  endloop
endfacet
facet normal -7.19630917168237e-05 4.048068899796283e-06 0.9999999974024634
  outer loop
    vertex -35.96483721194307 -22.657410123288766 -113.03934224202156
    vertex -24.110677893334763 -24.017735966825207 -113.03897020955255
    vertex -35.71056741608657 -22.326039273760777 -113.03932769372584
  endloop
endfacet
facet normal -7.19630917168237e-05 4.048068899796283e-06 0.9999999974024634
  outer loop
    vertex -35.71056741608657 -22.326039273760777 -113.03932769372584
    vertex -24.110677893334763 -24.017735966825207 -113.03897020955255
    vertex -35.550726740104466 -21.94014974625352 -113.0393190277435
  endloop
endfacet
facet normal -7.19630917168237e-05 4.048068899796283e-06 0.9999999974024634
  outer loop
    vertex -35.550726740104466 -21.94014974625352 -113.0393190277435
    vertex -24.110677893334763 -24.017735966825207 -113.03897020955255
    vertex -35.49620806191581 -21.526039274353664 -113.03931683464698
  endloop
endfacet
facet normal -7.19630917168237e-05 4.048068899796283e-06 0.9999999974024634
  outer loop
    vertex -35.49620806191581 -21.526039274353664 -113.03931683464698
    vertex -24.110677893334763 -24.017735966825207 -113.03897020955255
    vertex -32.8609112686926 -8.863346802709861 -113.03871513919302
  endloop
endfacet
facet normal -7.19630917168237e-05 4.048068899796283e-06 0.9999999974024634
  outer loop
    vertex -57.345405637954826 -25.35383358331552 -113.04063301748329
    vertex -57.345409464468645 -23.931445505003595 -113.04061061655186
    vertex -57.43903802274761 -24.6426397960448 -113.04062180320767
  endloop
endfacet
facet normal -7.19630917168237e-05 4.048068899796283e-06 0.9999999974024634
  outer loop
    vertex -57.345409464468645 -23.931445505003595 -113.04061061655186
    vertex -57.345405637954826 -25.35383358331552 -113.04063301748329
    vertex -57.07090059463671 -23.268717425822015 -113.0406002198681
  endloop
endfacet
facet normal -7.19630917168237e-05 4.048068899796283e-06 0.9999999974024634
  outer loop
    vertex -57.07090059463671 -23.268717425822015 -113.0406002198681
    vertex -57.345405637954826 -25.35383358331552 -113.04063301748329
    vertex -56.82426960327366 -26.618549068151417 -113.04611563355753
  endloop
endfacet
facet normal -7.19630917168237e-05 4.048068899796283e-06 0.9999999974024634
  outer loop
    vertex -57.07090059463671 -23.268717425822015 -113.0406002198681
    vertex -56.82426960327366 -26.618549068151417 -113.04611563355753
    vertex -56.634218739082904 -22.69961938188719 -113.04059132167323
  endloop
endfacet
facet normal -7.19630917168237e-05 4.048068899796283e-06 0.9999999974024634
  outer loop
    vertex -56.634218739082904 -22.69961938188719 -113.04059132167323
    vertex -56.82426960327366 -26.618549068151417 -113.04611563355753
    vertex -55.610769304422185 -29.068824877219246 -113.0394603806294
  endloop
endfacet
facet normal -7.19630917168237e-05 4.048068899796283e-06 0.9999999974024634
  outer loop
    vertex -56.634218739082904 -22.69961938188719 -113.04059132167323
    vertex -55.610769304422185 -29.068824877219246 -113.0394603806294
    vertex -56.05201094104571 -22.25287313700673 -113.04046166702912
  endloop
endfacet
facet normal -7.19630917168237e-05 4.048068899796283e-06 0.9999999974024634
  outer loop
    vertex -56.05201094104571 -22.25287313700673 -113.04046166702912
    vertex -55.610769304422185 -29.068824877219246 -113.0394603806294
    vertex -32.8609112686926 -8.863346802709861 -113.03871513919302
  endloop
endfacet
facet normal -7.19630917168237e-05 4.048068899796283e-06 0.9999999974024634
  outer loop
    vertex -32.8609112686926 -8.863346802709861 -113.03871513919302
    vertex -55.610769304422185 -29.068824877219246 -113.0394603806294
    vertex -54.289875578510355 -31.466865653326316 -113.03946038063057
  endloop
endfacet
facet normal -7.19630917168237e-05 4.048068899796283e-06 0.9999999974024634
  outer loop
    vertex -32.8609112686926 -8.863346802709861 -113.03871513919302
    vertex -54.289875578510355 -31.466865653326316 -113.03946038063057
    vertex -52.86563798120891 -33.805007450878215 -113.03946038063172
  endloop
endfacet
facet normal -7.19630917168237e-05 4.048068899796283e-06 0.9999999974024634
  outer loop
    vertex -32.8609112686926 -8.863346802709861 -113.03871513919302
    vertex -52.86563798120891 -33.805007450878215 -113.03946038063172
    vertex -51.33902048584089 -36.081403022846054 -113.0403325066116
  endloop
endfacet
facet normal -7.19630917168237e-05 4.048068899796283e-06 0.9999999974024634
  outer loop
    vertex -32.8609112686926 -8.863346802709861 -113.03871513919302
    vertex -51.33902048584089 -36.081403022846054 -113.0403325066116
    vertex -50.84616667154789 -36.75457101031608 -113.04005948411324
  endloop
endfacet
facet normal -7.19630917168237e-05 4.048068899796283e-06 0.9999999974024634
  outer loop
    vertex -32.8609112686926 -8.863346802709861 -113.03871513919302
    vertex -50.84616667154789 -36.75457101031608 -113.04005948411324
    vertex -50.421484458774714 -37.19669983600025 -113.03977465289681
  endloop
endfacet
facet normal -7.19630917168237e-05 4.048068899796283e-06 0.9999999974024634
  outer loop
    vertex -32.8609112686926 -8.863346802709861 -113.03871513919302
    vertex -50.421484458774714 -37.19669983600025 -113.03977465289681
    vertex -49.803468086852455 -37.570292105177515 -113.04069477796828
  endloop
endfacet
facet normal -7.19630917168237e-05 4.048068899796283e-06 0.9999999974024634
  outer loop
    vertex -32.8609112686926 -8.863346802709861 -113.03871513919302
    vertex -49.803468086852455 -37.570292105177515 -113.04069477796828
    vertex -49.109816890916136 -37.77120027893524 -113.04070031425583
  endloop
endfacet
facet normal -7.19630917168237e-05 4.048068899796283e-06 0.9999999974024634
  outer loop
    vertex -32.8609112686926 -8.863346802709861 -113.03871513919302
    vertex -49.109816890916136 -37.77120027893524 -113.04070031425583
    vertex -48.38780242462155 -37.78573253254731 -113.04070217802601
  endloop
endfacet
facet normal -7.19630917168237e-05 4.048068899796283e-06 0.9999999974024634
  outer loop
    vertex -32.8609112686926 -8.863346802709861 -113.03871513919302
    vertex -48.38780242462155 -37.78573253254731 -113.04070217802601
    vertex -47.689049135122886 -37.6134951165096 -113.04067020744337
  endloop
endfacet
facet normal -7.19630917168237e-05 4.048068899796283e-06 0.9999999974024634
  outer loop
    vertex -32.8609112686926 -8.863346802709861 -113.03871513919302
    vertex -47.689049135122886 -37.6134951165096 -113.04067020744337
    vertex -38.48184870013172 -20.72603927252783 -113.0395003263316
  endloop
endfacet
facet normal -7.19630917168237e-05 4.048068899796283e-06 0.9999999974024634
  outer loop
    vertex -38.48184870013172 -20.72603927252783 -113.0395003263316
    vertex -47.689049135122886 -37.6134951165096 -113.04067020744337
    vertex -38.6416893761138 -21.111928800035148 -113.03950899231391
  endloop
endfacet
facet normal -7.19630917168237e-05 4.048068899796283e-06 0.9999999974024634
  outer loop
    vertex -38.6416893761138 -21.111928800035148 -113.03950899231391
    vertex -47.689049135122886 -37.6134951165096 -113.04067020744337
    vertex -38.696208054302446 -21.526039271935 -113.03951118541049
  endloop
endfacet
facet normal -7.19630917168237e-05 4.048068899796283e-06 0.9999999974024634
  outer loop
    vertex -32.8609112686926 -8.863346802709861 -113.03871513919302
    vertex -38.48184870013172 -20.72603927252783 -113.0395003263316
    vertex -38.22757890427527 -20.394668422999846 -113.03948577803587
  endloop
endfacet
facet normal -7.19630917168237e-05 4.048068899796283e-06 0.9999999974024634
  outer loop
    vertex -32.8609112686926 -8.863346802709861 -113.03871513919302
    vertex -38.22757890427527 -20.394668422999846 -113.03948577803587
    vertex -37.896208054931265 -20.140398627230724 -113.03946633886906
  endloop
endfacet
facet normal -7.19630917168237e-05 4.048068899796283e-06 0.9999999974024634
  outer loop
    vertex -32.8609112686926 -8.863346802709861 -113.03871513919302
    vertex -37.896208054931265 -20.140398627230724 -113.03946633886906
    vertex -37.51031852786637 -19.980557951601075 -113.03944333357828
  endloop
endfacet
facet normal -7.19630917168237e-05 4.048068899796283e-06 0.9999999974024634
  outer loop
    vertex -32.8609112686926 -8.863346802709861 -113.03871513919302
    vertex -37.51031852786637 -19.980557951601075 -113.03944333357828
    vertex -37.09620805663742 -19.926039274005927 -113.03941832993603
  endloop
endfacet
facet normal -7.19630917168237e-05 4.048068899796283e-06 0.9999999974024634
  outer loop
    vertex -32.8609112686926 -8.863346802709861 -113.03871513919302
    vertex -37.09620805663742 -19.926039274005927 -113.03941832993603
    vertex -36.682097585508785 -19.98055795222707 -113.03939303189924
  endloop
endfacet
facet normal -7.19630917168237e-05 4.048068899796283e-06 0.9999999974024634
  outer loop
    vertex -32.8609112686926 -8.863346802709861 -113.03871513919302
    vertex -36.682097585508785 -19.98055795222707 -113.03939303189924
    vertex -36.2962080587379 -20.14039862843999 -113.03936916348731
  endloop
endfacet
facet normal -7.19630917168237e-05 4.048068899796283e-06 0.9999999974024634
  outer loop
    vertex -32.8609112686926 -8.863346802709861 -113.03871513919302
    vertex -36.2962080587379 -20.14039862843999 -113.03936916348731
    vertex -35.96483720986168 -20.394668424710282 -113.03934835129299
  endloop
endfacet
facet normal -7.19630917168237e-05 4.048068899796283e-06 0.9999999974024634
  outer loop
    vertex -32.8609112686926 -8.863346802709861 -113.03871513919302
    vertex -35.96483720986168 -20.394668424710282 -113.03934835129299
    vertex -35.71056741461479 -20.726039274622444 -113.03933201363314
  endloop
endfacet
facet normal -7.19630917168237e-05 4.048068899796283e-06 0.9999999974024634
  outer loop
    vertex -32.8609112686926 -8.863346802709861 -113.03871513919302
    vertex -35.71056741461479 -20.726039274622444 -113.03933201363314
    vertex -35.550726739342764 -21.111928802371413 -113.0393212638921
  endloop
endfacet
facet normal -7.19630917168237e-05 4.048068899796283e-06 0.9999999974024634
  outer loop
    vertex -32.8609112686926 -8.863346802709861 -113.03871513919302
    vertex -35.550726739342764 -21.111928802371413 -113.0393212638921
    vertex -35.49620806191581 -21.526039274353664 -113.03931683464698
  endloop
endfacet
facet normal -0.7211928878527137 -0.6927343043435803 -4.578514230956133e-05
  outer loop
    vertex -50.421484458774714 -37.19669983600025 -113.03977465289681
    vertex -50.84597439920884 -36.75457781815637 -115.96566836850035
    vertex -50.4212921864356 -37.19670664384048 -115.9653835372839
  endloop
endfacet
facet normal -0.7211928878527137 -0.6927343043435803 -4.578514230956133e-05
  outer loop
    vertex -50.84597439920884 -36.75457781815637 -115.96566836850035
    vertex -50.421484458774714 -37.19669983600025 -113.03977465289681
    vertex -50.84616667154789 -36.75457101031608 -113.04005948411324
  endloop
endfacet
facet normal -0.9245827118375762 -0.38098137144191657 -5.987745713385565e-05
  outer loop
    vertex -56.82426960327366 -26.618549068151417 -113.04611563355753
    vertex -57.34521336561567 -25.35384039115564 -115.96624190187039
    vertex -56.824077330934585 -26.618555875991866 -115.97172451794461
  endloop
endfacet
facet normal -0.9245827118375762 -0.38098137144191657 -5.987745713385565e-05
  outer loop
    vertex -57.34521336561567 -25.35384039115564 -115.96624190187039
    vertex -56.82426960327366 -26.618549068151417 -113.04611563355753
    vertex -57.345405637954826 -25.35383358331552 -113.04063301748329
  endloop
endfacet
facet normal -0.500009961151232 0.8660196482909189 -8.67387843039279e-05
  outer loop
    vertex -30.700211825520107 -7.6151686851145355 -114.71687747376903
    vertex -30.70026838398338 -7.616005758471398 -115.96432075532792
    vertex -32.86111654644131 -8.862778673716027 -114.71702855447414
  endloop
endfacet
facet normal -0.500009961151232 0.8660196482909189 -8.67387843039279e-05
  outer loop
    vertex -56.05201094104571 -22.25287313700673 -113.04046166702912
    vertex -30.70026838398338 -7.616005758471398 -115.96432075532792
    vertex -56.05181866870652 -22.25287994484709 -115.96607055141621
  endloop
endfacet
facet normal -0.500009961151232 0.8660196482909189 -8.67387843039279e-05
  outer loop
    vertex -30.70026838398338 -7.616005758471398 -115.96432075532792
    vertex -56.05201094104571 -22.25287313700673 -113.04046166702912
    vertex -32.86111654644131 -8.862778673716027 -114.71702855447414
  endloop
endfacet
facet normal -0.500009961151232 0.8660196482909189 -8.67387843039279e-05
  outer loop
    vertex -32.86111654644131 -8.862778673716027 -114.71702855447414
    vertex -56.05201094104571 -22.25287313700673 -113.04046166702912
    vertex -32.8609112686926 -8.863346802709861 -113.03871513919302
  endloop
endfacet
facet normal -0.9914445082733442 -0.1305288581445804 -6.485444322956621e-05
  outer loop
    vertex -57.345405637954826 -25.35383358331552 -113.04063301748329
    vertex -57.438845750408454 -24.642646603885094 -115.96623068759476
    vertex -57.34521336561567 -25.35384039115564 -115.96624190187039
  endloop
endfacet
facet normal -0.9914445082733442 -0.1305288581445804 -6.485444322956621e-05
  outer loop
    vertex -57.438845750408454 -24.642646603885094 -115.96623068759476
    vertex -57.345405637954826 -25.35383358331552 -113.04063301748329
    vertex -57.43903802274761 -24.6426397960448 -113.04062180320767
  endloop
endfacet
facet normal -0.2782042472755027 -0.9605219396454794 -1.6048591344679962e-05
  outer loop
    vertex -49.109816890916136 -37.77120027893524 -113.04070031425583
    vertex -49.80327581451342 -37.570298913017794 -115.96630366235536
    vertex -49.109624618577 -37.7712070867755 -115.96630919864292
  endloop
endfacet
facet normal -0.2782042472755027 -0.9605219396454794 -1.6048591344679962e-05
  outer loop
    vertex -49.80327581451342 -37.570298913017794 -115.96630366235536
    vertex -49.109816890916136 -37.77120027893524 -113.04070031425583
    vertex -49.803468086852455 -37.570292105177515 -113.04069477796828
  endloop
endfacet
facet normal -0.9238805598927727 0.3826809470781494 -6.160834015657439e-05
  outer loop
    vertex -57.345409464468645 -23.931445505003595 -113.04061061655186
    vertex -57.07070832229756 -23.2687242336623 -115.96620910425519
    vertex -57.34521719212936 -23.931452312844115 -115.96621950093892
  endloop
endfacet
facet normal -0.9238805598927727 0.3826809470781494 -6.160834015657439e-05
  outer loop
    vertex -57.07070832229756 -23.2687242336623 -115.96620910425519
    vertex -57.345409464468645 -23.931445505003595 -113.04061061655186
    vertex -57.07090059463671 -23.268717425822015 -113.0406002198681
  endloop
endfacet
facet normal -0.9914452102526375 0.13052352577920925 -6.546195366390009e-05
  outer loop
    vertex -57.43903802274761 -24.6426397960448 -113.04062180320767
    vertex -57.34521719212936 -23.931452312844115 -115.96621950093892
    vertex -57.438845750408454 -24.642646603885094 -115.96623068759476
  endloop
endfacet
facet normal -0.9914452102526375 0.13052352577920925 -6.546195366390009e-05
  outer loop
    vertex -57.34521719212936 -23.931452312844115 -115.96621950093892
    vertex -57.43903802274761 -24.6426397960448 -113.04062180320767
    vertex -57.345409464468645 -23.931445505003595 -113.04061061655186
  endloop
endfacet
facet normal -0.8068635628721602 -0.5907378337648874 -5.165280181745482e-05
  outer loop
    vertex -50.84616667154789 -36.75457101031608 -113.04005948411324
    vertex -51.33882821350176 -36.08140983068638 -115.96594139099872
    vertex -50.84597439920884 -36.75457781815637 -115.96566836850035
  endloop
endfacet
facet normal -0.8068635628721602 -0.5907378337648874 -5.165280181745482e-05
  outer loop
    vertex -51.33882821350176 -36.08140983068638 -115.96594139099872
    vertex -50.84616667154789 -36.75457101031608 -113.04005948411324
    vertex -51.33902048584089 -36.081403022846054 -113.0403325066116
  endloop
endfacet
facet normal -0.020123296130330516 -0.9997975059740063 1.003999063872971e-06
  outer loop
    vertex -48.38780242462155 -37.78573253254731 -113.04070217802601
    vertex -49.109624618577 -37.7712070867755 -115.96630919864292
    vertex -48.38761015228231 -37.78573934038756 -115.96631106241308
  endloop
endfacet
facet normal -0.020123296130330516 -0.9997975059740063 1.003999063872971e-06
  outer loop
    vertex -49.109624618577 -37.7712070867755 -115.96630919864292
    vertex -48.38780242462155 -37.78573253254731 -113.04070217802601
    vertex -49.109816890916136 -37.77120027893524 -113.04070031425583
  endloop
endfacet
facet normal -0.608763557209585 0.7933517061567005 -4.185433181464621e-05
  outer loop
    vertex -56.634218739082904 -22.69961938188719 -113.04059132167323
    vertex -56.05181866870652 -22.25287994484709 -115.96607055141621
    vertex -56.63402646674381 -22.699626189727194 -115.96620020606032
  endloop
endfacet
facet normal -0.608763557209585 0.7933517061567005 -4.185433181464621e-05
  outer loop
    vertex -56.05181866870652 -22.25287994484709 -115.96607055141621
    vertex -56.634218739082904 -22.69961938188719 -113.04059132167323
    vertex -56.05201094104571 -22.25287313700673 -113.04046166702912
  endloop
endfacet
facet normal -0.89612310386475 -0.44380556482757666 -5.7860888032005215e-05
  outer loop
    vertex -55.610769304422185 -29.068824877219246 -113.0394603806294
    vertex -56.824077330934585 -26.618555875991866 -115.97172451794461
    vertex -55.61057703208281 -29.068831685059468 -115.96506926501648
  endloop
endfacet
facet normal -0.89612310386475 -0.44380556482757666 -5.7860888032005215e-05
  outer loop
    vertex -56.824077330934585 -26.618555875991866 -115.97172451794461
    vertex -55.610769304422185 -29.068824877219246 -113.0394603806294
    vertex -56.82426960327366 -26.618549068151417 -113.04611563355753
  endloop
endfacet
facet normal -0.854032901985567 -0.5202189916854693 -5.4916888225587476e-05
  outer loop
    vertex -52.86563798120891 -33.805007450878215 -113.03946038063172
    vertex -54.28968330617098 -31.466872461166798 -115.96506926501766
    vertex -52.865445708869906 -33.8050142587187 -115.96506926501878
  endloop
endfacet
facet normal -0.854032901985567 -0.5202189916854693 -5.4916888225587476e-05
  outer loop
    vertex -54.28968330617098 -31.466872461166798 -115.96506926501766
    vertex -52.86563798120891 -33.805007450878215 -113.03946038063172
    vertex -54.289875578510355 -31.466865653326316 -113.03946038063057
  endloop
endfacet
facet normal 0.8660066632142516 0.5000324570194642 3.4577387947253496e-05
  outer loop
    vertex -31.63833534234884 -10.980603596737295 -115.96504014737263
    vertex -25.332779014197726 -21.901496142868005 -114.70640781028725
    vertex -25.332475445571557 -21.90150800593329 -115.96409740090584
  endloop
endfacet
facet normal 0.8660066632142516 0.5000324570194642 3.4577387947253496e-05
  outer loop
    vertex -24.111151995627868 -24.017542418780295 -114.70700056496183
    vertex -32.8609112686926 -8.863346802709861 -113.03871513919302
    vertex -24.110677893334763 -24.017735966825207 -113.03897020955255
  endloop
endfacet
facet normal 0.8660066632142516 0.5000324570194642 3.4577387947253496e-05
  outer loop
    vertex -32.8609112686926 -8.863346802709861 -113.03871513919302
    vertex -24.111151995627868 -24.017542418780295 -114.70700056496183
    vertex -25.332779014197726 -21.901496142868005 -114.70640781028725
  endloop
endfacet
facet normal 0.8660066632142516 0.5000324570194642 3.4577387947253496e-05
  outer loop
    vertex -32.8609112686926 -8.863346802709861 -113.03871513919302
    vertex -25.332779014197726 -21.901496142868005 -114.70640781028725
    vertex -31.638452913931175 -10.980393961633736 -114.71789493868151
  endloop
endfacet
facet normal 0.8660066632142516 0.5000324570194642 3.4577387947253496e-05
  outer loop
    vertex -31.638452913931175 -10.980393961633736 -114.71789493868151
    vertex -25.332779014197726 -21.901496142868005 -114.70640781028725
    vertex -31.63833534234884 -10.980603596737295 -115.96504014737263
  endloop
endfacet
facet normal 0.8660066632142516 0.5000324570194642 3.4577387947253496e-05
  outer loop
    vertex -32.8609112686926 -8.863346802709861 -113.03871513919302
    vertex -31.638452913931175 -10.980393961633736 -114.71789493868151
    vertex -31.81362969254484 -10.677060234637505 -114.7177708304752
  endloop
endfacet
facet normal 0.8660066632142516 0.5000324570194642 3.4577387947253496e-05
  outer loop
    vertex -32.8609112686926 -8.863346802709861 -113.03871513919302
    vertex -31.81362969254484 -10.677060234637505 -114.7177708304752
    vertex -32.86111654644131 -8.862778673716027 -114.71702855447414
  endloop
endfacet
facet normal 0.7933533393879773 0.6087614284068409 4.654038800484279e-05
  outer loop
    vertex -38.48167100087706 -22.326047171307682 -115.96535188174025
    vertex -38.22757890635656 -22.657410121578508 -113.03947966876437
    vertex -38.22740120563017 -22.65741802121995 -115.96533554408032
  endloop
endfacet
facet normal 0.7933533393879773 0.6087614284068409 4.654038800484279e-05
  outer loop
    vertex -38.22757890635656 -22.657410121578508 -113.03947966876437
    vertex -38.48167100087706 -22.326047171307682 -115.96535188174025
    vertex -38.48184870160347 -22.3260392716662 -113.0394960064243
  endloop
endfacet
facet normal -0.9914448594251819 0.13052619296894924 -6.056743374965004e-05
  outer loop
    vertex -35.550726740104466 -21.94014974625352 -113.0393190277435
    vertex -35.49603036118941 -21.52604717399521 -115.96517270996291
    vertex -35.55054903937809 -21.940157645895017 -115.96517490305945
  endloop
endfacet
facet normal -0.9914448594251819 0.13052619296894924 -6.056743374965004e-05
  outer loop
    vertex -35.49603036118941 -21.52604717399521 -115.96517270996291
    vertex -35.550726740104466 -21.94014974625352 -113.0393190277435
    vertex -35.49620806191581 -21.526039274353664 -113.03931683464698
  endloop
endfacet
facet normal -0.9238795304552909 0.3826834330621013 -5.714468954647462e-05
  outer loop
    vertex -35.71056741608657 -22.326039273760777 -113.03932769372584
    vertex -35.55054903937809 -21.940157645895017 -115.96517490305945
    vertex -35.71038971536017 -22.32604717340232 -115.96518356904177
  endloop
endfacet
facet normal -0.9238795304552909 0.3826834330621013 -5.714468954647462e-05
  outer loop
    vertex -35.55054903937809 -21.940157645895017 -115.96517490305945
    vertex -35.71056741608657 -22.326039273760777 -113.03932769372584
    vertex -35.550726740104466 -21.94014974625352 -113.0393190277435
  endloop
endfacet
facet normal -0.1305261910673559 0.9914448614688549 -1.0604301541634165e-05
  outer loop
    vertex -37.09620805958091 -23.126039272282775 -113.0394096901214
    vertex -36.6819198876255 -23.071528494329087 -115.96524056179504
    vertex -37.09603035885454 -23.12604717192427 -115.96526556543733
  endloop
endfacet
facet normal -0.1305261910673559 0.9914448614688549 -1.0604301541634165e-05
  outer loop
    vertex -36.6819198876255 -23.071528494329087 -115.96524056179504
    vertex -37.09620805958091 -23.126039272282775 -113.0394096901214
    vertex -36.68209758835196 -23.071520594687637 -113.03938468647911
  endloop
endfacet
facet normal 0.13052619289120138 0.9914448612715486 5.250614164899891e-06
  outer loop
    vertex -37.51031853070954 -23.071520594061642 -113.0394349881582
    vertex -37.09603035885454 -23.12604717192427 -115.96526556543733
    vertex -37.51014082998314 -23.071528493703173 -115.96529086347415
  endloop
endfacet
facet normal 0.13052619289120138 0.9914448612715486 5.250614164899891e-06
  outer loop
    vertex -37.09603035885454 -23.12604717192427 -115.96526556543733
    vertex -37.51031853070954 -23.071520594061642 -113.0394349881582
    vertex -37.09620805958091 -23.126039272282775 -113.0394096901214
  endloop
endfacet
facet normal 0.24863151235749187 0.9685977898576372 0.000832193323079586
  outer loop
    vertex -25.332475445571557 -21.90150800593329 -115.96409740090584
    vertex -21.950278091109436 -22.77131353922796 -114.70744940939848
    vertex -21.94576686693868 -22.769294133344793 -115.96472539333628
  endloop
endfacet
facet normal 0.24863151235749187 0.9685977898576372 0.000832193323079586
  outer loop
    vertex -21.950278091109436 -22.77131353922796 -114.70744940939848
    vertex -25.332475445571557 -21.90150800593329 -115.96409740090584
    vertex -25.332779014197726 -21.901496142868005 -114.70640781028725
  endloop
endfacet
facet normal -0.9914448596652867 -0.13052619147032676 -5.9862607435199956e-05
  outer loop
    vertex -35.49620806191581 -21.526039274353664 -113.03931683464698
    vertex -35.55054903861636 -21.111936702012958 -115.96517713920804
    vertex -35.49603036118941 -21.52604717399521 -115.96517270996291
  endloop
endfacet
facet normal -0.9914448596652867 -0.13052619147032676 -5.9862607435199956e-05
  outer loop
    vertex -35.55054903861636 -21.111936702012958 -115.96517713920804
    vertex -35.49620806191581 -21.526039274353664 -113.03931683464698
    vertex -35.550726739342764 -21.111928802371413 -113.0393212638921
  endloop
endfacet
facet normal 0.0002770305548808947 -0.00012018954388631551 0.9999999544042716
  outer loop
    vertex -21.950278091109436 -22.77131353922796 -114.70744940939848
    vertex -25.332779014197726 -21.901496142868005 -114.70640781028725
    vertex -24.111151995627868 -24.017542418780295 -114.70700056496183
  endloop
endfacet
facet normal -0.7933533393879123 -0.6087614284069257 -4.654038800483861e-05
  outer loop
    vertex -35.71056741461479 -20.726039274622444 -113.03933201363314
    vertex -35.96465950913538 -20.39467632435173 -115.96520422660892
    vertex -35.71038971388846 -20.726047174263975 -115.96518788894909
  endloop
endfacet
facet normal -0.7933533393879123 -0.6087614284069257 -4.654038800483861e-05
  outer loop
    vertex -35.96465950913538 -20.39467632435173 -115.96520422660892
    vertex -35.71056741461479 -20.726039274622444 -113.03933201363314
    vertex -35.96483720986168 -20.394668424710282 -113.03934835129299
  endloop
endfacet
facet normal -0.9238795311594126 -0.38268343166519664 -5.5078243351685235e-05
  outer loop
    vertex -35.550726739342764 -21.111928802371413 -113.0393212638921
    vertex -35.71038971388846 -20.726047174263975 -115.96518788894909
    vertex -35.55054903861636 -21.111936702012958 -115.96517713920804
  endloop
endfacet
facet normal -0.9238795311594126 -0.38268343166519664 -5.5078243351685235e-05
  outer loop
    vertex -35.71038971388846 -20.726047174263975 -115.96518788894909
    vertex -35.550726739342764 -21.111928802371413 -113.0393212638921
    vertex -35.71056741461479 -20.726039274622444 -113.03933201363314
  endloop
endfacet
facet normal -0.7933533382680921 0.6087614296061156 -4.982762918677746e-05
  outer loop
    vertex -35.96483721194307 -22.657410123288766 -113.03934224202156
    vertex -35.71038971536017 -22.32604717340232 -115.96518356904177
    vertex -35.96465951121665 -22.657418022930237 -115.9651981173375
  endloop
endfacet
facet normal -0.7933533382680921 0.6087614296061156 -4.982762918677746e-05
  outer loop
    vertex -35.71038971536017 -22.32604717340232 -115.96518356904177
    vertex -35.96483721194307 -22.657410123288766 -113.03934224202156
    vertex -35.71056741608657 -22.326039273760777 -113.03932769372584
  endloop
endfacet
facet normal 0.00012472256311552984 -0.0003371200033594843 0.9999999353971908
  outer loop
    vertex -31.81362969254484 -10.677060234637505 -114.7177708304752
    vertex -30.700211825520107 -7.6151686851145355 -114.71687747376903
    vertex -32.86111654644131 -8.862778673716027 -114.71702855447414
  endloop
endfacet
facet normal 0.00012472256311552984 -0.0003371200033594843 0.9999999353971908
  outer loop
    vertex -30.700211825520107 -7.6151686851145355 -114.71687747376903
    vertex -31.81362969254484 -10.677060234637505 -114.7177708304752
    vertex -31.638452913931175 -10.980393961633736 -114.71789493868151
  endloop
endfacet
facet normal -0.608761427156165 0.7933533407485055 -3.9114898242044105e-05
  outer loop
    vertex -36.296208061287054 -22.91167991905792 -113.03936168118837
    vertex -35.96465951121665 -22.657418022930237 -115.9651981173375
    vertex -36.29603036056062 -22.91168781869943 -115.9652175565043
  endloop
endfacet
facet normal -0.608761427156165 0.7933533407485055 -3.9114898242044105e-05
  outer loop
    vertex -35.96465951121665 -22.657418022930237 -115.9651981173375
    vertex -36.296208061287054 -22.91167991905792 -113.03936168118837
    vertex -35.96483721194307 -22.657410123288766 -113.03934224202156
  endloop
endfacet
facet normal 0.499533042756528 -0.8662948336487939 1.9692984470920932e-05
  outer loop
    vertex -21.94576686693868 -22.769294133344793 -115.96472539333628
    vertex -47.689049135122886 -37.6134951165096 -113.04067020744337
    vertex -47.6888568627837 -37.61350192434976 -115.96627909183046
  endloop
endfacet
facet normal 0.499533042756528 -0.8662948336487939 1.9692984470920932e-05
  outer loop
    vertex -47.689049135122886 -37.6134951165096 -113.04067020744337
    vertex -21.94576686693868 -22.769294133344793 -115.96472539333628
    vertex -24.111151995627868 -24.017542418780295 -114.70700056496183
  endloop
endfacet
facet normal 0.499533042756528 -0.8662948336487939 1.9692984470920932e-05
  outer loop
    vertex -24.111151995627868 -24.017542418780295 -114.70700056496183
    vertex -21.94576686693868 -22.769294133344793 -115.96472539333628
    vertex -21.950278091109436 -22.77131353922796 -114.70744940939848
  endloop
endfacet
facet normal 0.499533042756528 -0.8662948336487939 1.9692984470920932e-05
  outer loop
    vertex -47.689049135122886 -37.6134951165096 -113.04067020744337
    vertex -24.111151995627868 -24.017542418780295 -114.70700056496183
    vertex -24.110677893334763 -24.017735966825207 -113.03897020955255
  endloop
endfacet
facet normal -0.38268343080948336 0.9238795327971678 -2.5736551622547674e-05
  outer loop
    vertex -36.68209758835196 -23.071520594687637 -113.03938468647911
    vertex -36.29603036056062 -22.91168781869943 -115.9652175565043
    vertex -36.6819198876255 -23.071528494329087 -115.96524056179504
  endloop
endfacet
facet normal -0.38268343080948336 0.9238795327971678 -2.5736551622547674e-05
  outer loop
    vertex -36.29603036056062 -22.91168781869943 -115.9652175565043
    vertex -36.68209758835196 -23.071520594687637 -113.03938468647911
    vertex -36.296208061287054 -22.91167991905792 -113.03936168118837
  endloop
endfacet
facet normal 0.38268343250910064 0.9238795322186684 2.0747709193155034e-05
  outer loop
    vertex -37.8962080574803 -22.911679917848645 -113.03945885657012
    vertex -37.51014082998314 -23.071528493703173 -115.96529086347415
    vertex -37.89603035675403 -22.911687817490154 -115.96531473188605
  endloop
endfacet
facet normal 0.38268343250910064 0.9238795322186684 2.0747709193155034e-05
  outer loop
    vertex -37.51014082998314 -23.071528493703173 -115.96529086347415
    vertex -37.8962080574803 -22.911679917848645 -113.03945885657012
    vertex -37.51031853070954 -23.071520594061642 -113.0394349881582
  endloop
endfacet
facet normal 0.6087614286157331 0.7933533398281887 3.483088212710456e-05
  outer loop
    vertex -38.22757890635656 -22.657410121578508 -113.03947966876437
    vertex -37.89603035675403 -22.911687817490154 -115.96531473188605
    vertex -38.22740120563017 -22.65741802121995 -115.96533554408032
  endloop
endfacet
facet normal 0.6087614286157331 0.7933533398281887 3.483088212710456e-05
  outer loop
    vertex -37.89603035675403 -22.911687817490154 -115.96531473188605
    vertex -38.22757890635656 -22.657410121578508 -113.03947966876437
    vertex -37.8962080574803 -22.911679917848645 -113.03945885657012
  endloop
endfacet
facet normal 0.9632620890570239 -0.268563116695083 1.1684227924444323e-05
  outer loop
    vertex -30.70026838398338 -7.616005758471398 -115.96432075532792
    vertex -31.638452913931175 -10.980393961633736 -114.71789493868151
    vertex -31.63833534234884 -10.980603596737295 -115.96504014737263
  endloop
endfacet
facet normal 0.9632620890570239 -0.268563116695083 1.1684227924444323e-05
  outer loop
    vertex -31.638452913931175 -10.980393961633736 -114.71789493868151
    vertex -30.70026838398338 -7.616005758471398 -115.96432075532792
    vertex -30.700211825520107 -7.6151686851145355 -114.71687747376903
  endloop
endfacet
facet normal -0.6087614286156905 -0.7933533398282214 -3.483088212710189e-05
  outer loop
    vertex -35.96465950913538 -20.39467632435173 -115.96520422660892
    vertex -36.2962080587379 -20.14039862843999 -113.03936916348731
    vertex -36.29603035801157 -20.14040652808151 -115.96522503880324
  endloop
endfacet
facet normal -0.6087614286156905 -0.7933533398282214 -3.483088212710189e-05
  outer loop
    vertex -36.2962080587379 -20.14039862843999 -113.03936916348731
    vertex -35.96465950913538 -20.39467632435173 -115.96520422660892
    vertex -35.96483720986168 -20.394668424710282 -113.03934835129299
  endloop
endfacet
facet normal 0.13052619106736824 -0.9914448614688534 1.0604301541634909e-05
  outer loop
    vertex -37.096030355910955 -19.926047173647397 -115.96527420525196
    vertex -37.51031852786637 -19.980557951601075 -113.03944333357828
    vertex -37.51014082714002 -19.980565851242538 -115.96529920889421
  endloop
endfacet
facet normal 0.13052619106736824 -0.9914448614688534 1.0604301541634909e-05
  outer loop
    vertex -37.51031852786637 -19.980557951601075 -113.03944333357828
    vertex -37.096030355910955 -19.926047173647397 -115.96527420525196
    vertex -37.09620805663742 -19.926039274005927 -113.03941832993603
  endloop
endfacet
facet normal 0.923879531159381 0.38268343166527247 5.5078243351683114e-05
  outer loop
    vertex -38.641511676149186 -21.940157643558734 -115.9653626314813
    vertex -38.48184870160347 -22.3260392716662 -113.0394960064243
    vertex -38.48167100087706 -22.326047171307682 -115.96535188174025
  endloop
endfacet
facet normal 0.923879531159381 0.38268343166527247 5.5078243351683114e-05
  outer loop
    vertex -38.48184870160347 -22.3260392716662 -113.0394960064243
    vertex -38.641511676149186 -21.940157643558734 -115.9653626314813
    vertex -38.641689376875476 -21.940149743917285 -113.03950675616537
  endloop
endfacet
facet normal 0.6087614271561258 -0.7933533407485354 3.9114898242041814e-05
  outer loop
    vertex -37.896030354204925 -20.14040652687225 -115.965322214185
    vertex -38.22757890427527 -20.394668422999846 -113.03948577803587
    vertex -38.22740120354884 -20.394676322641356 -115.9653416533518
  endloop
endfacet
facet normal 0.6087614271561258 -0.7933533407485354 3.9114898242041814e-05
  outer loop
    vertex -38.22757890427527 -20.394668422999846 -113.03948577803587
    vertex -37.896030354204925 -20.14040652687225 -115.965322214185
    vertex -37.896208054931265 -20.140398627230724 -113.03946633886906
  endloop
endfacet
facet normal 0.7933533382680954 -0.6087614296061113 4.982762918677763e-05
  outer loop
    vertex -38.22740120354884 -20.394676322641356 -115.9653416533518
    vertex -38.48184870013172 -20.72603927252783 -113.0395003263316
    vertex -38.48167099940539 -20.72604717216936 -115.96535620164755
  endloop
endfacet
facet normal 0.7933533382680954 -0.6087614296061113 4.982762918677763e-05
  outer loop
    vertex -38.48184870013172 -20.72603927252783 -113.0395003263316
    vertex -38.22740120354884 -20.394676322641356 -115.9653416533518
    vertex -38.22757890427527 -20.394668422999846 -113.03948577803587
  endloop
endfacet
facet normal 0.9914448596652957 0.1305261914702587 5.986260743520072e-05
  outer loop
    vertex -38.69603035357608 -21.526047171576494 -115.96536706072642
    vertex -38.641689376875476 -21.940149743917285 -113.03950675616537
    vertex -38.641511676149186 -21.940157643558734 -115.9653626314813
  endloop
endfacet
facet normal 0.9914448596652957 0.1305261914702587 5.986260743520072e-05
  outer loop
    vertex -38.641689376875476 -21.940149743917285 -113.03950675616537
    vertex -38.69603035357608 -21.526047171576494 -115.96536706072642
    vertex -38.696208054302446 -21.526039271935 -113.03951118541049
  endloop
endfacet
facet normal 0.9238795304553327 -0.38268343306200064 5.71446895464769e-05
  outer loop
    vertex -38.48167099940539 -20.72604717216936 -115.96535620164755
    vertex -38.6416893761138 -21.111928800035148 -113.03950899231391
    vertex -38.64151167538739 -21.11193669967662 -115.96536486762986
  endloop
endfacet
facet normal 0.9238795304553327 -0.38268343306200064 5.71446895464769e-05
  outer loop
    vertex -38.6416893761138 -21.111928800035148 -113.03950899231391
    vertex -38.48167099940539 -20.72604717216936 -115.96535620164755
    vertex -38.48184870013172 -20.72603927252783 -113.0395003263316
  endloop
endfacet
facet normal 0.38268343080952316 -0.9238795327971515 2.573655162255003e-05
  outer loop
    vertex -37.51014082714002 -19.980565851242538 -115.96529920889421
    vertex -37.896208054931265 -20.140398627230724 -113.03946633886906
    vertex -37.896030354204925 -20.14040652687225 -115.965322214185
  endloop
endfacet
facet normal 0.38268343080952316 -0.9238795327971515 2.573655162255003e-05
  outer loop
    vertex -37.896208054931265 -20.140398627230724 -113.03946633886906
    vertex -37.51014082714002 -19.980565851242538 -115.96529920889421
    vertex -37.51031852786637 -19.980557951601075 -113.03944333357828
  endloop
endfacet
facet normal 0.9914448594251937 -0.13052619296886042 6.0567433749650514e-05
  outer loop
    vertex -38.64151167538739 -21.11193669967662 -115.96536486762986
    vertex -38.696208054302446 -21.526039271935 -113.03951118541049
    vertex -38.69603035357608 -21.526047171576494 -115.96536706072642
  endloop
endfacet
facet normal 0.9914448594251937 -0.13052619296886042 6.0567433749650514e-05
  outer loop
    vertex -38.696208054302446 -21.526039271935 -113.03951118541049
    vertex -38.64151167538739 -21.11193669967662 -115.96536486762986
    vertex -38.6416893761138 -21.111928800035148 -113.03950899231391
  endloop
endfacet
facet normal -0.1305261928913607 -0.9914448612715275 -5.250614164909622e-06
  outer loop
    vertex -36.68191988478242 -19.980565851868565 -115.96524890721517
    vertex -37.09620805663742 -19.926039274005927 -113.03941832993603
    vertex -37.096030355910955 -19.926047173647397 -115.96527420525196
  endloop
endfacet
facet normal -0.1305261928913607 -0.9914448612715275 -5.250614164909622e-06
  outer loop
    vertex -37.09620805663742 -19.926039274005927 -113.03941832993603
    vertex -36.68191988478242 -19.980565851868565 -115.96524890721517
    vertex -36.682097585508785 -19.98055795222707 -113.03939303189924
  endloop
endfacet
facet normal -0.38268343250902614 -0.9238795322186991 -2.0747709193150443e-05
  outer loop
    vertex -36.29603035801157 -20.14040652808151 -115.96522503880324
    vertex -36.682097585508785 -19.98055795222707 -113.03939303189924
    vertex -36.68191988478242 -19.980565851868565 -115.96524890721517
  endloop
endfacet
facet normal -0.38268343250902614 -0.9238795322186991 -2.0747709193150443e-05
  outer loop
    vertex -36.682097585508785 -19.98055795222707 -113.03939303189924
    vertex -36.29603035801157 -20.14040652808151 -115.96522503880324
    vertex -36.2962080587379 -20.14039862843999 -113.03936916348731
  endloop
endfacet
endsolid print_holder_nano_2
